<svg width="24" height="24" viewBox="0 0 24 24" fill="none" xmlns="http://www.w3.org/2000/svg">
<path fill-rule="evenodd" clip-rule="evenodd" d="M13.2654 3.75C12.688 2.75 11.2447 2.75 10.6673 3.75L7.2032 9.75C6.62585 10.75 7.34754 12 8.50224 12H15C13.3431 12 12 13.3431 12 15V16.5C12 14.0147 9.98528 12 7.5 12C5.01472 12 3 14.0147 3 16.5C3 18.9853 5.01472 21 7.5 21C9.98528 21 12 18.9853 12 16.5V18C12 19.6569 13.3431 21 15 21H18C19.6569 21 21 19.6569 21 18V15C21 13.3431 19.6569 12 18 12H15.4304C16.5851 12 17.3068 10.75 16.7295 9.75L13.2654 3.75ZM9.36826 10L11.9663 5.5L14.5644 10H9.36826ZM7.5 19C8.88071 19 10 17.8807 10 16.5C10 15.1193 8.88071 14 7.5 14C6.11929 14 5 15.1193 5 16.5C5 17.8807 6.11929 19 7.5 19ZM15 14C14.4477 14 14 14.4477 14 15V18C14 18.5523 14.4477 19 15 19H18C18.5523 19 19 18.5523 19 18V15C19 14.4477 18.5523 14 18 14H15Z" fill="#0D0D15"/>
</svg>
