<svg width="24" height="24" viewBox="0 0 24 24" fill="none" xmlns="http://www.w3.org/2000/svg">
<path fill-rule="evenodd" clip-rule="evenodd" d="M15 5C15 6.65685 13.6569 8 12 8C10.3431 8 9 6.65685 9 5C9 3.34315 10.3431 2 12 2C13.6569 2 15 3.34315 15 5ZM12 4C11.4477 4 11 4.44772 11 5C11 5.55228 11.4477 6 12 6C12.5523 6 13 5.55228 13 5C13 4.44772 12.5523 4 12 4Z" fill="#0D0D15"/>
<path fill-rule="evenodd" clip-rule="evenodd" d="M15.95 11C15.9828 11.1616 16 11.3288 16 11.5V21C16 21.5523 15.5523 22 15 22C14.4477 22 14 21.5523 14 21V17.95C13.8384 17.9828 13.6712 18 13.5 18H10.5C10.3288 18 10.1616 17.9828 10 17.95V21C10 21.5523 9.55229 22 9 22C8.44771 22 8 21.5523 8 21V16C8 15.9339 8.00641 15.8693 8.01864 15.8068C8.00634 15.7063 8 15.6039 8 15.5V11.5C8 11.3288 8.01721 11.1616 8.05001 11H5C4.44772 11 4 10.5523 4 10C4 9.44771 4.44772 9 5 9H19C19.5523 9 20 9.44771 20 10C20 10.5523 19.5523 11 19 11H15.95ZM14 15.5V11.5C14 11.2239 13.7761 11 13.5 11H10.5C10.2239 11 10 11.2239 10 11.5V15.5C10 15.7761 10.2239 16 10.5 16H13.5C13.7761 16 14 15.7761 14 15.5Z" fill="#0D0D15"/>
</svg>
