<svg width="24" height="24" viewBox="0 0 24 24" fill="none" xmlns="http://www.w3.org/2000/svg">
<path fill-rule="evenodd" clip-rule="evenodd" d="M11 11C13.2091 11 15 9.20914 15 7C15 4.79086 13.2091 3 11 3C8.79086 3 7 4.79086 7 7C7 9.20914 8.79086 11 11 11ZM13 7C13 8.10457 12.1046 9 11 9C9.89543 9 9 8.10457 9 7C9 5.89543 9.89543 5 11 5C12.1046 5 13 5.89543 13 7Z" fill="#0D0D15"/>
<path d="M12.6822 12H8C5.23858 12 3 14.2386 3 17V18C3 19.6569 4.34314 21 6 21H11.5278C11.0113 20.4229 10.6048 19.7452 10.3414 19H6C5.44771 19 5 18.5523 5 18V17C5 15.3431 6.34315 14 8 14H10.8027C11.2671 13.1972 11.9121 12.512 12.6822 12Z" fill="#0D0D15"/>
<path fill-rule="evenodd" clip-rule="evenodd" d="M19.4462 19.032C19.7981 18.4365 20 17.7418 20 17C20 14.7909 18.2091 13 16 13C13.7909 13 12 14.7909 12 17C12 19.2091 13.7909 21 16 21C16.7418 21 17.4365 20.7981 18.032 20.4462L19.7386 22.1528C20.1292 22.5434 20.7623 22.5434 21.1528 22.1528C21.5434 21.7623 21.5434 21.1292 21.1528 20.7386L19.4462 19.032ZM18 17C18 18.1046 17.1046 19 16 19C14.8954 19 14 18.1046 14 17C14 15.8954 14.8954 15 16 15C17.1046 15 18 15.8954 18 17Z" fill="#0D0D15"/>
</svg>
