<svg width="24" height="24" viewBox="0 0 24 24" fill="none" xmlns="http://www.w3.org/2000/svg">
<path fill-rule="evenodd" clip-rule="evenodd" d="M16 7C16 9.20914 14.2091 11 12 11C9.79086 11 8 9.20914 8 7C8 4.79086 9.79086 3 12 3C14.2091 3 16 4.79086 16 7ZM12 9C13.1046 9 14 8.10457 14 7C14 5.89543 13.1046 5 12 5C10.8954 5 10 5.89543 10 7C10 8.10457 10.8954 9 12 9Z" fill="#0D0D15"/>
<path fill-rule="evenodd" clip-rule="evenodd" d="M4 17C4 14.2386 6.23858 12 9 12H15C17.7614 12 20 14.2386 20 17V18C20 19.6569 18.6569 21 17 21H7C5.34314 21 4 19.6569 4 18V17ZM17 19C17.5523 19 18 18.5523 18 18V17C18 15.3431 16.6569 14 15 14H9C7.34315 14 6 15.3431 6 17V18C6 18.5523 6.44771 19 7 19H17Z" fill="#0D0D15"/>
</svg>
