<svg width="24" height="24" viewBox="0 0 24 24" fill="none" xmlns="http://www.w3.org/2000/svg">
<path fill-rule="evenodd" clip-rule="evenodd" d="M19.6945 7.5C19.6945 9.433 18.1275 11 16.1945 11C14.2615 11 12.6945 9.433 12.6945 7.5C12.6945 5.567 14.2615 4 16.1945 4C18.1275 4 19.6945 5.567 19.6945 7.5ZM16.1945 9C17.0229 9 17.6945 8.32843 17.6945 7.5C17.6945 6.67157 17.0229 6 16.1945 6C15.366 6 14.6945 6.67157 14.6945 7.5C14.6945 8.32843 15.366 9 16.1945 9Z" fill="#0D0D15"/>
<path fill-rule="evenodd" clip-rule="evenodd" d="M11.5 7.53113C11.5 9.46413 9.933 11.0311 8 11.0311C6.067 11.0311 4.5 9.46413 4.5 7.53113C4.5 5.59814 6.067 4.03113 8 4.03113C9.933 4.03113 11.5 5.59814 11.5 7.53113ZM8 9.03113C8.82843 9.03113 9.5 8.35956 9.5 7.53113C9.5 6.7027 8.82843 6.03113 8 6.03113C7.17157 6.03113 6.5 6.7027 6.5 7.53113C6.5 8.35956 7.17157 9.03113 8 9.03113Z" fill="#0D0D15"/>
<path fill-rule="evenodd" clip-rule="evenodd" d="M2 16C2 13.7909 3.79086 12 6 12H10C12.2091 12 14 13.7909 14 16V17.9311C14 19.0909 13.0598 20.0311 11.9 20.0311H4.1C2.9402 20.0311 2 19.0909 2 17.9311V16ZM4.26357 15.0069L4.26756 15C4.61337 14.4022 5.25972 14 6 14H10C10.7403 14 11.3866 14.4022 11.7324 15L11.7364 15.0069C11.8026 15.1225 11.8577 15.2452 11.9 15.3738C11.9649 15.5708 12 15.7813 12 16V17.9311C12 17.9864 11.9552 18.0311 11.9 18.0311H4.1C4.04477 18.0311 4 17.9864 4 17.9311V16C4 15.7813 4.03511 15.5708 4.1 15.3738C4.14234 15.2452 4.19735 15.1225 4.26357 15.0069Z" fill="#0D0D15"/>
<path d="M15.9854 18.0311C15.9442 18.7351 15.8168 19.4077 15.6168 20.0311H19.9C21.0598 20.0311 22 19.0909 22 17.9311V16C22 13.7909 20.2092 12 18 12H14.608C15.0329 12.5755 15.377 13.2524 15.6168 14H18C18.7403 14 19.3866 14.4022 19.7324 15L19.7364 15.0069C19.8027 15.1225 19.8577 15.2452 19.9 15.3738C19.9649 15.5708 20 15.7813 20 16V17.9311C20 17.9864 19.9552 18.0311 19.9 18.0311H15.9854Z" fill="#0D0D15"/>
</svg>
