<svg width="24" height="24" viewBox="0 0 24 24" fill="none" xmlns="http://www.w3.org/2000/svg">
<path fill-rule="evenodd" clip-rule="evenodd" d="M12 11C14.2091 11 16 9.20914 16 7C16 4.79086 14.2091 3 12 3C9.79086 3 8 4.79086 8 7C8 9.20914 9.79086 11 12 11ZM14 7C14 8.10457 13.1046 9 12 9C10.8954 9 10 8.10457 10 7C10 5.89543 10.8954 5 12 5C13.1046 5 14 5.89543 14 7Z" fill="#0D0D15"/>
<path fill-rule="evenodd" clip-rule="evenodd" d="M9 12C6.23858 12 4 14.2386 4 17V18C4 19.6569 5.34314 21 7 21H17C18.6569 21 20 19.6569 20 18V17C20 14.2386 17.7614 12 15 12H9ZM18 18C18 18.5523 17.5523 19 17 19H7C6.44771 19 6 18.5523 6 18V17C6 15.3431 7.34315 14 9 14H15C16.6569 14 18 15.3431 18 17V18Z" fill="#0D0D15"/>
<path d="M20 4C20 3.44772 20.4477 3 21 3C21.5523 3 22 3.44772 22 4V8C22 8.55228 21.5523 9 21 9C20.4477 9 20 8.55228 20 8V4Z" fill="#0D0D15"/>
<path d="M22 11C22 11.5523 21.5523 12 21 12C20.4477 12 20 11.5523 20 11C20 10.4477 20.4477 10 21 10C21.5523 10 22 10.4477 22 11Z" fill="#0D0D15"/>
</svg>
