<svg width="24" height="24" viewBox="0 0 24 24" fill="none" xmlns="http://www.w3.org/2000/svg">
<path d="M16.0672 8.88907C16.4743 9.26226 16.5018 9.89483 16.1286 10.302L12.008 14.7372C11.813 14.9499 11.5357 15.068 11.2472 15.0612C10.9588 15.0544 10.6873 14.9233 10.5026 14.7016L8.46618 12.2804C8.11261 11.8561 8.16994 11.2256 8.59422 10.872C9.01849 10.5184 9.64906 10.5758 10.0026 11L11.3067 12.5424L14.6543 8.9505C15.0275 8.54338 15.6601 8.51588 16.0672 8.88907Z" fill="#0D0D15"/>
<path fill-rule="evenodd" clip-rule="evenodd" d="M18 3H6C4.34314 3 3 4.34315 3 6V18C3 19.6569 4.34315 21 6 21H18C19.6569 21 21 19.6569 21 18V6C21 4.34314 19.6569 3 18 3ZM5 6C5 5.44772 5.44772 5 6 5H18C18.5523 5 19 5.44772 19 6V18C19 18.5523 18.5523 19 18 19H6C5.44772 19 5 18.5523 5 18V6Z" fill="#0D0D15"/>
</svg>
