<svg width="24" height="24" viewBox="0 0 24 24" fill="none" xmlns="http://www.w3.org/2000/svg">
  <path
    fill-rule="evenodd"
    clip-rule="evenodd"
    d="M15.8319 9.4021C15.3784 8.66227 14.1282 7 11.9993 7C9.87003 7 8.62063 8.66294 8.16781 9.40267C7.94406 9.76818 7.94406 10.2318 8.16781 10.5973C8.62063 11.3371 9.87003 13 11.9993 13C14.1282 13 15.3784 11.3377 15.8319 10.5979C16.056 10.2321 16.056 9.76789 15.8319 9.4021ZM13 10C13 10.5523 12.5523 11 12 11C11.4477 11 11 10.5523 11 10C11 9.44772 11.4477 9 12 9C12.5523 9 13 9.44772 13 10Z"
    fill="#0D0D15"
  />
  <path
    fill-rule="evenodd"
    clip-rule="evenodd"
    d="M8.99999 17H6C4.34315 17 3 15.6569 3 14V6C3 4.34315 4.34315 3 6 3H18C19.6569 3 21 4.34315 21 6V14C21 15.6569 19.6569 17 18 17H15V19H16C16.5523 19 17 19.4477 17 20C17 20.5523 16.5523 21 16 21H7.99999C7.44771 21 6.99999 20.5523 6.99999 20C6.99999 19.4477 7.44771 19 7.99999 19H8.99999V17ZM6 5H18C18.5523 5 19 5.44771 19 6V14C19 14.5523 18.5523 15 18 15H6C5.44772 15 5 14.5523 5 14V6C5 5.44772 5.44772 5 6 5ZM13 17V19H11V17H13Z"
    fill="#0D0D15"
  />
</svg>
