<svg width="24" height="24" viewBox="0 0 24 24" fill="none" xmlns="http://www.w3.org/2000/svg">
  <path
    d="M8.5 9C8.22386 9 8 9.22386 8 9.5V10.5C8 10.7761 8.22386 11 8.5 11H10.5C10.7761 11 11 10.7761 11 10.5V9.5C11 9.22386 10.7761 9 10.5 9H8.5Z"
    fill="#0D0D15"
  />
  <path
    d="M13 9.5C13 9.22386 13.2239 9 13.5 9H15.5C15.7761 9 16 9.22386 16 9.5V10.5C16 10.7761 15.7761 11 15.5 11H13.5C13.2239 11 13 10.7761 13 10.5V9.5Z"
    fill="#0D0D15"
  />
  <path
    d="M13.5 12C13.2239 12 13 12.2239 13 12.5V13.5C13 13.7761 13.2239 14 13.5 14H15.5C15.7761 14 16 13.7761 16 13.5V12.5C16 12.2239 15.7761 12 15.5 12H13.5Z"
    fill="#0D0D15"
  />
  <path
    d="M8 12.5C8 12.2239 8.22386 12 8.5 12H10.5C10.7761 12 11 12.2239 11 12.5V13.5C11 13.7761 10.7761 14 10.5 14H8.5C8.22386 14 8 13.7761 8 13.5V12.5Z"
    fill="#0D0D15"
  />
  <path
    fill-rule="evenodd"
    clip-rule="evenodd"
    d="M20 19.0001V8.53524C20 7.53218 19.4987 6.59548 18.6641 6.03909L13.6641 2.70575C12.6564 2.03396 11.3436 2.03395 10.3359 2.70575L5.3359 6.03909C4.5013 6.59548 4 7.53218 4 8.53524V19.0001C4 20.6569 5.34314 22.0001 7 22.0001H17C18.6569 22.0001 20 20.6569 20 19.0001ZM6 8.53524C6 8.20088 6.1671 7.88865 6.4453 7.70319L11.4453 4.36985C11.7812 4.14592 12.2188 4.14592 12.5547 4.36985L17.5547 7.70319C17.8329 7.88865 18 8.20088 18 8.53524V19.0001C18 19.5523 17.5523 20.0001 17 20.0001H14.9977C14.9992 19.9669 15 19.9335 15 19.9V18.1C15 16.9402 14.0598 16 12.9 16H11.1C9.9402 16 9 16.9402 9 18.1V19.9C9 19.9335 9.00079 19.9669 9.00234 20.0001H7C6.44772 20.0001 6 19.5523 6 19.0001V8.53524ZM11 18.1C11 18.0448 11.0448 18 11.1 18H12.9C12.9552 18 13 18.0448 13 18.1V19.9C13 19.9552 12.9552 20 12.9 20H11.1C11.0448 20 11 19.9552 11 19.9V18.1Z"
    fill="#0D0D15"
  />
</svg>
