<svg width="24" height="24" viewBox="0 0 24 24" fill="none" xmlns="http://www.w3.org/2000/svg">
  <path
    fill-rule="evenodd"
    clip-rule="evenodd"
    d="M12 2C11.4477 2 11 2.44772 11 3V4C11 4.02372 11.0008 4.04724 11.0024 4.07054C7.60896 4.55472 5 7.47268 5 11V17C4.44772 17 3.99998 17.4477 3.99998 18C3.99998 18.5523 4.4477 19 4.99998 19H19C19.5523 19 20 18.5523 20 18C20 17.4477 19.5523 17 19 17V11C19 7.47268 16.391 4.55472 12.9976 4.07054C12.9992 4.04724 13 4.02372 13 4V3C13 2.44772 12.5523 2 12 2ZM7 17V11C7 8.23858 9.23858 6 12 6C14.7614 6 17 8.23858 17 11V17H7Z"
    fill="#0D0D15"
  />
  <path
    d="M5.07181 3.16897C4.61285 2.86176 3.99175 2.98477 3.68454 3.44372C3.01615 4.44224 2.52239 5.56862 2.24781 6.7787C2.08549 7.49403 2 8.23763 2 8.99998C2 9.55227 2.44772 9.99998 3 9.99998C3.55228 9.99998 4 9.55227 4 8.99998C4 8.38756 4.06863 7.79238 4.19823 7.22127C4.41743 6.25524 4.81171 5.35527 5.34656 4.55624C5.65377 4.09729 5.53076 3.47619 5.07181 3.16897Z"
    fill="#0D0D15"
  />
  <path
    d="M18.9463 3.19057C19.4062 2.88478 20.0269 3.00972 20.3327 3.46963C20.9923 4.46171 21.4799 5.57908 21.7522 6.7787C21.9145 7.49403 22 8.23763 22 8.99998C22 9.55227 21.5522 9.99998 21 9.99998C20.4477 9.99998 20 9.55227 20 8.99998C20 8.38756 19.9313 7.79238 19.8017 7.22127C19.5844 6.26359 19.1951 5.37082 18.6672 4.57697C18.3614 4.11707 18.4864 3.49635 18.9463 3.19057Z"
    fill="#0D0D15"
  />
  <path
    d="M12 22C13.1046 22 14 21.1046 14 20H9.99998C9.99998 21.1046 10.8954 22 12 22Z"
    fill="#0D0D15"
  />
</svg>
