<svg width="24" height="24" viewBox="0 0 24 24" fill="none" xmlns="http://www.w3.org/2000/svg">
<path d="M17.0001 11.8115V11C17.0001 8.23858 14.7615 6 12.0001 6C11.7435 6 11.4914 6.01933 11.2452 6.05661L9.60802 4.41938C10.0535 4.2574 10.5201 4.13938 11.0026 4.07054C11.0009 4.04724 11.0001 4.02372 11.0001 4V3C11.0001 2.44772 11.4478 2 12.0001 2C12.5524 2 13.0001 2.44772 13.0001 3V4C13.0001 4.02372 12.9993 4.04724 12.9977 4.07054C16.3911 4.55472 19.0001 7.47268 19.0001 11V13.8115L17.0001 11.8115Z" fill="#0D0D15"/>
<path fill-rule="evenodd" clip-rule="evenodd" d="M6.39368 6.80789C5.5185 7.97646 5.00011 9.42769 5.00011 11V17C4.44783 17 4.00009 17.4477 4.00009 18C4.00009 18.5523 4.44781 19 5.00009 19H18.5858L19.6945 20.1087C20.085 20.4992 20.7182 20.4992 21.1087 20.1087C21.4992 19.7182 21.4992 19.085 21.1087 18.6945L5.63582 3.2216C5.24529 2.83108 4.61213 2.83108 4.2216 3.2216C3.83108 3.61213 3.83108 4.24529 4.2216 4.63582L6.39368 6.80789ZM7.82846 8.24268L16.5858 17H7.00011V11C7.00011 9.98095 7.30497 9.0331 7.82846 8.24268Z" fill="#0D0D15"/>
<path d="M12.0001 22C13.1047 22 14.0001 21.1046 14.0001 20H10.0001C10.0001 21.1046 10.8955 22 12.0001 22Z" fill="#0D0D15"/>
</svg>
