<svg width="24" height="24" viewBox="0 0 24 24" fill="none" xmlns="http://www.w3.org/2000/svg">
<path d="M9.99265 13.4318C9.99265 14.2602 9.32108 14.9318 8.49265 14.9318C7.66423 14.9318 6.99265 14.2602 6.99265 13.4318C6.99265 12.6033 7.66423 11.9318 8.49265 11.9318C9.32108 11.9318 9.99265 12.6033 9.99265 13.4318Z" fill="#0D0D15"/>
<path d="M16.9927 13.4318C16.9927 14.2602 16.3211 14.9318 15.4927 14.9318C14.6642 14.9318 13.9927 14.2602 13.9927 13.4318C13.9927 12.6033 14.6642 11.9318 15.4927 11.9318C16.3211 11.9318 16.9927 12.6033 16.9927 13.4318Z" fill="#0D0D15"/>
<path fill-rule="evenodd" clip-rule="evenodd" d="M3.30328 4.49994L6.19378 7.39044C7.81846 6.17922 9.8333 5.46225 12.0156 5.46225C14.1979 5.46225 16.2127 6.17922 17.8374 7.39044L20.7279 4.49994C21.0208 4.20705 21.4957 4.20705 21.7886 4.49994C22.0815 4.79284 22.0815 5.26771 21.7886 5.5606L18.9703 8.37889C20.6992 10.1383 21.7656 12.5507 21.7656 15.2123V17.2123C21.7656 18.731 20.5344 19.9623 19.0156 19.9623H5.01559C3.49681 19.9623 2.26559 18.731 2.26559 17.2123V15.2123C2.26559 12.5507 3.33203 10.1383 5.0609 8.37889L2.24262 5.5606C1.94973 5.26771 1.94973 4.79284 2.24262 4.49994C2.53551 4.20705 3.01039 4.20705 3.30328 4.49994ZM12.0156 6.96225C7.45924 6.96225 3.76559 10.6559 3.76559 15.2123V17.2123C3.76559 17.9026 4.32523 18.4623 5.01559 18.4623H19.0156C19.7059 18.4623 20.2656 17.9026 20.2656 17.2123V15.2123C20.2656 10.6559 16.5719 6.96225 12.0156 6.96225Z" fill="#0D0D15"/>
</svg>
