<svg width="24" height="24" viewBox="0 0 24 24" fill="none" xmlns="http://www.w3.org/2000/svg">
  <path
    d="M14.9497 7.29289C15.3403 7.68342 15.3403 8.31658 14.9497 8.70711L13.5355 10.1213L14.9498 11.5355C15.3403 11.9261 15.3403 12.5592 14.9498 12.9497C14.5592 13.3403 13.9261 13.3403 13.5356 12.9497L12.1213 11.5355L10.7071 12.9497C10.3166 13.3403 9.68342 13.3403 9.29289 12.9497C8.90237 12.5592 8.90237 11.9261 9.29289 11.5355L10.7071 10.1213L9.29292 8.70711C8.90239 8.31658 8.90239 7.68342 9.29292 7.29289C9.68344 6.90237 10.3166 6.90237 10.7071 7.29289L12.1213 8.7071L13.5355 7.29289C13.9261 6.90237 14.5592 6.90237 14.9497 7.29289Z"
    fill="#0D0D15"
  />
  <path
    fill-rule="evenodd"
    clip-rule="evenodd"
    d="M7 3C7 2.44772 7.44772 2 8 2C8.55229 2 9 2.44772 9 3H15C15 2.44772 15.4477 2 16 2C16.5523 2 17 2.44772 17 3H18C19.6569 3 21 4.34314 21 6V14C21 15.6569 19.6569 17 18 17H17V20C17 20.5523 16.5523 21 16 21C15.4477 21 15 20.5523 15 20V17H9V20C9 20.5523 8.55229 21 8 21C7.44772 21 7 20.5523 7 20V17H6C4.34315 17 3 15.6569 3 14V6C3 4.34315 4.34315 3 6 3H7ZM6 5C5.44772 5 5 5.44772 5 6V14C5 14.5523 5.44772 15 6 15H18C18.5523 15 19 14.5523 19 14V6C19 5.44772 18.5523 5 18 5H6Z"
    fill="#0D0D15"
  />
</svg>
