<svg width="24" height="24" viewBox="0 0 24 24" fill="none" xmlns="http://www.w3.org/2000/svg">
  <path
    d="M12.5458 14.3683C12.5227 14.3452 12.501 14.3213 12.4807 14.2966C12.445 14.2694 12.4107 14.2396 12.3781 14.207L10.9746 12.8034L7.67537 16.1026C7.28484 16.4932 6.65168 16.4932 6.26115 16.1026C5.87063 15.7121 5.87063 15.0789 6.26115 14.6884L10.2615 10.6881C10.4628 10.4868 10.7285 10.3893 10.9923 10.3955C11.2444 10.3984 11.4956 10.496 11.6879 10.6883L13.2497 12.2501L16.6567 8.84319C17.0472 8.45266 17.6804 8.45266 18.0709 8.84319C18.4614 9.23371 18.4614 9.86688 18.0709 10.2574L13.96 14.3683C13.5695 14.7588 12.9363 14.7588 12.5458 14.3683Z"
    fill="#0D0D15"
  />
  <path
    fill-rule="evenodd"
    clip-rule="evenodd"
    d="M5 4H19C20.6569 4 22 5.34315 22 7V17C22 18.6569 20.6569 20 19 20H5C3.34315 20 2 18.6569 2 17V7C2 5.34314 3.34315 4 5 4ZM4 17V7H20V17C20 17.5523 19.5523 18 19 18H5C4.44772 18 4 17.5523 4 17Z"
    fill="#0D0D15"
  />
</svg>
