<svg width="24" height="24" viewBox="0 0 24 24" fill="none" xmlns="http://www.w3.org/2000/svg">
  <path
    fill-rule="evenodd"
    clip-rule="evenodd"
    d="M7 3H21C22.6569 3 24 4.34315 24 6V16C24 17.6569 22.6569 19 21 19H7C5.34315 19 4 17.6569 4 16V6C4 4.34314 5.34315 3 7 3ZM6 16V6H22V16C22 16.5523 21.5523 17 21 17H7C6.44772 17 6 16.5523 6 16Z"
    fill="#0D0D15"
  />
  <path
    d="M1 9C0.447715 9 0 9.44771 0 10V19C0 21.2091 1.79086 23 4 23H16C16.5523 23 17 22.5523 17 22C17 21.4477 16.5523 21 16 21H4C2.89543 21 2 20.1046 2 19V10C2 9.44771 1.55228 9 1 9Z"
    fill="#0D0D15"
  />
</svg>
