<svg width="24" height="24" viewBox="0 0 24 24" fill="none" xmlns="http://www.w3.org/2000/svg">
  <path
    d="M14.9497 10.9142C15.3402 10.5237 15.3402 9.89052 14.9497 9.5C14.5592 9.10948 13.926 9.10948 13.5355 9.5L12.1213 10.9142L10.7071 9.5C10.3166 9.10948 9.68342 9.10948 9.29289 9.5C8.90237 9.89052 8.90237 10.5237 9.29289 10.9142L10.7071 12.3284L9.29287 13.7426C8.90235 14.1332 8.90235 14.7663 9.29287 15.1569C9.6834 15.5474 10.3166 15.5474 10.7071 15.1569L12.1213 13.7426L13.5355 15.1569C13.9261 15.5474 14.5592 15.5474 14.9497 15.1569C15.3403 14.7663 15.3403 14.1332 14.9497 13.7426L13.5355 12.3284L14.9497 10.9142Z"
    fill="#0D0D15"
  />
  <path
    fill-rule="evenodd"
    clip-rule="evenodd"
    d="M19 4H5C3.34315 4 2 5.34314 2 7V17C2 18.6569 3.34315 20 5 20H19C20.6569 20 22 18.6569 22 17V7C22 5.34315 20.6569 4 19 4ZM4 7V17C4 17.5523 4.44772 18 5 18H19C19.5523 18 20 17.5523 20 17V7H4Z"
    fill="#0D0D15"
  />
</svg>
