<svg width="24" height="24" viewBox="0 0 24 24" fill="none" xmlns="http://www.w3.org/2000/svg">
  <path
    d="M5 4H19C20.6569 4 22 5.34315 22 7V10.8927C21.4682 10.2316 20.7665 9.72947 20 9.4091V7H4V17C4 17.5523 4.44772 18 5 18H11V20H5C3.34315 20 2 18.6569 2 17V7C2 5.34314 3.34315 4 5 4Z"
    fill="#0D0D15"
  />
  <path
    fill-rule="evenodd"
    clip-rule="evenodd"
    d="M15 13.7778V15.1707C14.1476 15.472 13.472 16.1476 13.1707 17C13.0602 17.3128 13 17.6494 13 18V20C13 21.6569 14.3431 23 16 23H20C20.7684 23 21.4692 22.7111 22 22.2361C22.6137 21.6868 23 20.8885 23 20V18C23 16.6938 22.1652 15.5825 21 15.1707V13.7778C21 12.1362 19.5429 11 18 11C16.4571 11 15 12.1362 15 13.7778ZM18 13C17.3337 13 17 13.4557 17 13.7778V15H19V13.7778C19 13.4557 18.6663 13 18 13ZM20 21C20.5523 21 21 20.5523 21 20V18C21 17.4477 20.5523 17 20 17H16C15.4477 17 15 17.4477 15 18V20C15 20.5523 15.4477 21 16 21H20Z"
    fill="#0D0D15"
  />
</svg>
