<svg width="24" height="24" viewBox="0 0 24 24" fill="none" xmlns="http://www.w3.org/2000/svg">
  <path
    d="M4 6.5H3.5V7V17C3.5 17.8284 4.17157 18.5 5 18.5H10H10.5V18V7V6.5H10H4ZM12 12.5H11.5V13V18V18.5H12H19C19.8284 18.5 20.5 17.8284 20.5 17V13V12.5H20H12ZM11.5 11V11.5H12H20H20.5V11V7V6.5H20H12H11.5V7V11ZM5 4.5H19C20.3807 4.5 21.5 5.61929 21.5 7V17C21.5 18.3807 20.3807 19.5 19 19.5H5C3.61929 19.5 2.5 18.3807 2.5 17V7C2.5 5.61929 3.61929 4.5 5 4.5Z"
    fill="#0D0D15"
    stroke="#0D0D15"
  />
</svg>
