<svg width="24" height="24" viewBox="0 0 24 24" fill="none" xmlns="http://www.w3.org/2000/svg">
  <path
    d="M19 4H5C3.34315 4 2 5.34314 2 7V17C2 18.6569 3.34315 20 5 20H9V18H5C4.44772 18 4 17.5523 4 17V7H20V17C20 17.5523 19.5523 18 19 18H15V20H19C20.6569 20 22 18.6569 22 17V7C22 5.34315 20.6569 4 19 4Z"
    fill="#0D0D15"
  />
  <path
    d="M13 14.4142L14.2929 15.7071C14.6834 16.0976 15.3166 16.0976 15.7071 15.7071C16.0976 15.3166 16.0976 14.6834 15.7071 14.2929L12.7071 11.2929C12.3166 10.9024 11.6834 10.9024 11.2929 11.2929L8.29289 14.2929C7.90237 14.6834 7.90237 15.3166 8.29289 15.7071C8.68342 16.0976 9.31658 16.0976 9.70711 15.7071L11 14.4142V20C11 20.5523 11.4477 21 12 21C12.5523 21 13 20.5523 13 20V14.4142Z"
    fill="#0D0D15"
  />
</svg>
