<svg width="24" height="24" viewBox="0 0 24 24" fill="none" xmlns="http://www.w3.org/2000/svg">
  <path
    d="M14.2929 12.2929L13 13.5858V8C13 7.44771 12.5523 7 12 7C11.4477 7 11 7.44771 11 8V13.5858L9.70711 12.2929C9.31658 11.9024 8.68342 11.9024 8.29289 12.2929C7.90237 12.6834 7.90237 13.3166 8.29289 13.7071L11.2929 16.7071C11.6834 17.0976 12.3166 17.0976 12.7071 16.7071L15.7071 13.7071C16.0976 13.3166 16.0976 12.6834 15.7071 12.2929C15.3166 11.9024 14.6834 11.9024 14.2929 12.2929Z"
    fill="#0D0D15"
  />
  <path
    fill-rule="evenodd"
    clip-rule="evenodd"
    d="M19.5 3H4.5C3.11929 3 2 4.11929 2 5.5V6.5C2 7.31791 2.39278 8.04408 3 8.50018V17C3 19.2091 4.79086 21 7 21H17C19.2091 21 21 19.2091 21 17V8.50018C21.6072 8.04408 22 7.31791 22 6.5V5.5C22 4.11929 20.8807 3 19.5 3ZM19 9H15V7H19.5C19.7761 7 20 6.77614 20 6.5V5.5C20 5.22386 19.7761 5 19.5 5H4.5C4.22386 5 4 5.22386 4 5.5V6.5C4 6.77614 4.22386 7 4.5 7H9V9H5V17C5 18.1046 5.89543 19 7 19H17C18.1046 19 19 18.1046 19 17V9Z"
    fill="#0D0D15"
  />
</svg>
