<svg width="24" height="24" viewBox="0 0 24 24" fill="none" xmlns="http://www.w3.org/2000/svg">
  <path
    d="M16.2426 14.2927C16.6332 13.9022 16.6332 13.269 16.2426 12.8785L15.1821 11.8179L16.2428 10.7572C16.6334 10.3666 16.6334 9.73347 16.2428 9.34294C15.8523 8.95242 15.2191 8.95242 14.8286 9.34294L13.7679 10.4037L12.7071 9.34294C12.3166 8.95242 11.6834 8.95242 11.2929 9.34294C10.9024 9.73347 10.9024 10.3666 11.2929 10.7572L12.3536 11.8179L11.2931 12.8785C10.9026 13.269 10.9026 13.9022 11.2931 14.2927C11.6836 14.6832 12.3168 14.6832 12.7073 14.2927L13.7679 13.2321L14.8284 14.2927C15.219 14.6832 15.8521 14.6832 16.2426 14.2927Z"
    fill="#0D0D15"
  />
  <path
    fill-rule="evenodd"
    clip-rule="evenodd"
    d="M8.14257 5C7.53218 5 6.9533 5.26339 6.56234 5.719L2.47747 10.4794C1.86098 11.1979 1.83927 12.2357 2.4252 12.9779L6.56157 18.2175C6.95101 18.7108 7.55435 19 8.19408 19H19.9423C21.0787 19 22 18.1046 22 17V7C22 5.89543 21.0787 5 19.9423 5H8.14257ZM19.9423 7H8.14257L4.05771 11.7604L8.19408 17H19.9423V7Z"
    fill="#0D0D15"
  />
</svg>
