<svg width="24" height="24" viewBox="0 0 24 24" fill="none" xmlns="http://www.w3.org/2000/svg">
  <path
    d="M19.9775 12C19.9775 7.58172 16.3554 4 11.8873 4C9.33344 4 7.05543 5.16951 5.57153 7H7.84228C8.40079 7 8.85355 7.44772 8.85355 8C8.85355 8.55228 8.40079 9 7.84228 9H3.79722C3.23871 9 2.78596 8.55228 2.78596 8V4C2.78596 3.44772 3.23871 3 3.79722 3C4.35573 3 4.80849 3.44772 4.80849 4V4.8587C6.63178 3.09134 9.13056 2 11.8873 2C17.4724 2 22 6.47715 22 12C22 17.5228 17.4724 22 11.8873 22C8.89222 22 6.20017 20.7111 4.34992 18.6669C3.74718 18.001 3.23313 17.2543 2.82641 16.445C2.47529 15.7464 2.20424 15.0011 2.02529 14.2213C1.9017 13.6827 2.24304 13.147 2.7877 13.0248C3.33237 12.9026 3.87409 13.2401 3.99768 13.7787C4.14058 14.4015 4.35702 14.9966 4.63762 15.555C4.96273 16.2019 5.37406 16.7995 5.85698 17.3331C7.33978 18.9713 9.49142 20 11.8873 20C16.3554 20 19.9775 16.4183 19.9775 12Z"
    fill="#0D0D15"
  />
  <path
    d="M14.6249 9.29289C14.23 8.90237 13.5897 8.90237 13.1948 9.29289L11.8873 10.5858L10.5799 9.29289C10.185 8.90237 9.54466 8.90237 9.14974 9.29289C8.75482 9.68342 8.75482 10.3166 9.14974 10.7071L10.4572 12L9.14974 13.2929C8.75482 13.6834 8.75482 14.3166 9.14974 14.7071C9.54466 15.0976 10.185 15.0976 10.5799 14.7071L11.8873 13.4142L13.1948 14.7071C13.5897 15.0976 14.23 15.0976 14.6249 14.7071C15.0199 14.3166 15.0199 13.6834 14.6249 13.2929L13.3175 12L14.6249 10.7071C15.0199 10.3166 15.0199 9.68342 14.6249 9.29289Z"
    fill="#0D0D15"
  />
</svg>
