<svg width="24" height="24" viewBox="0 0 24 24" fill="none" xmlns="http://www.w3.org/2000/svg">
  <path
    d="M12 14C11.4477 14 11 13.5523 11 13C11 12.4477 11.4477 12 12 12C12.3689 12 12.6924 12.1992 12.8668 12.5007C13.1434 12.9788 13.7551 13.1421 14.2332 12.8656C14.7112 12.5891 14.8746 11.9773 14.598 11.4993C14.0808 10.6052 13.1117 10 12 10C10.3431 10 9 11.3431 9 13C9 14.6569 10.3431 16 12 16C12.5523 16 13 15.5523 13 15C13 14.4477 12.5523 14 12 14Z"
    fill="#0D0D15"
  />
  <path
    fill-rule="evenodd"
    clip-rule="evenodd"
    d="M13 2C14.1046 2 15 2.89543 15 4H16C17.1046 4 18 4.89543 18 6V20C18 21.1046 17.1046 22 16 22H8C6.89543 22 6 21.1046 6 20L6 6C6 4.89543 6.89543 4 8 4H9C9 2.89543 9.89543 2 11 2H13ZM8 20H16L16 6H8V20Z"
    fill="#0D0D15"
  />
</svg>
