<svg width="24" height="24" viewBox="0 0 24 24" fill="none" xmlns="http://www.w3.org/2000/svg">
  <path
    d="M9 4C9 2.89543 9.89543 2 11 2H13C14.1046 2 15 2.89543 15 4L16 4C17.1046 4 18 4.89543 18 6V8.41604C17.3875 8.14845 16.7111 8 16 8L16 6L8 6L8 8.10002C7.67689 8.03443 7.34247 8 7 8C6.65753 8 6.32311 8.03443 6 8.10002V6C6 4.89543 6.89543 4 8 4H9Z"
    fill="#0D0D15"
  />
  <path
    d="M16 18C16.7111 18 17.3875 17.8516 18 17.584V20C18 21.1046 17.1046 22 16 22H8C6.89543 22 6 21.1046 6 20V17.9C6.32311 17.9656 6.65753 18 7 18C7.34247 18 7.67689 17.9656 8 17.9L8 20H16L16 18Z"
    fill="#0D0D15"
  />
  <path
    d="M10.712 10.5084L12.1065 11.7354L10.5 13L9.23881 12.0615L9.22784 12.051C8.92426 11.7608 8.55219 11.6152 8.15 11.6152C7.31186 11.6152 6.6725 12.2563 6.6725 13C6.6725 13.7437 7.31186 14.3848 8.15 14.3848C8.55646 14.3848 8.9273 14.2363 9.2045 13.9713L9.21521 13.961L13.3165 10.4811C13.9796 9.85299 14.894 9.5 15.85 9.5C17.8399 9.5 19.5 11.0382 19.5 12.9944C19.5 14.9495 17.8411 16.4944 15.85 16.4944C14.8841 16.4944 13.9773 16.1388 13.2888 15.4923L11.858 14.3848L13.5 13L14.7613 13.9386L14.7722 13.949C15.0752 14.2387 15.4529 14.3848 15.85 14.3848C16.6881 14.3848 17.3275 13.7437 17.3275 13C17.3275 12.2563 16.6881 11.6152 15.85 11.6152C15.4435 11.6152 15.0727 11.7637 14.7955 12.0287L14.7848 12.039L10.6835 15.5189C10.0204 16.147 9.10602 16.5 8.15 16.5C6.15824 16.5 4.5 14.9489 4.5 13C4.5 11.0511 6.15824 9.5 8.15 9.5C9.10937 9.5 10.0226 9.8552 10.712 10.5084Z"
    fill="#0D0D15"
  />
</svg>
