<svg width="24" height="24" viewBox="0 0 24 24" fill="none" xmlns="http://www.w3.org/2000/svg">
  <path
    d="M10 10C10 10.5523 9.55229 11 9 11C8.44772 11 8 10.5523 8 10C8 9.44771 8.44772 9 9 9C9.55229 9 10 9.44771 10 10Z"
    fill="#0D0D15"
  />
  <path
    d="M15 11C15.5523 11 16 10.5523 16 10C16 9.44771 15.5523 9 15 9C14.4477 9 14 9.44771 14 10C14 10.5523 14.4477 11 15 11Z"
    fill="#0D0D15"
  />
  <path
    fill-rule="evenodd"
    clip-rule="evenodd"
    d="M15 14C15 15.6569 13.6569 17 12 17C10.3431 17 9 15.6569 9 14C9 12.3431 10.3431 11 12 11C13.6569 11 15 12.3431 15 14ZM12 13C11.4477 13 11 13.4477 11 14C11 14.5523 11.4477 15 12 15C12.5523 15 13 14.5523 13 14C13 13.4477 12.5523 13 12 13Z"
    fill="#0D0D15"
  />
  <path
    fill-rule="evenodd"
    clip-rule="evenodd"
    d="M2.50374 8.85751C1.58095 8.03342 1 6.83455 1 5.5C1 3.01472 3.01472 1 5.5 1C6.83455 1 8.03342 1.58095 8.85751 2.50374C9.84572 2.1769 10.9022 2 12 2C13.0978 2 14.1543 2.1769 15.1425 2.50374C15.9666 1.58095 17.1654 1 18.5 1C20.9853 1 23 3.01472 23 5.5C23 6.83455 22.4191 8.03342 21.4963 8.85751C21.8231 9.84572 22 10.9022 22 12C22 17.5228 17.5228 22 12 22C6.47715 22 2 17.5228 2 12C2 10.9022 2.1769 9.84572 2.50374 8.85751ZM6.87467 3.41154C6.48027 3.15141 6.00781 3 5.5 3C4.11929 3 3 4.11929 3 5.5C3 6.00781 3.15141 6.48027 3.41154 6.87467C4.26133 5.45375 5.45375 4.26133 6.87467 3.41154ZM20.5885 6.87468C20.8486 6.48027 21 6.00782 21 5.5C21 4.11929 19.8807 3 18.5 3C17.9922 3 17.5197 3.15141 17.1253 3.41154C18.5462 4.26133 19.7387 5.45375 20.5885 6.87468ZM12 20C16.4183 20 20 16.4183 20 12C20 7.58172 16.4183 4 12 4C7.58172 4 4 7.58172 4 12C4 16.4183 7.58172 20 12 20Z"
    fill="#0D0D15"
  />
</svg>
