<svg width="24" height="24" viewBox="0 0 24 24" fill="none" xmlns="http://www.w3.org/2000/svg">
  <path
    fill-rule="evenodd"
    clip-rule="evenodd"
    d="M6 7C6 4.23858 8.23858 2 11 2H11.5C13.9853 2 16 4.01472 16 6.5C16 7.60169 15.6041 8.61092 14.9468 9.39317C16.7411 10.1524 18 11.9292 18 14C18 16.7614 15.7614 19 13 19H11C9.87439 19 8.83566 18.6281 8 18.0004V21C8 21.5523 7.55228 22 7 22C6.44772 22 6 21.5523 6 21V7ZM8 14C8 15.6569 9.34315 17 11 17H13C14.6569 17 16 15.6569 16 14C16 12.3431 14.6569 11 13 11H11C10.4477 11 10 10.5523 10 10C10 9.44771 10.4477 9 11 9H11.5C12.8807 9 14 7.88071 14 6.5C14 5.11929 12.8807 4 11.5 4H11C9.34315 4 8 5.34315 8 7V14Z"
    fill="#0D0D15"
  />
</svg>
