<svg width="24" height="24" viewBox="0 0 24 24" fill="none" xmlns="http://www.w3.org/2000/svg">
  <path
    fill-rule="evenodd"
    clip-rule="evenodd"
    d="M15.5192 12.194C15.5284 12.2975 15.5331 12.3965 15.5331 12.5C15.5331 12.6035 15.5284 12.7025 15.5145 12.806L16.3754 13.4405C16.5605 13.58 16.6114 13.8275 16.4957 14.0255L15.6302 15.479C15.5145 15.677 15.2646 15.758 15.0517 15.668L14.0567 15.2585C13.8855 15.3755 13.705 15.479 13.5152 15.5645L13.381 16.604C13.3532 16.829 13.1542 17 12.9228 17H11.1966C10.9652 17 10.7662 16.829 10.7384 16.604L10.6042 15.5645C10.4144 15.479 10.2339 15.3755 10.0627 15.2585L9.06766 15.668C8.85477 15.758 8.60485 15.677 8.48915 15.479L7.6237 14.0255C7.508 13.8275 7.55891 13.5755 7.74403 13.4405L8.60485 12.806C8.5956 12.7025 8.59097 12.6035 8.59097 12.5C8.59097 12.3965 8.5956 12.2975 8.60485 12.1985L7.74403 11.564C7.55891 11.4245 7.508 11.177 7.6237 10.979L8.48915 9.521C8.60485 9.323 8.85477 9.242 9.06766 9.332L10.0627 9.7415C10.2339 9.6245 10.4144 9.521 10.6042 9.4355L10.7384 8.396C10.7662 8.171 10.9652 8 11.2012 8H12.9275C13.1589 8 13.3579 8.171 13.3856 8.396L13.5198 9.4355C13.7096 9.521 13.8901 9.6245 14.0613 9.7415L15.0564 9.332C15.2693 9.242 15.5192 9.323 15.6349 9.521L16.5003 10.9745C16.616 11.1725 16.5651 11.4245 16.38 11.5595L15.5192 12.194ZM10.4607 12.5C10.4607 13.3685 11.1873 14.075 12.0805 14.075C12.9737 14.075 13.7003 13.3685 13.7003 12.5C13.7003 11.6315 12.9737 10.925 12.0805 10.925C11.1873 10.925 10.4607 11.6315 10.4607 12.5Z"
    fill="#0D0D15"
  />
  <path
    fill-rule="evenodd"
    clip-rule="evenodd"
    d="M5 4H19C20.6569 4 22 5.34315 22 7V17C22 18.6569 20.6569 20 19 20H5C3.34315 20 2 18.6569 2 17V7C2 5.34314 3.34315 4 5 4ZM4 17V7H20V17C20 17.5523 19.5523 18 19 18H5C4.44772 18 4 17.5523 4 17Z"
    fill="#0D0D15"
  />
</svg>
