<svg width="24" height="24" viewBox="0 0 24 24" fill="none" xmlns="http://www.w3.org/2000/svg">
  <path
    d="M11 10C11 9.44771 11.4477 9 12 9C12.5523 9 13 9.44772 13 10V11.5H14.5C15.0523 11.5 15.5 11.9477 15.5 12.5C15.5 13.0523 15.0523 13.5 14.5 13.5H13V15C13 15.5523 12.5523 16 12 16C11.4477 16 11 15.5523 11 15V13.5H9.5C8.94771 13.5 8.5 13.0523 8.5 12.5C8.5 11.9477 8.94772 11.5 9.5 11.5H11V10Z"
    fill="#0D0D15"
  />
  <path
    fill-rule="evenodd"
    clip-rule="evenodd"
    d="M5 4H19C20.6569 4 22 5.34315 22 7V17C22 18.6569 20.6569 20 19 20H5C3.34315 20 2 18.6569 2 17V7C2 5.34314 3.34315 4 5 4ZM4 17V7H20V17C20 17.5523 19.5523 18 19 18H5C4.44772 18 4 17.5523 4 17Z"
    fill="#0D0D15"
  />
</svg>
