<svg width="24" height="24" viewBox="0 0 24 24" fill="none" xmlns="http://www.w3.org/2000/svg">
  <path
    d="M8.5 15.74V15.48L8.28719 15.3307C6.6032 14.1491 5.5 12.2082 5.5 10C5.5 6.41614 8.41614 3.5 12 3.5C15.5839 3.5 18.5 6.41614 18.5 10C18.5 12.2082 17.3968 14.1491 15.7128 15.3307L15.5 15.48V15.74V16.5C15.5 17.6046 14.6046 18.5 13.5 18.5H10.5C9.39543 18.5 8.5 17.6046 8.5 16.5V15.74ZM11.5 1C11.5 0.723858 11.7239 0.5 12 0.5C12.2761 0.5 12.5 0.723858 12.5 1C12.5 1.27614 12.2761 1.5 12 1.5C11.7239 1.5 11.5 1.27614 11.5 1ZM14.5 16.5V14.9591L15.1357 14.5103C15.1362 14.51 15.1366 14.5097 15.1371 14.5094C16.6197 13.4764 17.5 11.7941 17.5 10C17.5 6.96386 15.0361 4.5 12 4.5C8.96386 4.5 6.5 6.96386 6.5 10C6.5 11.7941 7.38033 13.4764 8.86291 14.5094C8.86337 14.5097 8.86383 14.51 8.86429 14.5103L9.5 14.9591V16.5C9.5 17.0523 9.94772 17.5 10.5 17.5H13.5C14.0523 17.5 14.5 17.0523 14.5 16.5ZM9.5 22C9.5 21.7239 9.72386 21.5 10 21.5H14C14.2761 21.5 14.5 21.7239 14.5 22C14.5 22.2761 14.2761 22.5 14 22.5H10C9.72386 22.5 9.5 22.2761 9.5 22ZM4.5 4C4.5 3.72386 4.72386 3.5 5 3.5C5.27614 3.5 5.5 3.72386 5.5 4C5.5 4.27614 5.27614 4.5 5 4.5C4.72386 4.5 4.5 4.27614 4.5 4ZM18.5 4C18.5 3.72386 18.7239 3.5 19 3.5C19.2761 3.5 19.5 3.72386 19.5 4C19.5 4.27614 19.2761 4.5 19 4.5C18.7239 4.5 18.5 4.27614 18.5 4ZM20.5 10C20.5 9.72386 20.7239 9.5 21 9.5C21.2761 9.5 21.5 9.72386 21.5 10C21.5 10.2761 21.2761 10.5 21 10.5C20.7239 10.5 20.5 10.2761 20.5 10ZM2.5 10C2.5 9.72386 2.72386 9.5 3 9.5C3.27614 9.5 3.5 9.72386 3.5 10C3.5 10.2761 3.27614 10.5 3 10.5C2.72386 10.5 2.5 10.2761 2.5 10Z"
    fill="#0D0D15"
    stroke="#0D0D15"
  />
</svg>
