<svg width="24" height="24" viewBox="0 0 24 24" fill="none" xmlns="http://www.w3.org/2000/svg">
  <path
    fill-rule="evenodd"
    clip-rule="evenodd"
    d="M5 9C5 5.14 8.14 2 12 2C15.86 2 19 5.14 19 9C19 11.38 17.81 13.47 16 14.74V15.5C16 16.8807 14.8807 18 13.5 18H10.5C9.11929 18 8 16.8807 8 15.5V14.74C6.19 13.47 5 11.38 5 9ZM14.85 13.1L14 13.7V15.5C14 15.7761 13.7761 16 13.5 16H10.5C10.2239 16 10 15.7761 10 15.5V13.7L9.15 13.1C7.8 12.16 7 10.63 7 9C7 6.24 9.24 4 12 4C14.76 4 17 6.24 17 9C17 10.63 16.2 12.16 14.85 13.1Z"
    fill="#0D0D15"
  />
  <path
    d="M10 20C9.44772 20 9 20.4477 9 21C9 21.5523 9.44772 22 10 22H14C14.5523 22 15 21.5523 15 21C15 20.4477 14.5523 20 14 20H10Z"
    fill="#0D0D15"
  />
</svg>
