<svg width="24" height="24" viewBox="0 0 24 24" fill="none" xmlns="http://www.w3.org/2000/svg">
  <path
    d="M9 13.5C9 14.3284 8.32843 15 7.5 15C6.67157 15 6 14.3284 6 13.5C6 12.6716 6.67157 12 7.5 12C8.32843 12 9 12.6716 9 13.5Z"
    fill="#0D0D15"
  />
  <path
    d="M16.5 15C17.3284 15 18 14.3284 18 13.5C18 12.6716 17.3284 12 16.5 12C15.6716 12 15 12.6716 15 13.5C15 14.3284 15.6716 15 16.5 15Z"
    fill="#0D0D15"
  />
  <path
    fill-rule="evenodd"
    clip-rule="evenodd"
    d="M3.65688 10.1264L3.68848 10H3C2.44772 10 2 9.55228 2 9C2 8.44772 2.44772 8 3 8H4C4.06294 8 4.12453 8.00582 4.18424 8.01694L4.87038 5.27239C5.20425 3.93689 6.4042 3 7.78081 3H16.2193C17.5959 3 18.7958 3.93689 19.1297 5.27239L19.8158 8.01693C19.8755 8.00581 19.9371 8 20 8H21C21.5523 8 22 8.44772 22 9C22 9.55228 21.5523 10 21 10H20.3116L20.3432 10.1265C20.7542 10.6399 21 11.2912 21 12V16C21 17.3062 20.1652 18.4175 19 18.8293V20C19 20.5523 18.5523 21 18 21C17.4477 21 17 20.5523 17 20V19H7V20C7 20.5523 6.55228 21 6 21C5.44772 21 5 20.5523 5 20V18.8293C3.83481 18.4175 3 17.3062 3 16V12C3 11.2912 3.24583 10.6398 3.65688 10.1264ZM18 9L17.1894 5.75746C17.0781 5.3123 16.6781 5 16.2193 5H7.78081C7.32194 5 6.92196 5.3123 6.81066 5.75746L6.00003 9H18ZM18 17C18.5523 17 19 16.5523 19 16V12C19 11.4477 18.5523 11 18 11H6C5.44772 11 5 11.4477 5 12V16C5 16.5523 5.44772 17 6 17H18Z"
    fill="#0D0D15"
  />
</svg>
