<svg width="24" height="24" viewBox="0 0 24 24" fill="none" xmlns="http://www.w3.org/2000/svg">
  <path
    d="M6 13C5.44772 13 5 13.4477 5 14C5 14.5523 5.44772 15 6 15H12C12.5523 15 13 14.5523 13 14C13 13.4477 12.5523 13 12 13H6Z"
    fill="#0D0D15"
  />
  <path
    fill-rule="evenodd"
    clip-rule="evenodd"
    d="M5 4H19C20.6569 4 22 5.34315 22 7V17C22 18.6569 20.6569 20 19 20H5C3.34315 20 2 18.6569 2 17V7C2 5.34314 3.34315 4 5 4ZM5 6C4.44772 6 4 6.44771 4 7V8H20V7C20 6.44772 19.5523 6 19 6H5ZM4 17V10H20V17C20 17.5523 19.5523 18 19 18H5C4.44772 18 4 17.5523 4 17Z"
    fill="#0D0D15"
  />
</svg>
