<svg width="24" height="24" viewBox="0 0 24 24" fill="none" xmlns="http://www.w3.org/2000/svg">
  <path
    fill-rule="evenodd"
    clip-rule="evenodd"
    d="M8.00341 5.80868C8.41438 5.81412 8.78017 6.07046 8.92554 6.4549L12.7873 16.6677C12.9827 17.1842 12.7222 17.7614 12.2057 17.9567C11.6891 18.152 11.1119 17.8916 10.9166 17.375L9.95315 14.8271H5.79325L4.74185 17.3997C4.53291 17.9109 3.94909 18.156 3.43786 17.947C2.92662 17.7381 2.68157 17.1543 2.89051 16.643L7.0645 6.43027C7.22 6.04981 7.59244 5.80324 8.00341 5.80868ZM7.95401 9.54029L9.19689 12.8271H6.61066L7.95401 9.54029Z"
    fill="black"
  />
  <path
    fill-rule="evenodd"
    clip-rule="evenodd"
    d="M15.9904 10.7013C15.9904 10.149 16.4381 9.70129 16.9904 9.70129H18.1838C18.7361 9.70129 19.1838 10.149 19.1838 10.7013L19.1838 12.3574H16.6293C15.0182 12.3574 13.7122 13.6635 13.7122 15.2745C13.7122 16.8856 15.0182 18.1916 16.6293 18.1916H19.1838C20.2884 18.1916 21.1838 17.2962 21.1838 16.1916L21.1838 10.7013C21.1838 9.04444 19.8407 7.70129 18.1838 7.70129H16.9904C15.3335 7.70129 13.9904 9.04443 13.9904 10.7013V10.7248C13.9904 11.2771 14.4381 11.7248 14.9904 11.7248C15.5427 11.7248 15.9904 11.2771 15.9904 10.7248V10.7013ZM16.6293 14.3574H19.1838V16.1916H16.6293C16.1228 16.1916 15.7122 15.781 15.7122 15.2745C15.7122 14.768 16.1228 14.3574 16.6293 14.3574Z"
    fill="black"
  />
</svg>
