<svg width="24" height="24" viewBox="0 0 24 24" fill="none" xmlns="http://www.w3.org/2000/svg">
  <path
    d="M8.21538 4.7001L6.46489 6.48477L12.8892 6.48416C13.4419 6.47891 13.8936 6.92203 13.899 7.4744C13.9043 8.02676 13.461 8.47867 12.9082 8.48404L6.36235 8.48563L8.26958 10.3567C8.6646 10.7438 8.67046 11.3764 8.28325 11.7708C7.89653 12.1651 7.26372 12.1714 6.86919 11.7845L3.29985 8.28299C2.90532 7.89591 2.89946 7.26309 3.28618 6.86881L6.78764 3.29947C6.95512 3.12906 7.16801 3.03153 7.38823 3.00662C7.6768 2.97318 7.97807 3.06644 8.20171 3.28592C8.59624 3.673 8.60258 4.3057 8.21538 4.7001Z"
    fill="#0D0D15"
  />
  <path
    d="M15.5826 13.4779L17.3331 15.2626L10.9082 15.262C10.356 15.2566 9.90434 15.6999 9.89897 16.2522C9.8936 16.8046 10.337 17.2565 10.8892 17.2619L17.4356 17.2635L15.5279 19.1344C15.1333 19.5215 15.1275 20.1542 15.5147 20.5486C15.9014 20.9429 16.5342 20.9492 16.9288 20.5622L20.4981 17.0608C20.8926 16.6737 20.8985 16.0409 20.5118 15.6466L17.0103 12.0773C16.8428 11.9069 16.6294 11.8094 16.4097 11.7845C16.1207 11.751 15.8199 11.8443 15.5957 12.0638C15.2012 12.4508 15.1954 13.0835 15.5826 13.4779Z"
    fill="#0D0D15"
  />
</svg>
