<svg width="24" height="24" viewBox="0 0 24 24" fill="none" xmlns="http://www.w3.org/2000/svg">
  <path
    fill-rule="evenodd"
    clip-rule="evenodd"
    d="M17.6164 8.11687C16.4475 6.24754 14.3695 5 12 5C9.03275 5 6.52597 6.94779 5.68321 9.64091C3.57669 10.1216 2 11.9905 2 14.25C2 16.8723 4.12772 19 6.75 19H16.5C19.5348 19 22 16.5348 22 13.5C22 10.8485 20.1212 8.63097 17.6164 8.11687ZM12 7C13.7796 7 15.3282 8.00901 16.1006 9.49193L16.3484 9.96769L16.8818 10.0244C18.635 10.2108 20 11.6981 20 13.5C20 15.4302 18.4302 17 16.5 17H6.75C5.23228 17 4 15.7677 4 14.25C4 12.8056 5.1206 11.627 6.55657 11.5276L7.32053 11.4747L7.46862 10.7234C7.88808 8.59524 9.7572 7 12 7Z"
    fill="#0D0D15"
  />
</svg>
