<svg width="24" height="24" viewBox="0 0 24 24" fill="none" xmlns="http://www.w3.org/2000/svg">
  <path
    d="M17.6164 8.11687C16.4475 6.24754 14.3695 5 12 5C9.03275 5 6.52597 6.94779 5.68321 9.64091C3.57669 10.1216 2 11.9905 2 14.25C2 16.8723 4.12772 19 6.75 19H7C7 18.2889 7.14845 17.6125 7.41604 17H6.75C5.23228 17 4 15.7677 4 14.25C4 12.8056 5.1206 11.627 6.55657 11.5276L7.32053 11.4747L7.46862 10.7234C7.88808 8.59524 9.7572 7 12 7C13.7796 7 15.3282 8.00901 16.1006 9.49193L16.3484 9.96769L16.8818 10.0244C18.635 10.2108 20 11.6981 20 13.5C20 15.4023 18.4753 16.9545 16.5835 16.999C16.8486 17.6053 16.9969 18.2743 16.9999 18.9775C19.801 18.7245 22 16.3663 22 13.5C22 10.8485 20.1212 8.63097 17.6164 8.11687Z"
    fill="#0D0D15"
  />
  <path
    d="M14.2426 17.8284C14.6332 18.219 14.6332 18.8521 14.2426 19.2426C13.8521 19.6332 13.219 19.6332 12.8284 19.2426L11.7679 18.1821L10.7073 19.2426C10.3168 19.6332 9.68361 19.6332 9.29308 19.2426C8.90256 18.8521 8.90256 18.219 9.29308 17.8284L10.3536 16.7679L9.29289 15.7071C8.90237 15.3166 8.90237 14.6834 9.29289 14.2929C9.68342 13.9024 10.3166 13.9024 10.7071 14.2929L11.7679 15.3536L12.8286 14.2929C13.2191 13.9024 13.8523 13.9024 14.2428 14.2929C14.6334 14.6834 14.6334 15.3166 14.2428 15.7071L13.1821 16.7679L14.2426 17.8284Z"
    fill="#0D0D15"
  />
</svg>
