<svg width="24" height="24" viewBox="0 0 24 24" fill="none" xmlns="http://www.w3.org/2000/svg">
  <path
    d="M14.0119 4.03416C13.4766 3.89826 12.9325 4.22204 12.7966 4.75734L9.25001 18.7271C9.1141 19.2624 9.43788 19.8066 9.97319 19.9425C10.5085 20.0784 11.0526 19.7546 11.1885 19.2193L14.7351 5.24948C14.871 4.71418 14.5472 4.17006 14.0119 4.03416Z"
    fill="#0D0D15"
  />
  <path
    d="M4.4174 12.077L7.78728 8.70711C8.1778 8.31659 8.1778 7.68342 7.78728 7.2929C7.39675 6.90237 6.76359 6.90237 6.37306 7.2929C5.69372 7.97224 5.01351 8.65086 4.33332 9.32945L4.33149 9.33128C3.65164 10.0095 2.97181 10.6878 2.29289 11.3667C1.90237 11.7572 1.90237 12.3904 2.29289 12.7809L6.35369 16.8417C6.74421 17.2322 7.37738 17.2322 7.7679 16.8417C8.15843 16.4512 8.15843 15.818 7.7679 15.4275L4.4174 12.077Z"
    fill="#0D0D15"
  />
  <path
    d="M19.6627 12.077L16.2929 8.70711C15.9023 8.31659 15.9023 7.68342 16.2929 7.2929C16.6834 6.90237 17.3166 6.90237 17.7071 7.2929C18.3857 7.97148 19.0651 8.64934 19.7445 9.32718L19.7488 9.33143C20.4286 10.0096 21.1084 10.6878 21.7872 11.3667C22.1778 11.7572 22.1778 12.3904 21.7872 12.7809L17.7265 16.8417C17.3359 17.2322 16.7028 17.2322 16.3122 16.8417C15.9217 16.4512 15.9217 15.818 16.3122 15.4275L19.6627 12.077Z"
    fill="#0D0D15"
  />
</svg>
