<svg width="24" height="24" viewBox="0 0 24 24" fill="none" xmlns="http://www.w3.org/2000/svg">
  <path
    d="M4.4174 12.077L7.78728 8.70711C8.1778 8.31658 8.1778 7.68342 7.78728 7.29289C7.39675 6.90237 6.76359 6.90237 6.37306 7.29289C5.69372 7.97223 5.01351 8.65085 4.33332 9.32945L4.33149 9.33127C3.65186 10.0093 2.97158 10.688 2.29289 11.3667C1.90237 11.7572 1.90237 12.3904 2.29289 12.7809L6.35369 16.8417C6.74421 17.2322 7.37738 17.2322 7.7679 16.8417C8.15843 16.4512 8.15843 15.818 7.7679 15.4275L4.4174 12.077Z"
    fill="#0D0D15"
  />
  <path
    d="M19.6627 12.077L16.2929 8.70711C15.9023 8.31658 15.9023 7.68342 16.2929 7.29289C16.6834 6.90237 17.3166 6.90237 17.7071 7.29289C18.3857 7.97147 19.0651 8.64933 19.7445 9.32717L19.7488 9.33142C20.4285 10.0095 21.1085 10.6879 21.7872 11.3667C22.1778 11.7572 22.1778 12.3904 21.7872 12.7809L17.7265 16.8417C17.3359 17.2322 16.7028 17.2322 16.3122 16.8417C15.9217 16.4512 15.9217 15.818 16.3122 15.4275L19.6627 12.077Z"
    fill="#0D0D15"
  />
  <path
    d="M11 8C11 7.44772 11.4477 7 12 7C12.5523 7 13 7.44772 13 8V13C13 13.5523 12.5523 14 12 14C11.4477 14 11 13.5523 11 13V8Z"
    fill="#0D0D15"
  />
  <path
    d="M12 17C12.5523 17 13 16.5523 13 16C13 15.4477 12.5523 15 12 15C11.4477 15 11 15.4477 11 16C11 16.5523 11.4477 17 12 17Z"
    fill="#0D0D15"
  />
</svg>
