<svg width="24" height="24" viewBox="0 0 24 24" fill="none" xmlns="http://www.w3.org/2000/svg">
  <path
    d="M4.08357 3.31194C3.69305 3.70246 3.69305 4.33562 4.08357 4.72615L5.23467 5.87725C4.1275 6.54403 3.12587 7.36908 2.26113 8.32066C1.89608 8.72245 1.91763 9.3442 2.30159 9.72801L2.35584 9.78196C2.77469 10.2008 3.4499 10.1678 3.84922 9.73034C4.69039 8.80919 5.68526 8.03052 6.79282 7.43539L8.1499 8.79247C6.79867 9.37546 5.60442 10.2555 4.64924 11.3496C4.30031 11.7494 4.33472 12.3566 4.70985 12.7319L4.77092 12.7929C5.18668 13.2087 5.86871 13.1907 6.25514 12.7478C7.1888 11.6779 8.41438 10.8693 9.80709 10.4497L11.3873 12.0299C9.67139 12.1981 8.15922 13.0653 7.13417 14.341C6.80461 14.751 6.83143 15.3428 7.20346 15.7148L7.25725 15.7686C7.69701 16.2084 8.40634 16.1431 8.79773 15.6598C9.55357 14.726 10.7078 14.128 11.9999 14.128C12.7298 14.128 13.4156 14.3188 14.0105 14.6531L17.8971 18.5397C18.2876 18.9302 18.9208 18.9302 19.3113 18.5397C19.7018 18.1491 19.7018 17.516 19.3113 17.1255L5.49779 3.31194C5.10726 2.92141 4.4741 2.92141 4.08357 3.31194Z"
    fill="#0D0D15"
  />
  <path
    d="M11.1596 6.15958L9.28245 4.28239C10.1595 4.09735 11.0686 4 12.0001 4C15.8568 4 19.3292 5.66906 21.739 8.32066C22.1041 8.72261 22.0822 9.34437 21.6982 9.72849L21.6443 9.78243C21.2256 10.2013 20.5502 10.1681 20.1509 9.73081C18.1311 7.51818 15.2247 6.12789 12.0001 6.12789C11.7173 6.12789 11.4371 6.13858 11.1596 6.15958Z"
    fill="#0D0D15"
  />
  <path
    d="M17.0289 12.0288L13.0569 8.05687C15.5589 8.3277 17.7791 9.54872 19.3508 11.3496C19.6997 11.7494 19.6653 12.3567 19.2902 12.7319L19.2291 12.7929C18.8529 13.1692 18.2587 13.1902 17.8626 12.8625L17.7237 12.7236C17.5071 12.4775 17.2749 12.2454 17.0289 12.0288Z"
    fill="#0D0D15"
  />
  <path
    d="M12 20C13.1046 20 14 19.1046 14 18C14 16.8954 13.1046 16 12 16C10.8954 16 10 16.8954 10 18C10 19.1046 10.8954 20 12 20Z"
    fill="#0D0D15"
  />
</svg>
