<svg width="24" height="24" viewBox="0 0 24 24" fill="none" xmlns="http://www.w3.org/2000/svg">
  <path
    fill-rule="evenodd"
    clip-rule="evenodd"
    d="M22 12C22 14.3159 21.2127 16.448 19.8912 18.1431L18.4633 16.7153C19.244 15.647 19.7663 14.3779 19.9381 13H16.9788C16.9487 13.7034 16.8871 14.3896 16.7959 15.0479L14.9655 13.2174C14.9696 13.1453 14.9734 13.0728 14.9768 13H14.748L12.748 11H14.9768C14.7923 7.05369 13.5299 4 12 4C10.9339 4 9.99766 5.48296 9.46558 7.71753L7.84551 6.09746C7.89686 5.94156 7.95037 5.78929 8.00602 5.6409C8.1005 5.38897 8.20447 5.13913 8.31895 4.89532C7.95716 5.08316 7.61154 5.29781 7.2847 5.53666L5.85686 4.10881C7.55201 2.78728 9.68406 2 12 2C17.5228 2 22 6.47715 22 12ZM19.9381 11H16.9788C16.893 8.99068 16.5496 7.12254 15.994 5.6409C15.8995 5.38897 15.7955 5.13913 15.681 4.89532C17.9659 6.08156 19.6061 8.33764 19.9381 11Z"
    fill="#0D0D15"
  />
  <path
    fill-rule="evenodd"
    clip-rule="evenodd"
    d="M18.5073 19.5933L18.5103 19.5907L17.091 18.1714L17.0879 18.1739L16.31 17.396L16.3113 17.3917L14.6538 15.7342L14.6529 15.7388L11.9141 13H11.9196L9.91962 11H9.91406L9.07927 10.1652L9.07972 10.1601L7.29313 8.37351L7.29232 8.37826L5.82614 6.91207L5.82865 6.90903L4.40928 5.48966L4.40671 5.49265L3.12117 4.20711C2.73065 3.81658 2.09748 3.81658 1.70696 4.20711C1.31643 4.59763 1.31643 5.2308 1.70696 5.62132L3.24666 7.16102C2.45228 8.59493 2 10.2446 2 12C2 17.5228 6.47715 22 12 22C13.7554 22 15.4051 21.5477 16.839 20.7533L17.9653 21.8797C18.3558 22.2702 18.989 22.2702 19.3795 21.8797C19.77 21.4891 19.77 20.856 19.3795 20.4655L18.5073 19.5933ZM14.0143 17.9286C13.4818 19.2158 12.7753 20 12 20C10.4701 20 9.20775 16.9463 9.02321 13H9.08564L14.0143 17.9286ZM7.02395 10.9383L4.73388 8.64824C4.39611 9.37925 4.16541 10.1699 4.06189 11H7.02123C7.02211 10.9794 7.02302 10.9589 7.02395 10.9383ZM4.06189 13H7.02123C7.10703 15.0093 7.45041 16.8775 8.00602 18.3591C8.1005 18.611 8.20447 18.8609 8.31895 19.1047C6.0341 17.9184 4.39389 15.6624 4.06189 13Z"
    fill="#0D0D15"
  />
</svg>
