<svg width="24" height="24" viewBox="0 0 24 24" fill="none" xmlns="http://www.w3.org/2000/svg">
  <path
    fill-rule="evenodd"
    clip-rule="evenodd"
    d="M9 2C8.44771 2 8 2.44772 8 3V5H7C5.34315 5 4 6.34315 4 8V12C4 15.3137 6.68629 18 10 18H11V21C11 21.5523 11.4477 22 12 22C12.5523 22 13 21.5523 13 21V18H14C17.3137 18 20 15.3137 20 12V8C20 6.34315 18.6569 5 17 5H16V3C16 2.44772 15.5523 2 15 2C14.4477 2 14 2.44772 14 3V5H10V3C10 2.44772 9.55229 2 9 2ZM17 7C17.5523 7 18 7.44772 18 8V12C18 14.2091 16.2091 16 14 16H10C7.79086 16 6 14.2091 6 12V8C6 7.44772 6.44772 7 7 7H17Z"
    fill="#0D0D15"
  />
</svg>
