<svg width="24" height="24" viewBox="0 0 24 24" fill="none" xmlns="http://www.w3.org/2000/svg">
  <path
    d="M21.739 8.32066C19.3292 5.66906 15.8568 4 12.0001 4C8.14311 4 4.67067 5.66914 2.26113 8.32066C1.89608 8.72245 1.91763 9.3442 2.30159 9.72801L2.35584 9.78196C2.77469 10.2008 3.4499 10.1678 3.84922 9.73034C5.86916 7.51834 8.77544 6.12789 12.0001 6.12789C15.2247 6.12789 18.1311 7.51818 20.1509 9.73081C20.5502 10.1681 21.2256 10.2013 21.6443 9.78243L21.6982 9.72849C22.0822 9.34437 22.1041 8.72261 21.739 8.32066Z"
    fill="#0D0D15"
  />
  <path
    d="M11.9999 12C10.0334 12 8.27962 12.9155 7.13417 14.341C6.80461 14.751 6.83143 15.3428 7.20346 15.7148L7.25725 15.7686C7.69701 16.2084 8.40634 16.1431 8.79773 15.6598C9.55357 14.726 10.7078 14.128 11.9999 14.128C13.2921 14.128 14.4465 14.7261 15.2021 15.6598C15.5935 16.1431 16.3029 16.2082 16.7426 15.7686L16.7964 15.7148C17.1684 15.3428 17.1953 14.751 16.8657 14.341C15.7204 12.9157 13.9666 12 11.9999 12Z"
    fill="#0D0D15"
  />
  <path
    d="M12.0001 8C9.07022 8 6.43973 9.2987 4.64924 11.3496C4.30031 11.7494 4.33472 12.3566 4.70985 12.7319L4.77092 12.7929C5.18668 13.2087 5.86871 13.1907 6.25514 12.7478C7.65443 11.1442 9.7094 10.1278 12 10.1278C14.2906 10.1278 16.3453 11.1442 17.7449 12.7478C18.1315 13.1907 18.8134 13.2087 19.2291 12.7929L19.2902 12.7319C19.6653 12.3567 19.6997 11.7494 19.3508 11.3496C17.561 9.29882 14.9303 8 12.0001 8Z"
    fill="#0D0D15"
  />
  <path
    d="M12 20C13.1046 20 14 19.1046 14 18C14 16.8954 13.1046 16 12 16C10.8954 16 10 16.8954 10 18C10 19.1046 10.8954 20 12 20Z"
    fill="#0D0D15"
  />
</svg>
