<svg width="24" height="24" viewBox="0 0 24 24" fill="none" xmlns="http://www.w3.org/2000/svg">
  <path
    fill-rule="evenodd"
    clip-rule="evenodd"
    d="M7 3C4.79086 3 3 4.79086 3 7V14C3 15.8638 4.27477 17.4299 6 17.874V18C6 19.6569 7.34315 21 9 21H15C16.6569 21 18 19.6569 18 18V17.874C19.7252 17.4299 21 15.8638 21 14V7C21 4.79086 19.2091 3 17 3H7ZM16 16V18C16 18.5523 15.5523 19 15 19H9C8.44772 19 8 18.5523 8 18V16H7C5.89543 16 5 15.1046 5 14V7C5 5.89543 5.89543 5 7 5V8C7 8.55229 7.44772 9 8 9C8.55229 9 9 8.55229 9 8V5H11V8C11 8.55229 11.4477 9 12 9C12.5523 9 13 8.55229 13 8V5H15V8C15 8.55229 15.4477 9 16 9C16.5523 9 17 8.55229 17 8V5C18.1046 5 19 5.89543 19 7V14C19 15.1046 18.1046 16 17 16H16Z"
    fill="#0D0D15"
  />
</svg>
