<svg width="24" height="24" viewBox="0 0 24 24" fill="none" xmlns="http://www.w3.org/2000/svg">
  <path
    d="M14.6823 14.1497C15.1056 14.5729 15.1056 15.2592 14.6823 15.6825C14.2591 16.1058 13.5728 16.1058 13.1495 15.6825L12 14.533L10.8505 15.6825C10.4272 16.1058 9.74094 16.1058 9.31767 15.6825C8.89439 15.2592 8.89439 14.5729 9.31767 14.1497L10.4672 13.0001L9.31746 11.8503C8.89418 11.4271 8.89418 10.7408 9.31746 10.3175C9.74074 9.89418 10.427 9.89418 10.8503 10.3175L12 11.4672L13.1497 10.3175C13.573 9.89418 14.2593 9.89418 14.6825 10.3175C15.1058 10.7408 15.1058 11.4271 14.6825 11.8503L13.5328 13.0001L14.6823 14.1497Z"
    fill="#0D0D15"
  />
  <path
    fill-rule="evenodd"
    clip-rule="evenodd"
    d="M3 7C3 4.79086 4.79086 3 7 3H17C19.2091 3 21 4.79086 21 7V14C21 15.8638 19.7252 17.4299 18 17.874V18C18 19.6569 16.6569 21 15 21H9C7.34315 21 6 19.6569 6 18V17.874C4.27477 17.4299 3 15.8638 3 14V7ZM16 18V16H17C18.1046 16 19 15.1046 19 14V7C19 5.89543 18.1046 5 17 5V8C17 8.55229 16.5523 9 16 9C15.4477 9 15 8.55229 15 8V5H13V8C13 8.55229 12.5523 9 12 9C11.4477 9 11 8.55229 11 8V5H9V8C9 8.55229 8.55229 9 8 9C7.44772 9 7 8.55229 7 8V5C5.89543 5 5 5.89543 5 7V14C5 15.1046 5.89543 16 7 16H8V18C8 18.5523 8.44772 19 9 19H15C15.5523 19 16 18.5523 16 18Z"
    fill="#0D0D15"
  />
</svg>
