<svg width="24" height="24" viewBox="0 0 24 24" fill="none" xmlns="http://www.w3.org/2000/svg">
  <path
    d="M14.9497 10.7071C15.3403 10.3166 15.3403 9.68342 14.9497 9.29289C14.5592 8.90237 13.9261 8.90237 13.5355 9.29289L12.1213 10.7071L10.7071 9.29289C10.3166 8.90237 9.68344 8.90237 9.29292 9.29289C8.90239 9.68342 8.90239 10.3166 9.29292 10.7071L10.7071 12.1213L9.29289 13.5355C8.90237 13.9261 8.90237 14.5592 9.29289 14.9497C9.68342 15.3403 10.3166 15.3403 10.7071 14.9497L12.1213 13.5355L13.5356 14.9497C13.9261 15.3403 14.5592 15.3403 14.9498 14.9497C15.3403 14.5592 15.3403 13.9261 14.9498 13.5355L13.5355 12.1213L14.9497 10.7071Z"
    fill="#0D0D15"
  />
  <path
    fill-rule="evenodd"
    clip-rule="evenodd"
    d="M12 22C17.5228 22 22 17.5228 22 12C22 6.47715 17.5228 2 12 2C6.47715 2 2 6.47715 2 12C2 17.5228 6.47715 22 12 22ZM20 12C20 16.4183 16.4183 20 12 20C7.58172 20 4 16.4183 4 12C4 7.58172 7.58172 4 12 4C16.4183 4 20 7.58172 20 12Z"
    fill="#0D0D15"
  />
</svg>
