<svg width="24" height="24" viewBox="0 0 24 24" fill="none" xmlns="http://www.w3.org/2000/svg">
  <path
    fill-rule="evenodd"
    clip-rule="evenodd"
    d="M6 3H18C19.3062 3 20.4175 3.83481 20.8293 5H21.5C22.8807 5 24 6.11929 24 7.5V10.5C24 11.8807 22.8807 13 21.5 13H20.135C18.8775 15.3789 16.378 17 13.5 17H10.5C6.35786 17 3 13.6421 3 9.5V6C3 4.34315 4.34315 3 6 3ZM21 7H21.5C21.7761 7 22 7.22386 22 7.5V10.5C22 10.7761 21.7761 11 21.5 11H21V7ZM18 5C18.5523 5 19 5.44772 19 6V9.5C19 12.5376 16.5376 15 13.5 15H10.5C7.46243 15 5 12.5376 5 9.5V6C5 5.44772 5.44772 5 6 5H18Z"
    fill="#0D0D15"
  />
  <path
    d="M4 19C3.44772 19 3 19.4477 3 20C3 20.5523 3.44772 21 4 21H20C20.5523 21 21 20.5523 21 20C21 19.4477 20.5523 19 20 19H4Z"
    fill="#0D0D15"
  />
</svg>
