<svg width="24" height="24" viewBox="0 0 24 24" fill="none" xmlns="http://www.w3.org/2000/svg">
  <path
    fill-rule="evenodd"
    clip-rule="evenodd"
    d="M14.7207 9H14.9399C16.3165 9 17.5165 9.93689 17.8504 11.2724L19.3504 17.2724C19.8237 19.1658 18.3916 21 16.4399 21H7.00148C5.04976 21 3.61769 19.1658 4.09105 17.2724L5.59105 11.2724C5.92493 9.93689 7.12488 9 8.50148 9H8.7207V4C8.7207 2.34315 10.0638 1 11.7207 1C13.3776 1 14.7207 2.34315 14.7207 4V9ZM14.9399 11H8.50148C8.04261 11 7.64263 11.3123 7.53134 11.7575L7.2207 13H16.2207L15.9101 11.7575C15.7988 11.3123 15.3988 11 14.9399 11ZM6.03134 17.7575L6.7207 15H16.7207L17.4101 17.7575C17.5679 18.3886 17.0905 19 16.4399 19H10V18C10 17.4477 9.55229 17 9 17C8.44771 17 8 17.4477 8 18V19H7.00148C6.35091 19 5.87355 18.3886 6.03134 17.7575ZM12.7207 9V4C12.7207 3.44772 12.273 3 11.7207 3C11.1684 3 10.7207 3.44772 10.7207 4V9H12.7207Z"
    fill="#0D0D15"
  />
</svg>
