<svg width="24" height="24" viewBox="0 0 24 24" fill="none" xmlns="http://www.w3.org/2000/svg">
  <path
    fill-rule="evenodd"
    clip-rule="evenodd"
    d="M6 17H8.99999V19H7.99999C7.44771 19 6.99999 19.4477 6.99999 20C6.99999 20.5523 7.44771 21 7.99999 21H16C16.5523 21 17 20.5523 17 20C17 19.4477 16.5523 19 16 19H15V17H18C19.6569 17 21 15.6569 21 14V6C21 4.34315 19.6569 3 18 3H6C4.34315 3 3 4.34315 3 6V14C3 15.6569 4.34315 17 6 17ZM18 5H6C5.44772 5 5 5.44772 5 6V14C5 14.5523 5.44772 15 6 15H18C18.5523 15 19 14.5523 19 14V6C19 5.44771 18.5523 5 18 5ZM13 19V17H11V19H13Z"
    fill="#0D0D15"
  />
</svg>
