<svg width="24" height="24" viewBox="0 0 24 24" fill="none" xmlns="http://www.w3.org/2000/svg">
  <path
    fill-rule="evenodd"
    clip-rule="evenodd"
    d="M6.65109 3.46919C6.85693 3.17513 7.1933 3 7.55225 3H16.4481C16.8071 3 17.1434 3.17513 17.3493 3.46919L20.7093 8.26919C20.7284 8.29653 20.7461 8.32425 20.7624 8.35229C21.0549 8.69592 21.086 9.20711 20.8089 9.58817L12.8203 20.5725C12.7928 20.6119 12.7621 20.6497 12.7285 20.6854C12.6352 20.7848 12.5249 20.8615 12.4056 20.9143C12.2757 20.9721 12.1375 21.0002 12.0001 21.0001C11.8628 21.0002 11.7246 20.9721 11.5947 20.9143C11.4753 20.8616 11.3651 20.7848 11.2718 20.6854C11.2381 20.6497 11.2075 20.6119 11.1799 20.5725L3.19133 9.58817C2.91408 9.20695 2.9454 8.6955 3.23824 8.35187C3.25445 8.32397 3.27205 8.29639 3.29109 8.26919L6.65109 3.46919ZM12.0001 18.2999L18.0364 10H5.96384L12.0001 18.2999ZM8.02084 5L5.92084 8H18.0795L15.9795 5H8.02084Z"
    fill="#0D0D15"
  />
</svg>
