<svg width="24" height="24" viewBox="0 0 24 24" fill="none" xmlns="http://www.w3.org/2000/svg">
  <path
    d="M12.0001 3C11.4478 3 11.0001 3.44772 11.0001 4V13.5858L8.70721 11.2929C8.31669 10.9024 7.68352 10.9024 7.293 11.2929C6.90247 11.6834 6.90247 12.3166 7.293 12.7071L11.293 16.7071C11.6835 17.0976 12.3167 17.0976 12.7072 16.7071L16.7072 12.7071C17.0977 12.3166 17.0977 11.6834 16.7072 11.2929C16.3167 10.9024 15.6835 10.9024 15.293 11.2929L13.0001 13.5858V4C13.0001 3.44772 12.5524 3 12.0001 3Z"
    fill="#0D0D15"
  />
  <path
    d="M5 5C3.34314 5 2 6.34315 2 8V17.9999C2 19.6502 3.33267 20.9894 4.9806 20.9998L5 20.9999H19C20.6569 20.9999 22 19.6567 22 17.9999V8C22 6.34315 20.6569 5 19 5H17C16.4477 5 16 5.44771 16 6C16 6.55228 16.4477 7 17 7H19C19.5523 7 20 7.44772 20 8V17.9999C20 18.5521 19.5523 18.9999 19 18.9999H5C4.44772 18.9999 4 18.5521 4 17.9999V8C4 7.44772 4.44772 7 5 7H7C7.55228 7 8 6.55228 8 6C8 5.44771 7.55229 5 7 5H5Z"
    fill="#0D0D15"
  />
</svg>
