<svg width="24" height="24" viewBox="0 0 24 24" fill="none" xmlns="http://www.w3.org/2000/svg">
  <path
    d="M7.7 9.3C8.09 8.91 8.71 8.91 9.1 9.3L11 11.2V4C11 3.45 11.45 3 12 3C12.55 3 13 3.45 13 4V11.2L14.9 9.3C15.29 8.91 15.91 8.91 16.3 9.3C16.69 9.69 16.69 10.31 16.3 10.7L12.71 14.29C12.32 14.68 11.69 14.68 11.3 14.29L7.7 10.7C7.31 10.31 7.31 9.69 7.7 9.3ZM19 19V16C19 15.45 19.45 15 20 15C20.55 15 21 15.45 21 16V19C21 20.1 20.1 21 19 21H5C3.9 21 3 20.1 3 19L3 16C3 15.45 3.45 15 4 15C4.55 15 5 15.45 5 16V19H19Z"
    fill="#0D0D15"
  />
</svg>
