<svg width="24" height="24" viewBox="0 0 24 24" fill="none" xmlns="http://www.w3.org/2000/svg">
  <path
    d="M12 5C14.3695 5 16.4475 6.24754 17.6164 8.11687C20.1212 8.63097 22 10.8485 22 13.5C22 16.0566 20.2505 18.209 17.8848 18.8238C17.7503 18.1471 17.502 17.5114 17.1606 16.9375C18.776 16.6278 20 15.2044 20 13.5C20 11.6981 18.635 10.2108 16.8818 10.0244L16.3484 9.96769L16.1006 9.49193C15.3282 8.00901 13.7796 7 12 7C9.7572 7 7.88808 8.59524 7.46862 10.7234L7.32053 11.4747L6.55657 11.5276C5.1206 11.627 4 12.8056 4 14.25C4 15.7677 5.23228 17 6.75 17H6.80269C6.45876 17.5946 6.21392 18.2536 6.09076 18.9546C3.78021 18.6334 2 16.6486 2 14.25C2 11.9905 3.57669 10.1216 5.68321 9.64091C6.52597 6.94779 9.03275 5 12 5Z"
    fill="#0D0D15"
  />
  <path
    d="M13 19.5858L14.2929 18.2929C14.6834 17.9024 15.3166 17.9024 15.7071 18.2929C16.0976 18.6834 16.0976 19.3166 15.7071 19.7071L12.7071 22.7071C12.3166 23.0976 11.6834 23.0976 11.2929 22.7071L8.29289 19.7071C7.90237 19.3166 7.90237 18.6834 8.29289 18.2929C8.68342 17.9024 9.31658 17.9024 9.70711 18.2929L11 19.5858V14C11 13.4477 11.4477 13 12 13C12.5523 13 13 13.4477 13 14V19.5858Z"
    fill="#0D0D15"
  />
</svg>
