<svg width="24" height="24" viewBox="0 0 24 24" fill="none" xmlns="http://www.w3.org/2000/svg">
  <path
    fill-rule="evenodd"
    clip-rule="evenodd"
    d="M3.9173 14.9282C3.65152 15.194 3.47035 15.5325 3.39664 15.9011L2.52922 20.2382C2.38268 20.9709 3.02868 21.6169 3.76139 21.4704L8.09848 20.603C8.46706 20.5292 8.80557 20.3481 9.07135 20.0823L21.0457 8.10793C21.7892 7.36442 21.7892 6.15894 21.0457 5.41542L18.5842 2.95388C17.8407 2.21036 16.6352 2.21036 15.8917 2.95388L3.9173 14.9282ZM16.2043 5.33376L17.2379 4.30014L19.6994 6.76167L18.6658 7.79529L16.2043 5.33376ZM14.858 6.68002L5.26356 16.2745L4.64818 19.3514L7.72509 18.736L17.3196 9.14155L14.858 6.68002Z"
    fill="#0D0D15"
  />
</svg>
