<svg width="24" height="24" viewBox="0 0 24 24" fill="none" xmlns="http://www.w3.org/2000/svg">
  <path
    fill-rule="evenodd"
    clip-rule="evenodd"
    d="M17 8V7C17 4.23858 14.7614 2 12 2C9.23858 2 7 4.23858 7 7V8C5.34315 8 4 9.34315 4 11V19C4 20.6569 5.34314 22 7 22H17C18.6569 22 20 20.6569 20 19V11C20 9.34315 18.6569 8 17 8ZM9 7V8H15V7C15 5.34315 13.6569 4 12 4C10.3431 4 9 5.34315 9 7ZM7 10C6.44772 10 6 10.4477 6 11V19C6 19.5523 6.44771 20 7 20H17C17.5523 20 18 19.5523 18 19V11C18 10.4477 17.5523 10 17 10H7Z"
    fill="#0D0D15"
  />
</svg>
