<svg width="24" height="24" viewBox="0 0 24 24" fill="none" xmlns="http://www.w3.org/2000/svg">
  <path
    d="M6 3C4.34314 3 3 4.34315 3 6V6.5C3 7.05228 3.44772 7.5 4 7.5C4.55228 7.5 5 7.05228 5 6.5V6C5 5.44772 5.44772 5 6 5H6.5C7.05228 5 7.5 4.55228 7.5 4C7.5 3.44772 7.05228 3 6.5 3H6Z"
    fill="#0D0D15"
  />
  <path
    d="M18 3C19.6569 3 21 4.34314 21 6V6.5C21 7.05228 20.5523 7.5 20 7.5C19.4477 7.5 19 7.05228 19 6.5V6C19 5.44772 18.5523 5 18 5H17.5C16.9477 5 16.5 4.55228 16.5 4C16.5 3.44772 16.9477 3 17.5 3H18Z"
    fill="#0D0D15"
  />
  <path
    d="M18 19C18.5523 19 19 18.5523 19 18V17.5C19 16.9477 19.4477 16.5 20 16.5C20.5523 16.5 21 16.9477 21 17.5V18C21 19.6569 19.6569 21 18 21H17.5C16.9477 21 16.5 20.5523 16.5 20C16.5 19.4477 16.9477 19 17.5 19H18Z"
    fill="#0D0D15"
  />
  <path
    d="M5 18C5 18.5523 5.44772 19 6 19H6.5C7.05228 19 7.5 19.4477 7.5 20C7.5 20.5523 7.05228 21 6.5 21H6C4.34315 21 3 19.6569 3 18V17.5C3 16.9477 3.44772 16.5 4 16.5C4.55228 16.5 5 16.9477 5 17.5V18Z"
    fill="#0D0D15"
  />
  <path
    d="M12.5 8C11.9477 8 11.5 8.44772 11.5 9V12H11C10.4477 12 10 12.4477 10 13C10 13.5523 10.4477 14 11 14H12C12.8284 14 13.5 13.3284 13.5 12.5V9C13.5 8.44772 13.0523 8 12.5 8Z"
    fill="#0D0D15"
  />
  <path
    d="M9.5 9C9.5 8.44772 9.05228 8 8.5 8C7.94772 8 7.5 8.44772 7.5 9V10C7.5 10.5523 7.94772 11 8.5 11C9.05228 11 9.5 10.5523 9.5 10V9Z"
    fill="#0D0D15"
  />
  <path
    d="M16 8C16.5523 8 17 8.44772 17 9V10C17 10.5523 16.5523 11 16 11C15.4477 11 15 10.5523 15 10V9C15 8.44772 15.4477 8 16 8Z"
    fill="#0D0D15"
  />
  <path
    d="M9.60586 15.2044C9.16646 14.8699 8.53902 14.9548 8.20444 15.3942C7.86986 15.8336 7.95484 16.4611 8.39424 16.7957C9.38759 17.552 10.6429 18.0001 12.0001 18.0001C13.3572 18.0001 14.6125 17.552 15.6059 16.7957C16.0453 16.4611 16.1302 15.8336 15.7957 15.3942C15.4611 14.9548 14.8336 14.8699 14.3942 15.2044C13.7441 15.6995 12.9132 16.0001 12.0001 16.0001C11.087 16.0001 10.256 15.6995 9.60586 15.2044Z"
    fill="#0D0D15"
  />
</svg>
