<svg width="24" height="24" viewBox="0 0 24 24" fill="none" xmlns="http://www.w3.org/2000/svg">
  <path
    d="M7.5 12C7.22386 12 7 12.2239 7 12.5V15.5C7 15.7761 7.22386 16 7.5 16H8.5C8.77614 16 9 15.7761 9 15.5V12.5C9 12.2239 8.77614 12 8.5 12H7.5Z"
    fill="#0D0D15"
  />
  <path
    d="M11.5 12C11.2239 12 11 12.2239 11 12.5V15.5C11 15.7761 11.2239 16 11.5 16H12.5C12.7761 16 13 15.7761 13 15.5V12.5C13 12.2239 12.7761 12 12.5 12H11.5Z"
    fill="#0D0D15"
  />
  <path
    d="M15 12.5C15 12.2239 15.2239 12 15.5 12H16.5C16.7761 12 17 12.2239 17 12.5V15.5C17 15.7761 16.7761 16 16.5 16H15.5C15.2239 16 15 15.7761 15 15.5V12.5Z"
    fill="#0D0D15"
  />
  <path
    fill-rule="evenodd"
    clip-rule="evenodd"
    d="M18.5311 0C17.5224 0 16.6716 0.751072 16.5465 1.75193L15.7965 7.75193C15.7861 7.83541 15.7809 7.9182 15.7808 8H14V5.54029C14 4.28253 12.5451 3.58327 11.563 4.36899L10.1532 5.4968C10.1277 5.51425 10.1028 5.53303 10.0785 5.55316L9.96417 5.64802L9 6.41935V5.54029C9 4.28253 7.5451 3.58327 6.56296 4.36899L2.56296 7.56899C2.20713 7.85365 2 8.28462 2 8.74029V17C2 18.6569 3.34315 20 5 20H19C20.6569 20 22 18.6569 22 17L22 8.25376C22.0206 8.09114 22.0214 7.92297 22 7.75193L21.25 1.75193C21.1249 0.751073 20.2741 0 19.2655 0H18.5311ZM20.0155 8H17.7811L18.5311 2L19.2655 2L20.0155 8ZM12.5 10H19C19.5523 10 20 10.4477 20 11V17C20 17.5523 19.5523 18 19 18H5C4.44772 18 4 17.5523 4 17V8.9806L7 6.5806V8.5L7.0038 8.50095C6.98499 8.75028 7.05909 9.00693 7.23135 9.21456C7.58398 9.63961 8.21442 9.69832 8.63947 9.34569L11.0118 7.37757L12 6.5806V9.5C12 9.77614 12.2239 10 12.5 10Z"
    fill="#0D0D15"
  />
</svg>
