<svg width="24" height="24" viewBox="0 0 24 24" fill="none" xmlns="http://www.w3.org/2000/svg">
  <path
    d="M9.5 14C10.3284 14 11 13.3284 11 12.5C11 11.6716 10.3284 11 9.5 11C8.67157 11 8 11.6716 8 12.5C8 13.3284 8.67157 14 9.5 14Z"
    fill="#0D0D15"
  />
  <path
    d="M16 12.5C16 13.3284 15.3284 14 14.5 14C13.6716 14 13 13.3284 13 12.5C13 11.6716 13.6716 11 14.5 11C15.3284 11 16 11.6716 16 12.5Z"
    fill="#0D0D15"
  />
  <path
    d="M10.7807 17.6249C11.1053 17.2194 11.5441 17 12 17C12.4559 17 12.8947 17.2194 13.2193 17.6249C13.5645 18.0561 14.1938 18.1258 14.6249 17.7807C15.0561 17.4355 15.1258 16.8062 14.7807 16.3751C14.1227 15.5531 13.1335 15 12 15C10.8665 15 9.87733 15.5531 9.21933 16.3751C8.87418 16.8062 8.9439 17.4355 9.37506 17.7807C9.80621 18.1258 10.4355 18.0561 10.7807 17.6249Z"
    fill="#0D0D15"
  />
  <path
    fill-rule="evenodd"
    clip-rule="evenodd"
    d="M4 5C4 3.34315 5.34315 2 7 2H12.7929C13.1907 2 13.5722 2.15804 13.8536 2.43934L19.5607 8.14645C19.842 8.42775 20 8.80928 20 9.20711V19C20 20.6569 18.6569 22 17 22H7C5.34315 22 4 20.6569 4 19V5ZM7 4C6.44772 4 6 4.44772 6 5V19C6 19.5523 6.44772 20 7 20H17C17.5523 20 18 19.5523 18 19V10H15C13.3431 10 12 8.65685 12 7V4H7ZM14 5.41421L16.5858 8H15C14.4477 8 14 7.55228 14 7V5.41421Z"
    fill="#0D0D15"
  />
</svg>
