<svg width="24" height="24" viewBox="0 0 24 24" fill="none" xmlns="http://www.w3.org/2000/svg">
  <path
    d="M9.5 12C10.3284 12 11 11.3284 11 10.5C11 9.67157 10.3284 9 9.5 9C8.67157 9 8 9.67157 8 10.5C8 11.3284 8.67157 12 9.5 12Z"
    fill="#0D0D15"
  />
  <path
    fill-rule="evenodd"
    clip-rule="evenodd"
    d="M7 2C5.34315 2 4 3.34315 4 5V19C4 20.6569 5.34315 22 7 22H17C18.6569 22 20 20.6569 20 19V9.20711C20 8.80928 19.842 8.42775 19.5607 8.14645L13.8536 2.43934C13.5722 2.15804 13.1907 2 12.7929 2H7ZM6 5C6 4.44772 6.44772 4 7 4H12V7C12 8.65685 13.3431 10 15 10H18V14.098L15.9102 12.7362L15.8143 12.6735C15.4187 12.4144 15.0217 12.1544 14.5721 12.0547C14.1805 11.9678 13.7737 11.9765 13.3862 12.0799C12.9412 12.1986 12.5556 12.4753 12.1713 12.7509L12.0782 12.8176L9.57258 14.6066C9.09344 14.9487 9.03402 14.9761 8.99336 14.9886C8.92472 15.0097 8.85234 15.0158 8.78115 15.0064C8.73897 15.0009 8.67583 14.9837 8.14644 14.7261L7.61808 14.469L7.53493 14.4284C7.1863 14.2579 6.83566 14.0864 6.45431 14.0284C6.30364 14.0055 6.15157 13.9965 6 14.0013V5ZM14.8183 14.4118L18 16.4852V19C18 19.5523 17.5523 20 17 20H7C6.44772 20 6 19.5523 6 19V16.0062C6.05079 15.9982 6.10262 15.998 6.15364 16.0057C6.19328 16.0117 6.2513 16.0281 6.7429 16.2673L7.27126 16.5244L7.36102 16.5683C7.73544 16.7514 8.11176 16.9355 8.51985 16.9893C8.87581 17.0362 9.2377 17.0059 9.58089 16.9004C9.97434 16.7795 10.3148 16.5354 10.6535 16.2925L10.7348 16.2343L13.2404 14.4453C13.7869 14.0551 13.8564 14.0244 13.9018 14.0123C13.9793 13.9916 14.0607 13.9899 14.139 14.0072C14.1849 14.0174 14.2556 14.0451 14.8183 14.4118ZM16.5858 8L14 5.41421V7C14 7.55228 14.4477 8 15 8H16.5858Z"
    fill="#0D0D15"
  />
</svg>
