<svg width="24" height="24" viewBox="0 0 24 24" fill="none" xmlns="http://www.w3.org/2000/svg">
  <path
    fill-rule="evenodd"
    clip-rule="evenodd"
    d="M6 4C5.44772 4 5 4.44772 5 5V19C5 19.5523 5.44772 20 6 20H10V22H6C4.34315 22 3 20.6569 3 19V5C3 3.34315 4.34315 2 6 2H11.7929C12.1907 2 12.5722 2.15804 12.8536 2.43934L18.5607 8.14645C18.842 8.42775 19 8.80928 19 9.20711V12H17V10H14C12.3431 10 11 8.65685 11 7V4H6ZM13 5.41421L15.5858 8H14C13.4477 8 13 7.55228 13 7V5.41421Z"
    fill="#0D0D15"
  />
  <path
    d="M17.0123 15.3107L18.7823 17.0807L13.9423 21.9207C13.8423 22.0107 13.7123 22.0607 13.5823 22.0607H12.5223C12.2423 22.0607 12.0223 21.8407 12.0223 21.5607V20.5007C12.0223 20.3707 12.0723 20.2407 12.1723 20.1507L17.0123 15.3107Z"
    fill="#0D0D15"
  />
  <path
    d="M20.2723 15.5707L19.4223 16.4207L17.6523 14.6507L18.5023 13.8007C18.7023 13.6007 19.0123 13.6007 19.2123 13.8007L20.2723 14.8607C20.4723 15.0607 20.4723 15.3807 20.2723 15.5707Z"
    fill="#0D0D15"
  />
  <path
    d="M10 11.5C10 12.3284 9.32843 13 8.5 13C7.67157 13 7 12.3284 7 11.5C7 10.6716 7.67157 10 8.5 10C9.32843 10 10 10.6716 10 11.5Z"
    fill="#0D0D15"
  />
  <path
    d="M10 16.5C10 17.3284 9.32843 18 8.5 18C7.67157 18 7 17.3284 7 16.5C7 15.6716 7.67157 15 8.5 15C9.32843 15 10 15.6716 10 16.5Z"
    fill="#0D0D15"
  />
</svg>
