<svg width="24" height="24" viewBox="0 0 24 24" fill="none" xmlns="http://www.w3.org/2000/svg">
  <path
    fill-rule="evenodd"
    clip-rule="evenodd"
    d="M7 4C6.44772 4 6 4.44772 6 5V19C6 19.5523 6.44772 20 7 20H12V22H7C5.34315 22 4 20.6569 4 19V5C4 3.34315 5.34315 2 7 2H12.7929C13.1907 2 13.5722 2.15804 13.8536 2.43934L19.5607 8.14645C19.842 8.42775 20 8.80928 20 9.20711V12H18V10H15C13.3431 10 12 8.65685 12 7V4H7ZM14 5.41421L16.5858 8H15C14.4477 8 14 7.55228 14 7V5.41421Z"
    fill="#0D0D15"
  />
  <path
    fill-rule="evenodd"
    clip-rule="evenodd"
    d="M21.971 18.5C21.971 18.3965 21.9664 18.2975 21.9572 18.194L22.818 17.5595C23.0031 17.4245 23.054 17.1725 22.9383 16.9745L22.0729 15.521C21.9572 15.323 21.7072 15.242 21.4944 15.332L20.4993 15.7415C20.3281 15.6245 20.1476 15.521 19.9578 15.4355L19.8236 14.396C19.7959 14.171 19.5968 14 19.3654 14H17.6392C17.4032 14 17.2041 14.171 17.1764 14.396L17.0422 15.4355C16.8524 15.521 16.6719 15.6245 16.5007 15.7415L15.5056 15.332C15.2928 15.242 15.0428 15.323 14.9271 15.521L14.0617 16.979C13.946 17.177 13.9969 17.4245 14.182 17.564L15.0428 18.1985C15.0336 18.2975 15.029 18.3965 15.029 18.5C15.029 18.6035 15.0336 18.7025 15.0428 18.806L14.182 19.4405C13.9969 19.5755 13.946 19.8275 14.0617 20.0255L14.9271 21.479C15.0428 21.677 15.2928 21.758 15.5056 21.668L16.5007 21.2585C16.6719 21.3755 16.8524 21.479 17.0422 21.5645L17.1764 22.604C17.2041 22.829 17.4032 23 17.6346 23H19.3608C19.5922 23 19.7912 22.829 19.819 22.604L19.9532 21.5645C20.143 21.479 20.3235 21.3755 20.4947 21.2585L21.4897 21.668C21.7026 21.758 21.9525 21.677 22.0682 21.479L22.9337 20.0255C23.0494 19.8275 22.9985 19.58 22.8134 19.4405L21.9525 18.806C21.9664 18.7025 21.971 18.6035 21.971 18.5ZM18.5185 20.075C17.6253 20.075 16.8987 19.3685 16.8987 18.5C16.8987 17.6315 17.6253 16.925 18.5185 16.925C19.4117 16.925 20.1383 17.6315 20.1383 18.5C20.1383 19.3685 19.4117 20.075 18.5185 20.075Z"
    fill="#0D0D15"
  />
</svg>
