<svg width="24" height="24" viewBox="0 0 24 24" fill="none" xmlns="http://www.w3.org/2000/svg">
  <path
    d="M14.2426 15.8284C14.6332 16.219 14.6332 16.8521 14.2426 17.2426C13.8521 17.6332 13.219 17.6332 12.8284 17.2426L11.7679 16.1821L10.7073 17.2426C10.3168 17.6332 9.68361 17.6332 9.29308 17.2426C8.90256 16.8521 8.90256 16.219 9.29308 15.8284L10.3536 14.7679L9.29289 13.7071C8.90237 13.3166 8.90237 12.6834 9.29289 12.2929C9.68342 11.9024 10.3166 11.9024 10.7071 12.2929L11.7679 13.3536L12.8286 12.2929C13.2191 11.9024 13.8523 11.9024 14.2428 12.2929C14.6334 12.6834 14.6334 13.3166 14.2428 13.7071L13.1821 14.7679L14.2426 15.8284Z"
    fill="#0D0D15"
  />
  <path
    fill-rule="evenodd"
    clip-rule="evenodd"
    d="M4 5C4 3.34315 5.34315 2 7 2H12.7929C13.1907 2 13.5722 2.15804 13.8536 2.43934L19.5607 8.14645C19.842 8.42775 20 8.80928 20 9.20711V19C20 20.6569 18.6569 22 17 22H7C5.34315 22 4 20.6569 4 19V5ZM7 4C6.44772 4 6 4.44772 6 5V19C6 19.5523 6.44772 20 7 20H17C17.5523 20 18 19.5523 18 19V10H15C13.3431 10 12 8.65685 12 7V4H7ZM14 5.41421L16.5858 8H15C14.4477 8 14 7.55228 14 7V5.41421Z"
    fill="#0D0D15"
  />
</svg>
