<svg width="24" height="24" viewBox="0 0 24 24" fill="none" xmlns="http://www.w3.org/2000/svg">
  <path
    d="M15.3295 13.478C15.7027 13.0709 15.6752 12.4383 15.2681 12.0651C14.8609 11.6919 14.2284 11.7194 13.8552 12.1265L11.3404 14.9813L10.0363 13.4389C9.68275 13.0146 9.05218 12.9573 8.62791 13.3108C8.20363 13.6644 8.14631 14.2949 8.49987 14.7192L10.5363 17.1405C10.721 17.3621 10.9925 17.4932 11.2809 17.5C11.5694 17.5068 11.8467 17.3887 12.0417 17.176L15.3295 13.478Z"
    fill="#0D0D15"
  />
  <path
    fill-rule="evenodd"
    clip-rule="evenodd"
    d="M4 5C4 3.34315 5.34315 2 7 2H12.7929C13.1907 2 13.5722 2.15804 13.8536 2.43934L19.5607 8.14645C19.842 8.42775 20 8.80928 20 9.20711V19C20 20.6569 18.6569 22 17 22H7C5.34315 22 4 20.6569 4 19V5ZM7 4C6.44772 4 6 4.44772 6 5V19C6 19.5523 6.44772 20 7 20H17C17.5523 20 18 19.5523 18 19V10H15C13.3431 10 12 8.65685 12 7V4H7ZM14 5.41421L16.5858 8H15C14.4477 8 14 7.55228 14 7V5.41421Z"
    fill="#0D0D15"
  />
</svg>
