<svg width="24" height="24" viewBox="0 0 24 24" fill="none" xmlns="http://www.w3.org/2000/svg">
  <path
    fill-rule="evenodd"
    clip-rule="evenodd"
    d="M6 5C6 4.44772 6.44772 4 7 4H12V7C12 8.65685 13.3431 10 15 10H18V13C18.7013 13 19.3744 13.1203 20 13.3414V9.20711C20 8.80928 19.842 8.42775 19.5607 8.14645L13.8536 2.43934C13.5722 2.15804 13.1907 2 12.7929 2H7C5.34315 2 4 3.34315 4 5V19C4 20.6569 5.34315 22 7 22H12.8027C12.4513 21.3926 12.2034 20.7179 12.083 20H7C6.44772 20 6 19.5523 6 19V5ZM16.5858 8L14 5.41421V7C14 7.55228 14.4477 8 15 8H16.5858Z"
    fill="#0D0D15"
  />
  <path
    fill-rule="evenodd"
    clip-rule="evenodd"
    d="M22 19C22 21.2091 20.2091 23 18 23C15.7909 23 14 21.2091 14 19C14 16.7909 15.7909 15 18 15C20.2091 15 22 16.7909 22 19ZM18 16.5C17.7239 16.5 17.5 16.7239 17.5 17V19C17.5 19.0447 17.5059 19.0881 17.5169 19.1293C17.5311 19.2338 17.5784 19.3347 17.6587 19.4151L19.073 20.8293C19.2682 21.0246 19.5848 21.0246 19.7801 20.8293C19.9753 20.634 19.9753 20.3175 19.7801 20.1222L18.5 18.8421V17C18.5 16.7239 18.2761 16.5 18 16.5Z"
    fill="#0D0D15"
  />
</svg>
