<svg width="24" height="24" viewBox="0 0 24 24" fill="none" xmlns="http://www.w3.org/2000/svg">
  <path
    d="M11 11C10.4477 11 10 11.4477 10 12C10 12.5523 10.4477 13 11 13H17C17.5523 13 18 12.5523 18 12C18 11.4477 17.5523 11 17 11H11Z"
    fill="#0D0D15"
  />
  <path
    d="M10 16C10 15.4477 10.4477 15 11 15H14C14.5523 15 15 15.4477 15 16C15 16.5523 14.5523 17 14 17H11C10.4477 17 10 16.5523 10 16Z"
    fill="#0D0D15"
  />
  <path
    fill-rule="evenodd"
    clip-rule="evenodd"
    d="M6 4C6 2.34315 7.34315 1 9 1H14.7929C15.1907 1 15.5722 1.15804 15.8536 1.43934L21.5607 7.14645C21.842 7.42775 22 7.80928 22 8.20711V18C22 19.6569 20.6569 21 19 21H9C7.34315 21 6 19.6569 6 18V4ZM9 3C8.44772 3 8 3.44772 8 4V18C8 18.5523 8.44772 19 9 19H19C19.5523 19 20 18.5523 20 18V9H17C15.3431 9 14 7.65685 14 6V3H9ZM16 4.41421L18.5858 7H17C16.4477 7 16 6.55228 16 6V4.41421Z"
    fill="#0D0D15"
  />
  <path
    d="M4 12C3.44772 12 3 12.4477 3 13V20C3 22.2091 4.79086 24 7 24H12C12.5523 24 13 23.5523 13 23C13 22.4477 12.5523 22 12 22H7C5.89543 22 5 21.1046 5 20V13C5 12.4477 4.55228 12 4 12Z"
    fill="#0D0D15"
  />
</svg>
