<svg width="24" height="24" viewBox="0 0 24 24" fill="none" xmlns="http://www.w3.org/2000/svg">
  <path
    fill-rule="evenodd"
    clip-rule="evenodd"
    d="M6 5C6 4.44772 6.44772 4 7 4H12V7C12 8.65685 13.3431 10 15 10H18V19C18 19.5523 17.5523 20 17 20H14.8293C14.9398 20.3128 15 20.6494 15 21C15 21.3506 14.9398 21.6872 14.8293 22H17C18.6569 22 20 20.6569 20 19V9.20711C20 8.80928 19.842 8.42775 19.5607 8.14645L13.8536 2.43934C13.5722 2.15804 13.1907 2 12.7929 2H7C5.34315 2 4 3.34315 4 5V19C4 20.6569 5.34315 22 7 22H9.17071C9.06015 21.6872 9 21.3506 9 21C9 20.6494 9.06015 20.3128 9.17071 20H7C6.44772 20 6 19.5523 6 19V5ZM16.5858 8L14 5.41421V7C14 7.55228 14.4477 8 15 8H16.5858Z"
    fill="#0D0D15"
  />
  <path
    d="M11 14.5C11 13.9477 11.4477 13.5 12 13.5C12.5523 13.5 13 13.9477 13 14.5C13 14.8772 12.7915 15.2072 12.4788 15.3784C12.1685 15.5482 11.8204 15.7907 11.5387 16.1191C11.2528 16.4526 11 16.9196 11 17.5V18C11 18.5523 11.4477 19 12 19C12.5523 19 13 18.5523 13 18V17.5061C13.0038 17.4953 13.0171 17.4676 13.0569 17.4211C13.1336 17.3316 13.265 17.2281 13.4391 17.1327C14.3671 16.6247 15 15.637 15 14.5C15 12.8431 13.6569 11.5 12 11.5C10.3431 11.5 9 12.8431 9 14.5C9 15.0523 9.44771 15.5 10 15.5C10.5523 15.5 11 15.0523 11 14.5Z"
    fill="#0D0D15"
  />
  <path
    d="M13 21C13 21.5523 12.5523 22 12 22C11.4477 22 11 21.5523 11 21C11 20.4477 11.4477 20 12 20C12.5523 20 13 20.4477 13 21Z"
    fill="#0D0D15"
  />
</svg>
