<svg width="24" height="24" viewBox="0 0 24 24" fill="none" xmlns="http://www.w3.org/2000/svg">
  <path
    d="M14.2677 13.7678C14.82 13.7678 15.2677 14.2155 15.2677 14.7678C15.2677 15.3201 14.82 15.7678 14.2677 15.7678H12.7679L12.7679 17.2677C12.7679 17.82 12.3201 18.2677 11.7679 18.2677C11.2156 18.2677 10.7679 17.82 10.7679 17.2677V15.7678H9.26773C8.71544 15.7678 8.26773 15.3201 8.26773 14.7678C8.26773 14.2155 8.71544 13.7678 9.26773 13.7678H10.7679L10.7679 12.2677C10.7679 11.7154 11.2156 11.2677 11.7679 11.2677C12.3201 11.2677 12.7679 11.7154 12.7679 12.2677V13.7678H14.2677Z"
    fill="#0D0D15"
  />
  <path
    fill-rule="evenodd"
    clip-rule="evenodd"
    d="M4 5C4 3.34315 5.34315 2 7 2H12.7929C13.1907 2 13.5722 2.15804 13.8536 2.43934L19.5607 8.14645C19.842 8.42775 20 8.80928 20 9.20711V19C20 20.6569 18.6569 22 17 22H7C5.34315 22 4 20.6569 4 19V5ZM7 4C6.44772 4 6 4.44772 6 5V19C6 19.5523 6.44772 20 7 20H17C17.5523 20 18 19.5523 18 19V10H15C13.3431 10 12 8.65685 12 7V4H7ZM14 5.41421L16.5858 8H15C14.4477 8 14 7.55228 14 7V5.41421Z"
    fill="#0D0D15"
  />
</svg>
