<svg width="24" height="24" viewBox="0 0 24 24" fill="none" xmlns="http://www.w3.org/2000/svg">
  <path
    fill-rule="evenodd"
    clip-rule="evenodd"
    d="M5 5C5 4.44772 5.44772 4 6 4H11V7C11 8.65685 12.3431 10 14 10H17V12H19V9.20711C19 8.80928 18.842 8.42775 18.5607 8.14645L12.8536 2.43934C12.5722 2.15804 12.1907 2 11.7929 2H6C4.34315 2 3 3.34315 3 5V19C3 20.6569 4.34315 22 6 22H10V20H6C5.44772 20 5 19.5523 5 19V5ZM15.5858 8L13 5.41421V7C13 7.55228 13.4477 8 14 8H15.5858Z"
    fill="#0D0D15"
  />
  <path
    d="M18.7823 17.0807L17.0123 15.3107L12.1723 20.1507C12.0723 20.2407 12.0223 20.3707 12.0223 20.5007V21.5607C12.0223 21.8407 12.2423 22.0607 12.5223 22.0607H13.5823C13.7123 22.0607 13.8423 22.0107 13.9423 21.9207L18.7823 17.0807Z"
    fill="#0D0D15"
  />
  <path
    d="M19.4223 16.4207L20.2723 15.5707C20.4723 15.3807 20.4723 15.0607 20.2723 14.8607L19.2123 13.8007C19.0123 13.6007 18.7023 13.6007 18.5023 13.8007L17.6523 14.6507L19.4223 16.4207Z"
    fill="#0D0D15"
  />
</svg>
