<svg width="24" height="24" viewBox="0 0 24 24" fill="none" xmlns="http://www.w3.org/2000/svg">
  <path
    d="M4 6.04004C4 5.48775 4.44772 5.04004 5 5.04004H9.17157C9.43679 5.04004 9.69114 5.1454 9.87868 5.33293L11 6.45425C11.3751 6.82933 11.8838 7.04004 12.4142 7.04004H19C19.5523 7.04004 20 7.48775 20 8.04004V8.09991C20.7389 8.24989 21.4186 8.56281 22 8.99953V8.04004C22 6.38319 20.6569 5.04004 19 5.04004L12.4142 5.04004L11.2929 3.91872C10.7303 3.35611 9.96722 3.04004 9.17157 3.04004H5C3.34315 3.04004 2 4.38318 2 6.04004V16.9999C2 18.6568 3.34315 19.9999 5 19.9999H12.1C12.0344 19.6768 12 19.3424 12 18.9999V17.9999H5C4.44772 17.9999 4 17.5522 4 16.9999V6.04004Z"
    fill="#0D0D15"
  />
  <path
    fill-rule="evenodd"
    clip-rule="evenodd"
    d="M16 14.1706V12.7777C16 11.1361 17.4571 9.9999 19 9.9999C20.5429 9.9999 22 11.1361 22 12.7777V14.1706C23.1652 14.5824 24 15.6937 24 16.9999V18.9999C24 19.8884 23.6137 20.6867 23 21.236C22.4692 21.711 21.7684 21.9999 21 21.9999H17C15.3431 21.9999 14 20.6568 14 18.9999V16.9999C14 16.6493 14.0602 16.3127 14.1707 15.9999C14.472 15.1475 15.1476 14.4719 16 14.1706ZM18 12.7777C18 12.4556 18.3337 11.9999 19 11.9999C19.6663 11.9999 20 12.4556 20 12.7777V13.9999H18V12.7777ZM22 18.9999C22 19.5522 21.5523 19.9999 21 19.9999H17C16.4477 19.9999 16 19.5522 16 18.9999V16.9999C16 16.4476 16.4477 15.9999 17 15.9999H21C21.5523 15.9999 22 16.4476 22 16.9999V18.9999Z"
    fill="#0D0D15"
  />
</svg>
