<svg width="24" height="24" viewBox="0 0 24 24" fill="none" xmlns="http://www.w3.org/2000/svg">
  <path
    fill-rule="evenodd"
    clip-rule="evenodd"
    d="M7.58569 13.4644L7.12132 13C5.94975 11.8284 4.05025 11.8284 2.87868 13C1.7071 14.1716 1.70711 16.0711 2.87868 17.2427L6.78003 21.144C7.28543 21.6494 7.92628 21.9368 8.58573 22.0061V22H16.5857C19.3471 22 21.5857 19.7614 21.5857 17V12C21.5857 10.3431 20.2425 9 18.5857 9C17.8173 9 17.1164 9.28885 16.5857 9.76389C16.0549 9.28885 15.354 9 14.5857 9C14.2351 9 13.8985 9.06015 13.5857 9.17071V5C13.5857 3.34315 12.2425 2 10.5857 2C8.92884 2 7.58569 3.34314 7.58569 5V13.4644ZM14.5857 11C14.0334 11 13.5857 11.4477 13.5857 12C13.5857 12.5523 13.138 13 12.5857 13C12.0334 13 11.5857 12.5523 11.5857 12V5C11.5857 4.44772 11.138 4 10.5857 4C10.0334 4 9.58569 4.44771 9.58569 5V15.6073C9.58569 16.1596 9.13798 16.6073 8.58569 16.6073C8.40989 16.6073 8.24468 16.562 8.10114 16.4823L5.70711 14.4142C5.31658 14.0237 4.68342 14.0237 4.29289 14.4142C3.90237 14.8048 3.90237 15.4379 4.29289 15.8284L8.19424 19.7298C8.30812 19.8437 8.44262 19.9525 8.58573 20H16.5857C18.2425 20 19.5857 18.6569 19.5857 17V12C19.5857 11.4477 19.138 11 18.5857 11C18.0334 11 17.5857 11.4477 17.5857 12C17.5857 12.5523 17.138 13 16.5857 13C16.0334 13 15.5857 12.5523 15.5857 12C15.5857 11.4477 15.138 11 14.5857 11Z"
    fill="#0D0D15"
  />
</svg>
