<svg width="24" height="24" viewBox="0 0 24 24" fill="none" xmlns="http://www.w3.org/2000/svg">
  <path
    fill-rule="evenodd"
    clip-rule="evenodd"
    d="M17.4998 10C19.4328 10 20.9998 8.433 20.9998 6.5C20.9998 4.567 19.4328 3 17.4998 3C15.5668 3 13.9998 4.567 13.9998 6.5C13.9998 7.09611 14.1488 7.65741 14.4116 8.14868L8.13989 14.4205C6.81334 13.7025 5.12086 13.904 3.99974 15.0251C2.6329 16.392 2.6329 18.608 3.99974 19.9749C5.36657 21.3417 7.58265 21.3417 8.94948 19.9749C10.0706 18.8538 10.2721 17.1613 9.5541 15.8347L15.8185 9.57048C16.3174 9.84429 16.8904 10 17.4998 10ZM5.41395 16.4393C4.82816 17.0251 4.82816 17.9749 5.41395 18.5607C5.99974 19.1464 6.94948 19.1464 7.53527 18.5607C8.12106 17.9749 8.12106 17.0251 7.53527 16.4393C6.94948 15.8536 5.99974 15.8536 5.41395 16.4393Z"
    fill="black"
  />
</svg>
