<svg width="24" height="24" viewBox="0 0 24 24" fill="none" xmlns="http://www.w3.org/2000/svg">
  <path
    fill-rule="evenodd"
    clip-rule="evenodd"
    d="M3 5C3 3.89543 3.89543 3 5 3H7C8.10457 3 9 3.89543 9 5V9C9 10.1046 8.10457 11 7 11H5C3.89543 11 3 10.1046 3 9V5ZM5 5H7V9H5L5 5Z"
    fill="#0D0D15"
  />
  <path
    fill-rule="evenodd"
    clip-rule="evenodd"
    d="M21 15C21 13.8954 20.1046 13 19 13H17C15.8954 13 15 13.8954 15 15V19C15 20.1046 15.8954 21 17 21H19C20.1046 21 21 20.1046 21 19V15ZM19 15H17V19H19V15Z"
    fill="#0D0D15"
  />
  <path
    fill-rule="evenodd"
    clip-rule="evenodd"
    d="M13 3C11.8954 3 11 3.89543 11 5V9C11 10.1046 11.8954 11 13 11H19C20.1046 11 21 10.1046 21 9V5C21 3.89543 20.1046 3 19 3H13ZM19 5H13V9H19V5Z"
    fill="#0D0D15"
  />
  <path
    fill-rule="evenodd"
    clip-rule="evenodd"
    d="M13 15C13 13.8954 12.1046 13 11 13H5C3.89543 13 3 13.8954 3 15V19C3 20.1046 3.89543 21 5 21H11C12.1046 21 13 20.1046 13 19V15ZM11 15H5V19H11V15Z"
    fill="#0D0D15"
  />
</svg>
