<svg width="24" height="24" viewBox="0 0 24 24" fill="none" xmlns="http://www.w3.org/2000/svg">
  <path
    fill-rule="evenodd"
    clip-rule="evenodd"
    d="M16 4H8C5.79086 4 4 5.79086 4 8V16C4 18.2091 5.79086 20 8 20H16C18.2091 20 20 18.2091 20 16V8C20 5.79086 18.2091 4 16 4ZM6 8C6 6.89543 6.89543 6 8 6H16C17.1046 6 18 6.89543 18 8V16C18 17.1046 17.1046 18 16 18H8C6.89543 18 6 17.1046 6 16V8Z"
    fill="#0D0D15"
  />
  <path
    d="M0 9.99996C0 8.13612 1.27477 6.57002 3 6.12598V8.26752C2.4022 8.61333 2 9.25968 2 9.99996V15C2 15.7402 2.4022 16.3866 3 16.7324V18.8739C1.27477 18.4299 0 16.8638 0 15V9.99996Z"
    fill="#0D0D15"
  />
  <path
    d="M24 15C24 16.8638 22.7252 18.4299 21 18.8739V16.7324C21.5978 16.3866 22 15.7402 22 15V9.99996C22 9.25968 21.5978 8.61333 21 8.26752V6.12598C22.7252 6.57002 24 8.13612 24 9.99996V15Z"
    fill="#0D0D15"
  />
</svg>
