<svg width="24" height="24" viewBox="0 0 24 24" fill="none" xmlns="http://www.w3.org/2000/svg">
  <path
    d="M10 18C10 18.5523 9.55229 19 9 19C8.44771 19 8 18.5523 8 18C8 17.4477 8.44771 17 9 17C9.55229 17 10 17.4477 10 18Z"
    fill="#0D0D15"
  />
  <path
    d="M12 19C12.5523 19 13 18.5523 13 18C13 17.4477 12.5523 17 12 17C11.4477 17 11 17.4477 11 18C11 18.5523 11.4477 19 12 19Z"
    fill="#0D0D15"
  />
  <path
    fill-rule="evenodd"
    clip-rule="evenodd"
    d="M16 2H8C5.79086 2 4 3.79086 4 6V18C4 20.2091 5.79086 22 8 22H16C18.2091 22 20 20.2091 20 18V6C20 3.79086 18.2091 2 16 2ZM18 14.5351V6C18 4.89543 17.1046 4 16 4H8C6.89543 4 6 4.89543 6 6V14.5351C6.58835 14.1948 7.27143 14 8 14H16C16.7286 14 17.4117 14.1948 18 14.5351ZM6 18C6 19.1046 6.89543 20 8 20H16C17.1046 20 18 19.1046 18 18C18 16.8954 17.1046 16 16 16H8C6.89543 16 6 16.8954 6 18Z"
    fill="#0D0D15"
  />
</svg>
