<svg width="24" height="24" viewBox="0 0 24 24" fill="none" xmlns="http://www.w3.org/2000/svg">
  <path d="M20 4H4C2.9 4 2 4.9 2 6V9H4V6H20V9H22V6C22 4.9 21.1 4 20 4Z" fill="#0D0D15" />
  <path
    d="M14.89 7.55004C14.55 6.87004 13.44 6.87004 13.1 7.55004L10 13.76L8.89 11.55C8.72 11.21 8.38 11 8 11H3.00894L3 11C2.44772 11 2 11.4477 2 12C2 12.5523 2.44772 13 3 13L7.38 13L9.1 16.45C9.28 16.79 9.62 17 10 17C10.38 17 10.72 16.79 10.89 16.45L14 10.24L15.11 12.45C15.28 12.79 15.62 13 16 13L21 13C21.5523 13 22 12.5523 22 12C22 11.4477 21.5523 11 21 11L16.62 11L14.89 7.55004Z"
    fill="#0D0D15"
  />
  <path d="M4 18H20V15H22V18C22 19.1 21.1 20 20 20H4C2.9 20 2 19.1 2 18V15H4V18Z" fill="#0D0D15" />
</svg>
