<svg width="24" height="24" viewBox="0 0 24 24" fill="none" xmlns="http://www.w3.org/2000/svg">
  <path
    fill-rule="evenodd"
    clip-rule="evenodd"
    d="M2 18.2169C2 19.5446 3.1096 20.5251 4.25557 20.1983C5.14689 19.9429 6.09277 19.8306 7.00227 19.8306C8.4211 19.8306 9.93088 20.0961 11.1496 20.7702C11.6953 21.0766 12.3138 21.0766 12.8504 20.7702C14.0691 20.0859 15.5789 19.8306 16.9977 19.8306C17.9072 19.8306 18.8531 19.9429 19.7444 20.1983C20.8904 20.5353 22 19.5548 22 18.2169V6.6963C22 5.86903 21.5543 5.14389 20.8904 4.80685C19.7262 4.22469 18.3256 4 17.0068 4C15.2333 4 13.3233 4.40853 12.0045 5.53199C10.6858 4.40853 8.77581 4 7.00227 4C5.68349 4 4.28286 4.22469 3.1096 4.80685C2.44566 5.14389 2 5.86903 2 6.6963V18.2169ZM11.125 7.31233L10.8206 7.05302C9.98146 6.33816 8.57885 5.96154 7.00227 5.96154C5.86407 5.96154 4.76774 6.15876 3.92646 6.57255C3.91395 6.58021 3.875 6.6156 3.875 6.6963V18.2169C3.875 18.2393 3.8773 18.2578 3.88064 18.2727C4.91938 17.9887 5.99075 17.869 7.00227 17.869C8.31067 17.869 9.77474 18.0648 11.125 18.6088V7.31233ZM13 18.5555C14.3219 18.0439 15.739 17.869 16.9977 17.869C18.0095 17.869 19.0811 17.9887 20.12 18.2729C20.123 18.2576 20.125 18.239 20.125 18.2169V6.6963C20.125 6.61428 20.0848 6.57907 20.0729 6.57219C19.2437 6.15999 18.1487 5.96154 17.0068 5.96154C15.4302 5.96154 14.0276 6.33816 13.1885 7.05302L13 7.2136V18.5555Z"
    fill="#0D0D15"
  />
</svg>
