<svg width="24" height="24" viewBox="0 0 24 24" fill="none" xmlns="http://www.w3.org/2000/svg">
  <path
    fill-rule="evenodd"
    clip-rule="evenodd"
    d="M2 6.94482C2 5.28797 3.34315 3.94482 5 3.94482H19C20.6569 3.94482 22 5.28797 22 6.94482V17.0552C22 18.7121 20.6569 20.0552 19 20.0552H5C3.34315 20.0552 2 18.7121 2 17.0552V6.94482ZM5 5.94482C4.44772 5.94482 4 6.39254 4 6.94482V17.0552C4 17.6075 4.44772 18.0552 5 18.0552H19C19.5523 18.0552 20 17.6075 20 17.0552V6.94482C20 6.39254 19.5523 5.94482 19 5.94482H5Z"
    fill="black"
  />
</svg>
