<svg width="24" height="24" viewBox="0 0 24 24" fill="none" xmlns="http://www.w3.org/2000/svg">
  <path
    d="M11.8873 4C16.3554 4 19.9775 7.58172 19.9775 12C19.9775 16.4183 16.3554 20 11.8873 20C9.49142 20 7.33979 18.9713 5.85698 17.3331C5.37406 16.7995 4.96273 16.2019 4.63762 15.555C4.35702 14.9966 4.14058 14.4015 3.99768 13.7787C3.87409 13.2401 3.33237 12.9026 2.78771 13.0248C2.24305 13.147 1.9017 13.6827 2.02529 14.2213C2.20424 15.0011 2.47529 15.7464 2.82641 16.445C3.23313 17.2543 3.74718 18.001 4.34992 18.6669C6.20018 20.7111 8.89222 22 11.8873 22C17.4724 22 22 17.5228 22 12C22 6.47715 17.4724 2 11.8873 2C9.13056 2 6.63178 3.09134 4.80849 4.8587V4C4.80849 3.44772 4.35573 3 3.79722 3C3.23872 3 2.78596 3.44772 2.78596 4V8C2.78596 8.55228 3.23872 9 3.79722 9H7.84229C8.40079 9 8.85355 8.55228 8.85355 8C8.85355 7.44772 8.40079 7 7.84229 7H5.57153C7.05543 5.16951 9.33344 4 11.8873 4Z"
    fill="#0D0D15"
  />
  <path
    d="M13 9C13 8.44772 12.5523 8 12 8C11.4477 8 11 8.44772 11 9V12C11 12.4304 11.2754 12.8126 11.6838 12.9487L14.6838 13.9487C15.2077 14.1233 15.774 13.8402 15.9487 13.3162C16.1233 12.7923 15.8402 12.226 15.3162 12.0513L13 11.2792V9Z"
    fill="#0D0D15"
  />
</svg>
