
<svg width="24" height="24" viewBox="0 0 24 24" fill="none" xmlns="http://www.w3.org/2000/svg">
<path d="M12 9.00006C10.1914 9.00006 8.54373 9.72994 7.30151 10.9213C6.92744 11.2801 6.89919 11.8813 7.22953 12.2768C7.57278 12.6878 8.17712 12.7271 8.56618 12.3539C9.48211 11.4755 10.6844 10.9468 12 10.9468C13.3157 10.9468 14.518 11.4755 15.4339 12.3539C15.823 12.7271 16.4273 12.6878 16.7705 12.2768C17.1009 11.8813 17.0726 11.2801 16.6986 10.9213C15.4563 9.72994 13.8087 9.00006 12 9.00006Z" fill="#0D0D15"/>
<path d="M12 11.9783C10.9725 11.9783 10.0373 12.3936 9.33461 13.0675C8.96054 13.4262 8.93229 14.0275 9.26262 14.423C9.60588 14.834 10.2102 14.8733 10.5993 14.5001C10.9757 14.1391 11.4655 13.9251 12 13.9251C12.5346 13.9251 13.0244 14.1391 13.4008 14.5001C13.7899 14.8733 14.3942 14.834 14.7374 14.423C15.0678 14.0275 15.0395 13.4262 14.6655 13.0675C13.9628 12.3936 13.0276 11.9783 12 11.9783Z" fill="#0D0D15"/>
<path d="M13 16.0001C13 16.5524 12.5523 17.0001 12 17.0001C11.4477 17.0001 11 16.5524 11 16.0001C11 15.4478 11.4477 15.0001 12 15.0001C12.5523 15.0001 13 15.4478 13 16.0001Z" fill="#0D0D15"/>
<path fill-rule="evenodd" clip-rule="evenodd" d="M1.85589 9.73515C1.43344 10.0909 1.37936 10.7218 1.73511 11.1442C2.05229 11.5209 2.58816 11.6047 3.00003 11.3663V17.0001C3.00003 19.2092 4.79089 21.0001 7.00003 21.0001H17C19.2092 21.0001 21 19.2092 21 17.0001V11.3663C21.4119 11.6047 21.9478 11.5208 22.2649 11.1442C22.6207 10.7218 22.5666 10.0909 22.1442 9.73515L13.9324 2.82001C12.8158 1.87966 11.1843 1.87966 10.0676 2.82001L1.85589 9.73515ZM19 9.70215L12.6442 4.34983C12.2719 4.03638 11.7281 4.03638 11.3559 4.34984L5.00003 9.70213V17.0001C5.00003 18.1046 5.89546 19.0001 7.00003 19.0001H17C18.1046 19.0001 19 18.1046 19 17.0001V9.70215Z" fill="#0D0D15"/>
</svg>
