<svg width="24" height="24" viewBox="0 0 24 24" fill="none" xmlns="http://www.w3.org/2000/svg">
  <path
    fill-rule="evenodd"
    clip-rule="evenodd"
    d="M1.99976 11.0452C2.31441 11.4945 2.93207 11.6013 3.37934 11.2837L4.02857 10.8226V18.0001C4.02857 19.6569 5.37172 21.0001 7.02857 21.0001H17.0286C18.6854 21.0001 20.0286 19.6569 20.0286 18.0001V10.8238L20.6761 11.2837C21.1234 11.6013 21.741 11.4945 22.0557 11.0452C22.3703 10.5958 22.2628 9.97399 21.8156 9.65635L12.6114 3.11961C12.4338 2.9935 12.2294 2.93429 12.0277 2.93686C11.826 2.93429 11.6216 2.9935 11.444 3.11961L2.23987 9.65635C1.7926 9.97399 1.6851 10.5958 1.99976 11.0452ZM16.0283 19.0001H17.0286C17.5809 19.0001 18.0286 18.5523 18.0286 18.0001V9.40343L12.0277 5.14166L6.02857 9.40221V18.0001C6.02857 18.5523 6.47629 19.0001 7.02857 19.0001H8.02833V14.5001C8.02833 13.6716 8.6999 13.0001 9.52833 13.0001H14.5283C15.3568 13.0001 16.0283 13.6716 16.0283 14.5001V19.0001ZM10.0283 19.0001H14.0283V15.0001H10.0283V19.0001Z"
    fill="#0D0D15"
  />
</svg>
