<svg width="24" height="24" viewBox="0 0 24 24" fill="none" xmlns="http://www.w3.org/2000/svg">
  <path
    fill-rule="evenodd"
    clip-rule="evenodd"
    d="M3.37933 11.2837C2.93206 11.6013 2.3144 11.4945 1.99975 11.0451C1.68509 10.5958 1.7926 9.97398 2.23986 9.65634L11.444 3.1196C11.6216 2.99349 11.826 2.93428 12.0277 2.93685C12.2294 2.93428 12.4338 2.99349 12.6114 3.1196L21.8156 9.65634C22.2628 9.97398 22.3703 10.5958 22.0557 11.0451C21.741 11.4945 21.1234 11.6013 20.6761 11.2837L20.0286 10.8238V18C20.0286 19.6569 18.6854 21 17.0286 21H7.02856C5.37171 21 4.02856 19.6569 4.02856 18V10.8226L3.37933 11.2837ZM17.0286 19H16.0283L16 12.5451C16 11.7167 15.3284 11.0451 14.5 11.0451H9.49999C8.67157 11.0451 7.99999 11.7167 7.99999 12.5451L8.02832 19H7.02856C6.47628 19 6.02856 18.5523 6.02856 18V9.4022L12.0277 5.14165L18.0286 9.40341V18C18.0286 18.5523 17.5808 19 17.0286 19ZM14.0283 19H10.0283L10.0189 17H14.0189L14.0283 19ZM14.0094 15H10.0094L9.99999 13H14L14.0094 15Z"
    fill="#0D0D15"
  />
</svg>
