<svg width="24" height="24" viewBox="0 0 24 24" fill="none" xmlns="http://www.w3.org/2000/svg">
  <path
    d="M11 22.0001C9.33333 22.0001 7.91667 21.4168 6.75 20.2501C5.58333 19.0834 5 17.6668 5 16.0001V11.2001C5 10.9668 5.1 10.8084 5.3 10.7251C5.5 10.6418 5.68333 10.6834 5.85 10.8501L9.3 14.3001C9.48333 14.4834 9.575 14.7124 9.575 14.9871C9.575 15.2624 9.48333 15.5001 9.3 15.7001C9.1 15.9001 8.86267 16.0001 8.588 16.0001C8.31267 16.0001 8.075 15.9001 7.875 15.7001L7 14.8251V16.0001C7 17.1001 7.39167 18.0418 8.175 18.8251C8.95833 19.6084 9.9 20.0001 11 20.0001C12.1 20.0001 13.0417 19.6084 13.825 18.8251C14.6083 18.0418 15 17.1001 15 16.0001V11.825C14.4167 11.6083 13.9373 11.246 13.562 10.738C13.1873 10.2293 13 9.65 13 9C13 8.35 13.1873 7.77067 13.562 7.262C13.9373 6.754 14.4167 6.39167 15 6.175V3C15 2.71667 15.096 2.479 15.288 2.287C15.4793 2.09567 15.7167 2 16 2C16.2833 2 16.5207 2.09567 16.712 2.287C16.904 2.479 17 2.71667 17 3V6.175C17.5833 6.39167 18.0627 6.754 18.438 7.262C18.8127 7.77067 19 8.35 19 9C19 9.65 18.8127 10.2333 18.438 10.75C18.0627 11.2667 17.5833 11.625 17 11.825V16.0001C17 17.6668 16.4167 19.0834 15.25 20.2501C14.0833 21.4168 12.6667 22.0001 11 22.0001ZM16 10C16.2833 10 16.5207 9.904 16.712 9.712C16.904 9.52067 17 9.28333 17 9C17 8.71667 16.904 8.479 16.712 8.287C16.5207 8.09567 16.2833 8 16 8C15.7167 8 15.4793 8.09567 15.288 8.287C15.096 8.479 15 8.71667 15 9C15 9.28333 15.096 9.52067 15.288 9.712C15.4793 9.904 15.7167 10 16 10Z"
    fill="#0D0D15"
  />
</svg>
