<svg width="24" height="24" viewBox="0 0 24 24" fill="none" xmlns="http://www.w3.org/2000/svg">
  <path
    d="M18.9297 8H21.1679C19.6247 4.46819 16.1006 2 11.9999 2C7.89931 2 4.37514 4.46819 2.83203 8H5.0702C5.8334 6.68065 6.96257 5.59949 8.3189 4.89532C8.20442 5.13913 8.10044 5.38897 8.00597 5.6409C7.74076 6.3481 7.52392 7.14336 7.36035 8H9.40129C9.92 5.60879 10.8895 4 11.9999 4C13.1104 4 14.0799 5.60879 14.5986 8H16.6395C16.476 7.14336 16.2591 6.3481 15.9939 5.6409C15.8994 5.38897 15.7955 5.13913 15.681 4.89532C17.0373 5.59949 18.1665 6.68065 18.9297 8Z"
    fill="#0D0D15"
  />
  <path
    d="M18.9297 16H21.1679C19.6247 19.5318 16.1006 22 11.9999 22C7.89931 22 4.37514 19.5318 2.83203 16H5.0702C5.8334 17.3193 6.96257 18.4005 8.3189 19.1047C8.20442 18.8609 8.10044 18.611 8.00597 18.3591C7.74076 17.6519 7.52392 16.8566 7.36035 16H9.40129C9.92 18.3912 10.8895 20 11.9999 20C13.1104 20 14.0799 18.3912 14.5986 16H16.6395C16.476 16.8566 16.2591 17.6519 15.9939 18.3591C15.8994 18.611 15.7955 18.8609 15.681 19.1047C17.0373 18.4005 18.1665 17.3193 18.9297 16Z"
    fill="#0D0D15"
  />
  <path
    d="M2.5 11H4.5V9.75C4.5 9.34 4.84 9 5.25 9C5.66 9 6 9.34 6 9.75V14.25C6 14.66 5.66 15 5.25 15C4.84 15 4.5 14.66 4.5 14.25V12.5H2.5V14.25C2.5 14.66 2.16 15 1.75 15C1.34 15 1 14.66 1 14.25V9.75C1 9.34 1.34 9 1.75 9C2.16 9 2.5 9.34 2.5 9.75V11Z"
    fill="#0D0D15"
  />
  <path
    d="M8.5 10.5H7.75C7.34 10.5 7 10.16 7 9.75C7 9.34 7.34 9 7.75 9H10.75C11.16 9 11.5 9.34 11.5 9.75C11.5 10.16 11.16 10.5 10.75 10.5H10V14.25C10 14.66 9.66 15 9.25 15C8.84 15 8.5 14.66 8.5 14.25V10.5Z"
    fill="#0D0D15"
  />
  <path
    d="M14 10.5H13.25C12.84 10.5 12.5 10.16 12.5 9.75C12.5 9.34 12.84 9 13.25 9H16.25C16.66 9 17 9.34 17 9.75C17 10.16 16.66 10.5 16.25 10.5H15.5V14.25C15.5 14.66 15.16 15 14.75 15C14.34 15 14 14.66 14 14.25V10.5Z"
    fill="#0D0D15"
  />
  <path
    fill-rule="evenodd"
    clip-rule="evenodd"
    d="M19 9H21.5C22.33 9 23 9.68 23 10.5V11.5C23 12.32 22.33 13 21.5 13H19.5V14.25C19.5 14.66 19.16 15 18.75 15C18.34 15 18 14.66 18 14.25V10C18 9.45 18.45 9 19 9ZM19.5 11.5H21.5V10.5H19.5V11.5Z"
    fill="#0D0D15"
  />
</svg>
