<svg width="24" height="24" viewBox="0 0 24 24" fill="none" xmlns="http://www.w3.org/2000/svg">
  <path
    fill-rule="evenodd"
    clip-rule="evenodd"
    d="M9.44769 2.20989C9.61647 2.04111 9.84539 1.94629 10.0841 1.94629H13.9136C14.4106 1.94629 14.8136 2.34923 14.8136 2.84629L14.8136 5.72514C14.8136 7.27969 13.5534 8.53989 11.9988 8.53989C10.4443 8.53989 9.18408 7.27969 9.18408 5.72515V2.84629C9.18408 2.60759 9.2789 2.37868 9.44769 2.20989ZM10.9841 3.74629V5.72515C10.9841 6.28558 11.4384 6.73989 11.9988 6.73989C12.5593 6.73989 13.0136 6.28558 13.0136 5.72514V3.74629L10.9841 3.74629Z"
    fill="#0D0D15"
  />
  <path
    fill-rule="evenodd"
    clip-rule="evenodd"
    d="M5.17236 12.4123C5.17236 11.4083 5.9863 10.5944 6.99034 10.5944H10.6263C11.6303 10.5944 12.4443 11.4083 12.4443 12.4123V16.0483C12.4443 17.0523 11.6303 17.8663 10.6263 17.8663H6.99034C5.9863 17.8663 5.17236 17.0523 5.17236 16.0483V12.4123ZM10.6263 12.4123H6.99034V16.0483H10.6263V12.4123Z"
    fill="#0D0D15"
  />
  <path
    d="M14.7874 10.8873C14.2854 10.8873 13.8784 11.2943 13.8784 11.7963C13.8784 12.2983 14.2854 12.7053 14.7874 12.7053H18.1988C18.7008 12.7053 19.1078 12.2983 19.1078 11.7963C19.1078 11.2943 18.7008 10.8873 18.1988 10.8873H14.7874Z"
    fill="#0D0D15"
  />
  <path
    d="M13.8784 14.8685C13.8784 14.3664 14.2854 13.9595 14.7874 13.9595H18.1988C18.7008 13.9595 19.1078 14.3664 19.1078 14.8685C19.1078 15.3705 18.7008 15.7774 18.1988 15.7774H14.7874C14.2854 15.7774 13.8784 15.3705 13.8784 14.8685Z"
    fill="#0D0D15"
  />
  <path
    d="M5.27218 5.28906H7.85335V7.10704H5.27218C4.26814 7.10704 3.45421 7.92098 3.45421 8.92502V18.4175C3.45421 19.4215 4.26814 20.2354 5.27219 20.2354H18.7277C19.7317 20.2354 20.5457 19.4215 20.5457 18.4175V8.92502C20.5457 7.92098 19.7317 7.10704 18.7277 7.10704H16.1452V5.28906H18.7277C20.7358 5.28906 22.3637 6.91693 22.3637 8.92502V18.4175C22.3637 20.4255 20.7358 22.0534 18.7277 22.0534H5.27219C3.2641 22.0534 1.63623 20.4255 1.63623 18.4175V8.92502C1.63623 6.91693 3.2641 5.28906 5.27218 5.28906Z"
    fill="#0D0D15"
  />
</svg>
