<svg width="24" height="24" viewBox="0 0 24 24" fill="none" xmlns="http://www.w3.org/2000/svg">
  <path
    d="M12 7.5C12 8.32843 11.3284 9 10.5 9C9.67157 9 9 8.32843 9 7.5C9 6.67157 9.67157 6 10.5 6C11.3284 6 12 6.67157 12 7.5Z"
    fill="#0D0D15"
  />
  <path
    fill-rule="evenodd"
    clip-rule="evenodd"
    d="M20 2H8C5.79086 2 4 3.79086 4 6V14C4 16.2091 5.79086 18 8 18H20C22.2091 18 24 16.2091 24 14V6C24 3.79086 22.2091 2 20 2ZM6 6C6 4.89543 6.89543 4 8 4H20C21.1046 4 22 4.89543 22 6V11.7492L18.9112 9.73627L18.8153 9.6736C18.4197 9.41451 18.0227 9.15452 17.5731 9.0548C17.1815 8.96794 16.7747 8.97659 16.3871 9.08001C15.9422 9.19875 15.5566 9.47538 15.1723 9.75105L15.0792 9.81774L12.5736 11.6068C12.0944 11.9489 12.035 11.9763 11.9943 11.9888C11.9257 12.0099 11.8533 12.0159 11.7821 12.0065C11.7399 12.001 11.6768 11.9838 11.1474 11.7262L10.6191 11.4691L10.5359 11.4285C10.1873 11.258 9.83663 11.0866 9.45529 11.0286C9.12241 10.9779 8.78273 10.9951 8.45664 11.079C8.08307 11.1751 7.75148 11.381 7.42179 11.5857L7.34315 11.6345L6 12.465V6ZM6.13787 14.7312C6.4298 15.4741 7.15349 16 8 16H20C21.0597 16 21.9269 15.1758 21.9956 14.1335L17.8192 11.4119C17.2566 11.0452 17.1859 11.0175 17.14 11.0073C17.0617 10.99 16.9803 10.9917 16.9028 11.0124C16.8573 11.0245 16.7879 11.0552 16.2414 11.4454L13.7357 13.2344L13.6545 13.2926C13.3158 13.5355 12.9753 13.7796 12.5819 13.9005C12.2387 14.006 11.8768 14.0363 11.5208 13.9894C11.1127 13.9356 10.7364 13.7515 10.362 13.5684L10.2722 13.5246L9.74388 13.2674C9.25228 13.0282 9.19425 13.0119 9.15462 13.0058C9.08805 12.9957 9.02011 12.9991 8.95489 13.0159C8.91607 13.0259 8.85999 13.048 8.39497 13.3355L6.13787 14.7312Z"
    fill="#0D0D15"
  />
  <path
    d="M0 12C0 11.4477 0.447715 11 1 11C1.55228 11 2 11.4477 2 12V17C2 18.6569 3.34315 20 5 20H12C12.5523 20 13 20.4477 13 21C13 21.5523 12.5523 22 12 22H5C2.23858 22 0 19.7614 0 17V12Z"
    fill="#0D0D15"
  />
</svg>
