<svg width="24" height="24" viewBox="0 0 24 24" fill="none" xmlns="http://www.w3.org/2000/svg">
  <path
    d="M20.6078 15.5374C19.7097 16.4804 18.5159 17 17.2489 17C15.9819 17 14.7879 16.4804 13.8899 15.5373L13.431 15.0554L14.924 13.5151L15.3605 13.9735C15.8638 14.5021 16.5331 14.7932 17.2489 14.7932C17.9622 14.7932 18.6318 14.5022 19.1351 13.9735C20.1728 12.8837 20.1728 11.1163 19.1351 10.0265C18.6318 9.49785 17.9622 9.20683 17.2489 9.20683C16.5333 9.20683 15.8638 9.49791 15.3605 10.0265L13.9361 11.5225L13.3382 12.1526L10.1133 15.5373C9.21532 16.4804 8.02132 17 6.75432 17C5.48732 17 4.29332 16.4804 3.39538 15.5373C2.49726 14.5939 2 13.3369 2 12C2 10.6631 2.49724 9.40592 3.39538 8.46265C4.29332 7.51961 5.48732 7 6.75432 7C8.02132 7 9.21532 7.51961 10.1133 8.46265L10.564 8.93602L9.04792 10.4521L8.64266 10.0265C8.13938 9.49791 7.46989 9.20683 6.75432 9.20683C6.04095 9.20683 5.37142 9.49785 4.8681 10.0265C4.36279 10.5572 4.08825 11.2571 4.08825 12C4.08825 12.7432 4.36298 13.445 4.86754 13.9707L4.86838 13.9716C5.37161 14.5022 6.04098 14.7932 6.75432 14.7932C7.46989 14.7932 8.13938 14.5021 8.64266 13.9735L10.0671 12.4775L10.665 11.8474L11.8652 10.5868L12.4652 9.95894L13.8899 8.46265C14.7881 7.51964 15.9819 7 17.2489 7C18.5159 7 19.7099 7.51961 20.6078 8.46265C22.4641 10.4122 22.4641 13.5878 20.6078 15.5374Z"
    fill="#0D0D15"
  />
</svg>
