<svg width="24" height="24" viewBox="0 0 24 24" fill="none" xmlns="http://www.w3.org/2000/svg">
  <path
    d="M10.3079 3.1499C9.83841 3.1499 9.45786 3.53046 9.45786 3.9999C9.45786 4.46934 9.83841 4.8499 10.3079 4.8499H13.6819C14.1513 4.8499 14.5319 4.46934 14.5319 3.9999C14.5319 3.53046 14.1513 3.1499 13.6819 3.1499H10.3079Z"
    fill="black"
  />
  <path
    d="M9.15839 9.11581C9.49033 8.78386 10.0285 8.78387 10.3605 9.11581L12.6508 11.4061C12.9827 11.7381 12.9827 12.2763 12.6507 12.6082L10.3605 14.8985C10.0285 15.2304 9.49033 15.2304 9.15838 14.8985C8.82644 14.5665 8.82644 14.0283 9.15838 13.6964L9.99759 12.8572L2.77139 12.8572C2.30194 12.8572 1.92139 12.4766 1.92139 12.0072C1.92139 11.5378 2.30194 11.1572 2.77139 11.1572L9.99768 11.1572L9.15838 10.3179C8.82644 9.98594 8.82644 9.44775 9.15839 9.11581Z"
    fill="black"
  />
  <path
    d="M21.2284 9.8071C21.6979 9.8071 22.0784 10.1877 22.0784 10.6571V13.3572C22.0784 13.8267 21.6979 14.2072 21.2284 14.2072C20.759 14.2072 20.3784 13.8267 20.3784 13.3572V10.6571C20.3784 10.1877 20.759 9.8071 21.2284 9.8071Z"
    fill="black"
  />
  <path
    d="M10.3079 20.8499C9.83841 20.8499 9.45786 20.4693 9.45786 19.9999C9.45786 19.5305 9.83841 19.1499 10.3079 19.1499H13.6819C14.1513 19.1499 14.5319 19.5305 14.5319 19.9999C14.5319 20.4693 14.1513 20.8499 13.6819 20.8499H10.3079Z"
    fill="black"
  />
  <path
    d="M1.92139 6.02709C1.92139 4.45308 3.19737 3.17709 4.77139 3.17709H6.32134C6.79078 3.17709 7.17134 3.55765 7.17134 4.02709C7.17134 4.49654 6.79078 4.87709 6.32134 4.87709H4.77139C4.13626 4.87709 3.62139 5.39197 3.62139 6.02709V7.34357C3.62139 7.81301 3.24083 8.19357 2.77139 8.19357C2.30194 8.19357 1.92139 7.81301 1.92139 7.34357V6.02709Z"
    fill="black"
  />
  <path
    d="M4.77139 20.8227C3.19737 20.8227 1.92139 19.5467 1.92139 17.9727V16.6562C1.92139 16.1868 2.30194 15.8062 2.77139 15.8062C3.24083 15.8062 3.62139 16.1868 3.62139 16.6562V17.9727C3.62139 18.6078 4.13626 19.1227 4.77139 19.1227H6.32134C6.79078 19.1227 7.17134 19.5033 7.17134 19.9727C7.17134 20.4422 6.79078 20.8227 6.32134 20.8227H4.77139Z"
    fill="black"
  />
  <path
    d="M22.0784 6.02709C22.0784 4.45308 20.8024 3.17709 19.2284 3.17709H17.6785C17.209 3.17709 16.8285 3.55765 16.8285 4.02709C16.8285 4.49654 17.209 4.87709 17.6785 4.87709H19.2284C19.8636 4.87709 20.3784 5.39197 20.3784 6.02709V7.34357C20.3784 7.81301 20.759 8.19357 21.2284 8.19357C21.6979 8.19357 22.0784 7.81301 22.0784 7.34357V6.02709Z"
    fill="black"
  />
  <path
    d="M19.2284 20.8227C20.8024 20.8227 22.0784 19.5467 22.0784 17.9727V16.6562C22.0784 16.1868 21.6979 15.8062 21.2284 15.8062C20.759 15.8062 20.3784 16.1868 20.3784 16.6562V17.9727C20.3784 18.6078 19.8636 19.1227 19.2284 19.1227H17.6785C17.209 19.1227 16.8285 19.5033 16.8285 19.9727C16.8285 20.4422 17.209 20.8227 17.6785 20.8227H19.2284Z"
    fill="black"
  />
</svg>
