<svg width="24" height="24" viewBox="0 0 24 24" fill="none" xmlns="http://www.w3.org/2000/svg">
  <path
    d="M7.45001 9.8404C7.20001 9.8404 7.01001 9.66041 7 9.42042C7 9.18043 7.19 8.99037 7.44 9.00038C7.69 9.00038 7.88 9.18043 7.88 9.42042C7.89001 9.65046 7.70001 9.8404 7.45001 9.8404Z"
    fill="#0D0D15"
  />
  <path
    d="M17.0599 10.4304H16.77C16.73 10.4304 16.71 10.4204 16.71 10.3804C16.62 9.98036 16.26 9.79036 15.9 9.75038C15.68 9.73036 15.46 9.75038 15.2499 9.8304C15.04 9.92036 14.8799 10.0604 14.83 10.2904C14.77 10.5604 14.89 10.7704 15.15 10.9004C15.3359 10.9934 15.5399 11.0443 15.7433 11.0951C15.8024 11.1099 15.8615 11.1246 15.92 11.1404C15.9633 11.1516 16.0066 11.1626 16.0499 11.1736L16.0515 11.174C16.2774 11.2312 16.5021 11.2882 16.72 11.3804C17.33 11.6404 17.56 12.1004 17.45 12.7404C17.37 13.2404 17.07 13.5803 16.6 13.7504C15.99 13.9804 15.37 13.9804 14.77 13.7104C14.31 13.5004 14.04 13.1404 13.98 12.6304C13.97 12.5704 13.9899 12.5604 14.0499 12.5604H14.6199C14.6699 12.5604 14.6899 12.5704 14.7 12.6204C14.7599 12.8903 14.9399 13.0704 15.1899 13.1604C15.5599 13.3004 15.9399 13.3104 16.3099 13.1604C16.52 13.0804 16.6899 12.9404 16.7499 12.7104C16.8199 12.4404 16.69 12.1904 16.41 12.0404C16.224 11.9475 16.02 11.8965 15.8166 11.8457L15.7409 11.8267C15.7072 11.8182 15.6735 11.8095 15.64 11.8004L15.5372 11.776C15.2817 11.7153 15.0281 11.655 14.79 11.5404C14.42 11.3604 14.1799 11.0904 14.1199 10.6704C14.03 10.0304 14.34 9.48042 14.9399 9.24043C15.5099 9.0204 16.09 9.0204 16.65 9.28041C17.09 9.49037 17.35 9.8404 17.41 10.3304C17.4155 10.3632 17.412 10.3811 17.3979 10.3905C17.3862 10.3983 17.3672 10.4004 17.34 10.4004C17.25 10.4304 17.15 10.4304 17.0599 10.4304Z"
    fill="#0D0D15"
  />
  <path
    fill-rule="evenodd"
    clip-rule="evenodd"
    d="M9.21014 10.2205C8.99017 10.6405 8.92017 11.0905 8.92017 11.5205C8.92017 11.9505 8.9801 12.3505 9.13013 12.7205C9.32013 13.1705 9.62012 13.5205 10.0601 13.7305C10.5801 13.9805 11.1102 14.0104 11.6602 13.8804C12.3301 13.7205 12.7802 13.3104 13.0201 12.6804C13.3101 11.9105 13.3001 11.1304 13.0001 10.3704C12.8201 9.92048 12.5101 9.58046 12.0701 9.37043C11.5501 9.12043 11.0101 9.09053 10.4601 9.23048C9.89014 9.3705 9.48016 9.70051 9.21014 10.2205ZM9.70013 12.0604C9.6701 11.8905 9.65015 11.7205 9.65015 11.5505C9.66016 11.1705 9.72015 10.7905 9.91016 10.4605C10.1501 10.0605 10.5001 9.85048 10.9601 9.82045C11.3502 9.79048 11.7001 9.89051 11.9901 10.1605C12.2401 10.3905 12.3701 10.6805 12.4301 11.0004C12.5201 11.4605 12.5101 11.9205 12.3502 12.3704C12.1802 12.8204 11.8801 13.1405 11.4001 13.2405C10.7101 13.3905 10.0602 13.1005 9.79016 12.3704C9.75018 12.2705 9.72015 12.1705 9.70013 12.0604Z"
    fill="#0D0D15"
  />
  <path
    d="M7.84003 13.8505V12.3305C7.84003 12.0327 7.84003 11.7382 7.84192 11.4433C7.84271 11.32 7.84381 11.1967 7.8454 11.0729C7.84662 10.9757 7.84814 10.8782 7.85004 10.7805C7.85004 10.758 7.84723 10.7426 7.84113 10.732C7.83087 10.7144 7.81134 10.7105 7.78003 10.7105H7.11005C7.05005 10.7105 7.04004 10.7305 7.04004 10.7805V13.8505C7.04004 13.9105 7.06006 13.9205 7.11005 13.9205H7.77002C7.83002 13.9305 7.84003 13.9105 7.84003 13.8505Z"
    fill="#0D0D15"
  />
  <path
    fill-rule="evenodd"
    clip-rule="evenodd"
    d="M16.5 3H7.5C5.01472 3 3 5.01472 3 7.5V16.5C3 18.9853 5.01472 21 7.5 21H16.5C18.9853 21 21 18.9853 21 16.5V7.5C21 5.01472 18.9853 3 16.5 3ZM4.5 7.5C4.5 5.84315 5.84315 4.5 7.5 4.5H16.5C18.1569 4.5 19.5 5.84315 19.5 7.5V16.5C19.5 18.1569 18.1569 19.5 16.5 19.5H7.5C5.84315 19.5 4.5 18.1569 4.5 16.5V7.5Z"
    fill="#0D0D15"
  />
</svg>
