<svg width="24" height="24" viewBox="0 0 24 24" fill="none" xmlns="http://www.w3.org/2000/svg">
  <path
    d="M8 9C8.55229 9 9 8.55229 9 8C9 7.44772 8.55229 7 8 7C7.44772 7 7 7.44772 7 8C7 8.55229 7.44772 9 8 9Z"
    fill="#0D0D15"
  />
  <path
    fill-rule="evenodd"
    clip-rule="evenodd"
    d="M4.75723 13.2431C6.3632 14.8481 8.65217 15.3541 10.6881 14.7591L12.0001 16.2071V17.9C12.0001 18.508 12.4921 19 13.1001 19H14.2191L14.5111 20.167C14.6331 20.657 15.0731 21 15.5781 21H19.9C20.508 21 21 20.508 21 19.9V17.0421C21 16.7501 20.884 16.4701 20.678 16.2641L14.8311 10.4171C15.3071 8.45117 14.7771 6.2922 13.2431 4.75723C10.9001 2.41426 7.10119 2.41426 4.75723 4.75723C2.41426 7.10119 2.41426 10.9001 4.75723 13.2431ZM19 17.414L12.5211 10.9001C13.3401 9.38416 13.1091 7.45219 11.8281 6.17221C10.2661 4.60923 7.73418 4.60923 6.17221 6.17221C4.60923 7.73418 4.60923 10.2661 6.17221 11.8281C7.52719 13.1831 9.61216 13.3631 11.1601 12.3681L13.6351 14.8371C13.8421 15.0431 13.9571 15.3231 13.9571 15.6141L14.0001 17.0001H14.9221C15.4271 17.0001 15.8671 17.3441 15.9891 17.833L16.2811 19H19V17.414Z"
    fill="#0D0D15"
  />
</svg>
