<svg width="24" height="24" viewBox="0 0 24 24" fill="none" xmlns="http://www.w3.org/2000/svg">
  <path
    d="M5.5 9.00195C5.22386 9.00195 5 9.22581 5 9.50195V10.502C5 10.7781 5.22386 11.002 5.5 11.002H6.5C6.77614 11.002 7 10.7781 7 10.502V9.50195C7 9.22581 6.77614 9.00195 6.5 9.00195H5.5Z"
    fill="#0D0D15"
  />
  <path
    d="M5 13.502C5 13.2258 5.22386 13.002 5.5 13.002H6.5C6.77614 13.002 7 13.2258 7 13.502V14.502C7 14.7781 6.77614 15.002 6.5 15.002H5.5C5.22386 15.002 5 14.7781 5 14.502V13.502Z"
    fill="#0D0D15"
  />
  <path
    d="M9.5 9.00195C9.22386 9.00195 9 9.22581 9 9.50195V10.502C9 10.7781 9.22386 11.002 9.5 11.002H10.5C10.7761 11.002 11 10.7781 11 10.502V9.50195C11 9.22581 10.7761 9.00195 10.5 9.00195H9.5Z"
    fill="#0D0D15"
  />
  <path
    d="M9 13.502C9 13.2258 9.22386 13.002 9.5 13.002H14.5C14.7761 13.002 15 13.2258 15 13.502V14.502C15 14.7781 14.7761 15.002 14.5 15.002H9.5C9.22386 15.002 9 14.7781 9 14.502V13.502Z"
    fill="#0D0D15"
  />
  <path
    d="M13.5 9.00195C13.2239 9.00195 13 9.22581 13 9.50195V10.502C13 10.7781 13.2239 11.002 13.5 11.002H14.5C14.7761 11.002 15 10.7781 15 10.502V9.50195C15 9.22581 14.7761 9.00195 14.5 9.00195H13.5Z"
    fill="#0D0D15"
  />
  <path
    d="M17 9.50195C17 9.22581 17.2239 9.00195 17.5 9.00195H18.5C18.7761 9.00195 19 9.22581 19 9.50195V10.502C19 10.7781 18.7761 11.002 18.5 11.002H17.5C17.2239 11.002 17 10.7781 17 10.502V9.50195Z"
    fill="#0D0D15"
  />
  <path
    d="M17.5 13.002C17.2239 13.002 17 13.2258 17 13.502V14.502C17 14.7781 17.2239 15.002 17.5 15.002H18.5C18.7761 15.002 19 14.7781 19 14.502V13.502C19 13.2258 18.7761 13.002 18.5 13.002H17.5Z"
    fill="#0D0D15"
  />
  <path
    fill-rule="evenodd"
    clip-rule="evenodd"
    d="M5 5.00195C2.79086 5.00195 1 6.79281 1 9.00195V15.002C1 17.2111 2.79086 19.002 5 19.002H19C21.2091 19.002 23 17.2111 23 15.002V9.00195C23 6.79281 21.2091 5.00195 19 5.00195H5ZM3 9.00195C3 7.89738 3.89543 7.00195 5 7.00195H19C20.1046 7.00195 21 7.89738 21 9.00195V15.002C21 16.1065 20.1046 17.002 19 17.002H5C3.89543 17.002 3 16.1065 3 15.002V9.00195Z"
    fill="#0D0D15"
  />
</svg>
