<svg width="24" height="24" viewBox="0 0 24 24" fill="none" xmlns="http://www.w3.org/2000/svg">
  <path
    d="M9.29289 3.70906C8.90237 3.31854 8.90237 2.68537 9.29289 2.29485C9.68342 1.90432 10.3166 1.90432 10.7071 2.29485L12 3.58774L13.2929 2.29485C13.6834 1.90432 14.3166 1.90432 14.7071 2.29485C15.0976 2.68537 15.0976 3.31854 14.7071 3.70906L12.7071 5.70906C12.3166 6.09958 11.6834 6.09958 11.2929 5.70906L9.29289 3.70906Z"
    fill="#0D0D15"
  />
  <path
    d="M5 12.502C5 12.2258 5.22386 12.002 5.5 12.002H6.5C6.77614 12.002 7 12.2258 7 12.502V13.502C7 13.7781 6.77614 14.002 6.5 14.002H5.5C5.22386 14.002 5 13.7781 5 13.502V12.502Z"
    fill="#0D0D15"
  />
  <path
    d="M5.5 16.002C5.22386 16.002 5 16.2258 5 16.502V17.502C5 17.7781 5.22386 18.002 5.5 18.002H6.5C6.77614 18.002 7 17.7781 7 17.502V16.502C7 16.2258 6.77614 16.002 6.5 16.002H5.5Z"
    fill="#0D0D15"
  />
  <path
    d="M9 12.502C9 12.2258 9.22386 12.002 9.5 12.002H10.5C10.7761 12.002 11 12.2258 11 12.502V13.502C11 13.7781 10.7761 14.002 10.5 14.002H9.5C9.22386 14.002 9 13.7781 9 13.502V12.502Z"
    fill="#0D0D15"
  />
  <path
    d="M9.5 16.002C9.22386 16.002 9 16.2258 9 16.502V17.502C9 17.7781 9.22386 18.002 9.5 18.002H14.5C14.7761 18.002 15 17.7781 15 17.502V16.502C15 16.2258 14.7761 16.002 14.5 16.002H9.5Z"
    fill="#0D0D15"
  />
  <path
    d="M13 12.502C13 12.2258 13.2239 12.002 13.5 12.002H14.5C14.7761 12.002 15 12.2258 15 12.502V13.502C15 13.7781 14.7761 14.002 14.5 14.002H13.5C13.2239 14.002 13 13.7781 13 13.502V12.502Z"
    fill="#0D0D15"
  />
  <path
    d="M17.5 12.002C17.2239 12.002 17 12.2258 17 12.502V13.502C17 13.7781 17.2239 14.002 17.5 14.002H18.5C18.7761 14.002 19 13.7781 19 13.502V12.502C19 12.2258 18.7761 12.002 18.5 12.002H17.5Z"
    fill="#0D0D15"
  />
  <path
    d="M17 16.502C17 16.2258 17.2239 16.002 17.5 16.002H18.5C18.7761 16.002 19 16.2258 19 16.502V17.502C19 17.7781 18.7761 18.002 18.5 18.002H17.5C17.2239 18.002 17 17.7781 17 17.502V16.502Z"
    fill="#0D0D15"
  />
  <path
    fill-rule="evenodd"
    clip-rule="evenodd"
    d="M1 12.002C1 9.79281 2.79086 8.00195 5 8.00195H19C21.2091 8.00195 23 9.79281 23 12.002V18.002C23 20.2111 21.2091 22.002 19 22.002H5C2.79086 22.002 1 20.2111 1 18.002V12.002ZM5 10.002C3.89543 10.002 3 10.8974 3 12.002V18.002C3 19.1065 3.89543 20.002 5 20.002H19C20.1046 20.002 21 19.1065 21 18.002V12.002C21 10.8974 20.1046 10.002 19 10.002H5Z"
    fill="#0D0D15"
  />
</svg>
