<svg width="24" height="24" viewBox="0 0 24 24" fill="none" xmlns="http://www.w3.org/2000/svg">
  <path
    d="M10 18C10 17.4477 10.4477 17 11 17H13C13.5523 17 14 17.4477 14 18C14 18.5523 13.5523 19 13 19H11C10.4477 19 10 18.5523 10 18Z"
    fill="#0D0D15"
  />
  <path
    fill-rule="evenodd"
    clip-rule="evenodd"
    d="M12.8835 6.20257C12.3265 5.93248 11.6735 5.93248 11.1165 6.20257L8.74797 7.351C8.3013 7.56758 8 8.02222 8 8.53993L8 10.4794C8 12.7614 9.8 14.2885 11.3077 14.871C11.7529 15.043 12.2471 15.043 12.6923 14.871C14.2 14.2885 16 12.7614 16 10.4794V8.53993C16 8.02222 15.6987 7.56758 15.252 7.351L12.8835 6.20257ZM11.9891 8.00218C11.9912 8.00117 11.9949 8 12 8C12.0051 8 12.0088 8.00117 12.0109 8.00218L14 8.96663V10.4794C14 11.6041 13.0754 12.5682 12 12.9943C10.9246 12.5682 10 11.6041 10 10.4794L10 8.96663L11.9891 8.00218Z"
    fill="#0D0D15"
  />
  <path
    fill-rule="evenodd"
    clip-rule="evenodd"
    d="M8 2H16C17.6569 2 19 3.34315 19 5V19C19 20.6569 17.6569 22 16 22H8C6.34315 22 5 20.6569 5 19V5C5 3.34315 6.34315 2 8 2ZM8 4C7.44772 4 7 4.44772 7 5V19C7 19.5523 7.44772 20 8 20H16C16.5523 20 17 19.5523 17 19V5C17 4.44772 16.5523 4 16 4H8Z"
    fill="#0D0D15"
  />
</svg>
