<svg width="24" height="24" viewBox="0 0 24 24" fill="none" xmlns="http://www.w3.org/2000/svg">
  <path
    fill-rule="evenodd"
    clip-rule="evenodd"
    d="M18.9307 11.6423L14.0914 15.2944C12.8587 16.2351 11.1411 16.2311 9.91378 15.3052L5.06325 11.6447C3.64558 10.5663 3.64558 8.44131 5.06325 7.3629L5.06789 7.35938L9.91849 3.69182L9.9247 3.6872C11.1515 2.77444 12.8525 2.7647 14.0862 3.69538L18.9368 7.35595C20.3544 8.43436 20.3544 10.5593 18.9368 11.6377L18.9307 11.6423ZM12.8815 13.7019L17.7259 10.0459C18.0914 9.7679 18.0914 9.22577 17.7259 8.94775L12.8815 5.2918C12.3655 4.90257 11.6417 4.90257 11.1185 5.2918L6.27411 8.9547C5.90863 9.23272 5.90863 9.77485 6.27411 10.0529L11.1185 13.7088C11.6345 14.098 12.3655 14.098 12.8815 13.7019Z"
    fill="#0D0D15"
  />
  <path
    d="M4.59976 16.0101C4.18674 15.6747 4.12381 15.068 4.4592 14.6549C4.7946 14.2419 5.40131 14.179 5.81434 14.5144L8.26055 16.5008L10.9716 18.6442C11.2726 18.8821 11.6363 19.001 12 18.9999C12.3637 19.001 12.7274 18.8821 13.0284 18.6442L15.7395 16.5008L18.1857 14.5144C18.5987 14.179 19.2054 14.2419 19.5408 14.6549C19.8762 15.068 19.8133 15.6747 19.4002 16.0101C19.1324 16.2276 18.8645 16.4449 18.5965 16.6622L18.5946 16.6638L18.5927 16.6653C17.1447 17.8398 15.6962 19.0146 14.2688 20.2131C13.6052 20.7375 12.8029 21.0007 12 20.9998C11.1971 21.0007 10.3948 20.7375 9.73123 20.2131C8.30373 19.0145 6.85531 17.8398 5.40727 16.6653L5.4042 16.6628C5.13623 16.4455 4.86757 16.2275 4.59976 16.0101Z"
    fill="#0D0D15"
  />
</svg>
