<svg width="24" height="24" viewBox="0 0 24 24" fill="none" xmlns="http://www.w3.org/2000/svg">
  <path
    d="M17 2H7C5.34315 2 4 3.34315 4 5V19C4 20.6569 5.34314 22 7 22H12V20H7C6.44772 20 6 19.5523 6 19V5C6 4.44772 6.44772 4 7 4H17C17.5523 4 18 4.44772 18 5C18.695 5 19.3663 5.10128 20 5.28988V5C20 3.34315 18.6569 2 17 2Z"
    fill="#0D0D15"
  />
  <path
    fill-rule="evenodd"
    clip-rule="evenodd"
    d="M23.5 12.4646C23.5 13.9261 22.9299 15.2545 22 16.2395V23C22 23.5523 21.5523 24 21 24C20.7565 24 20.5327 23.9136 20.3592 23.7689L20.3524 23.7621C20.3113 23.7271 20.273 23.6888 20.238 23.6476L18 21.4096L15.762 23.6476C15.727 23.6888 15.6887 23.7271 15.6476 23.7621L15.6408 23.7689C15.4673 23.9136 15.2435 24 15 24C14.4477 24 14 23.5523 14 23V16.2395C13.0701 15.2545 12.5 13.9261 12.5 12.4646C12.5 9.42703 14.9624 6.9646 18 6.9646C21.0376 6.9646 23.5 9.42703 23.5 12.4646ZM18 17.9646C18.7056 17.9646 19.3801 17.8317 20 17.5897V20.5812L18.667 19.2482L18.6634 19.2518C18.6545 19.2438 18.6453 19.236 18.6361 19.2284C18.4632 19.0857 18.2416 19 18 19C17.7454 19 17.5131 19.0952 17.3366 19.2518L17.333 19.2482L16 20.5812V17.5897C16.6199 17.8317 17.2944 17.9646 18 17.9646ZM18 15.9646C19.933 15.9646 21.5 14.3976 21.5 12.4646C21.5 10.5316 19.933 8.9646 18 8.9646C16.067 8.9646 14.5 10.5316 14.5 12.4646C14.5 14.3976 16.067 15.9646 18 15.9646Z"
    fill="#0D0D15"
  />
</svg>
