<svg width="24" height="24" viewBox="0 0 24 24" fill="none" xmlns="http://www.w3.org/2000/svg">
  <path
    d="M17 17C17 18.1046 16.1046 19 15 19C13.8954 19 13 18.1046 13 17C13 15.8954 13.8954 15 15 15C16.1046 15 17 15.8954 17 17Z"
    fill="#0D0D15"
  />
  <path
    d="M9 6C8.44772 6 8 6.44772 8 7C8 7.55228 8.44772 8 9 8H15C15.5523 8 16 7.55228 16 7C16 6.44772 15.5523 6 15 6H9Z"
    fill="#0D0D15"
  />
  <path
    d="M9 10C8.44772 10 8 10.4477 8 11C8 11.5523 8.44772 12 9 12H13C13.5523 12 14 11.5523 14 11C14 10.4477 13.5523 10 13 10H9Z"
    fill="#0D0D15"
  />
  <path
    d="M8 15C8 14.4477 8.44772 14 9 14H10C10.5523 14 11 14.4477 11 15C11 15.5523 10.5523 16 10 16H9C8.44772 16 8 15.5523 8 15Z"
    fill="#0D0D15"
  />
  <path
    fill-rule="evenodd"
    clip-rule="evenodd"
    d="M8 2H16C18.2091 2 20 3.79086 20 6V18C20 20.2091 18.2091 22 16 22H8C5.79086 22 4 20.2091 4 18V6C4 3.79086 5.79086 2 8 2ZM8 4C6.89543 4 6 4.89543 6 6V18C6 19.1046 6.89543 20 8 20H16C17.1046 20 18 19.1046 18 18V6C18 4.89543 17.1046 4 16 4H8Z"
    fill="#0D0D15"
  />
</svg>
