<svg width="24" height="24" viewBox="0 0 24 24" fill="none" xmlns="http://www.w3.org/2000/svg">
  <path
    fill-rule="evenodd"
    clip-rule="evenodd"
    d="M17 13.899C18.2372 12.6364 19 10.9073 19 9C19 5.13401 15.866 2 12 2C8.13401 2 5 5.13401 5 9C5 10.9073 5.76281 12.6364 7 13.899V21.1973C7 21.5017 7.22136 21.7791 7.57125 21.9155C7.92114 22.0511 8.34005 22.0219 8.65265 21.8392L12 19.8888L15.3474 21.8392C15.6599 22.0219 16.0789 22.0511 16.4288 21.9155C16.7786 21.7791 17 21.5017 17 21.1973V13.899ZM14.9953 15.3286C14.0872 15.7591 13.0717 16 12 16C10.9523 16 9.95838 15.7698 9.06601 15.3573V19.5921L11.3804 18.2435C11.7477 18.0293 12.2523 18.0293 12.6196 18.2435L14.934 19.5921L14.9953 15.3286ZM17 9C17 11.7614 14.7614 14 12 14C9.23858 14 7 11.7614 7 9C7 6.23858 9.23858 4 12 4C14.7614 4 17 6.23858 17 9Z"
    fill="#0D0D15"
  />
</svg>
