<svg width="24" height="24" viewBox="0 0 24 24" fill="none" xmlns="http://www.w3.org/2000/svg">
  <path
    d="M14.0253 1.93115C14.0253 1.37887 13.5776 0.931152 13.0253 0.931152C12.473 0.931152 12.0253 1.37887 12.0253 1.93115V3.07756C12.0253 3.62984 12.473 4.07756 13.0253 4.07756C13.5776 4.07756 14.0253 3.62984 14.0253 3.07756V1.93115Z"
    fill="#0D0D15"
  />
  <path
    fill-rule="evenodd"
    clip-rule="evenodd"
    d="M19.7402 12.0173C19.7402 8.29843 16.7254 5.28372 13.0066 5.28372C9.28779 5.28372 6.27308 8.29843 6.27308 12.0173C6.27308 15.7361 9.28779 18.7508 13.0066 18.7508C16.7254 18.7508 19.7402 15.7361 19.7402 12.0173ZM17.7402 12.0173C17.7402 9.75272 16.15 7.85959 14.0253 7.39361V16.6409C16.15 16.1749 17.7402 14.2818 17.7402 12.0173ZM8.27308 12.0173C8.27308 14.2951 9.88196 16.1971 12.0253 16.649V7.38557C9.88196 7.83742 8.27308 9.73945 8.27308 12.0173Z"
    fill="#0D0D15"
  />
  <path
    d="M13.0292 19.9222C13.5815 19.9222 14.0292 20.37 14.0292 20.9222V22.0686C14.0292 22.6209 13.5815 23.0686 13.0292 23.0686C12.4769 23.0686 12.0292 22.6209 12.0292 22.0686V20.9222C12.0292 20.37 12.4769 19.9222 13.0292 19.9222Z"
    fill="#0D0D15"
  />
  <path
    d="M6.58413 4.17253C6.19361 3.78201 5.56044 3.78201 5.16992 4.17253C4.77939 4.56306 4.77939 5.19622 5.16992 5.58675L5.98055 6.39738C6.37107 6.7879 7.00424 6.7879 7.39476 6.39738C7.78528 6.00685 7.78528 5.37369 7.39476 4.98316L6.58413 4.17253Z"
    fill="#0D0D15"
  />
  <path
    d="M7.4393 17.6026C7.04877 17.212 6.41561 17.212 6.02508 17.6026L5.21445 18.4132C4.82393 18.8037 4.82393 19.4369 5.21445 19.8274C5.60498 20.2179 6.23814 20.2179 6.62867 19.8274L7.4393 19.0168C7.82982 18.6262 7.82982 17.9931 7.4393 17.6026Z"
    fill="#0D0D15"
  />
  <path
    d="M4.06828 11.0209C4.62056 11.0209 5.06828 11.4686 5.06828 12.0209C5.06828 12.5732 4.62056 13.0209 4.06828 13.0209H2.92188C2.36959 13.0209 1.92188 12.5732 1.92188 12.0209C1.92188 11.4687 2.36959 11.0209 2.92188 11.0209H4.06828Z"
    fill="#0D0D15"
  />
</svg>
