<svg width="24" height="24" viewBox="0 0 24 24" fill="none" xmlns="http://www.w3.org/2000/svg">
  <path
    d="M15.6955 14.1473C15.305 13.7568 15.305 13.1236 15.6955 12.7331L17.9592 10.4694C19.2104 9.21822 19.2104 7.18961 17.9592 5.93841C16.708 4.6872 14.6794 4.6872 13.4282 5.93841L11.1645 8.20209C10.774 8.59262 10.1408 8.59262 9.75031 8.20209C9.35979 7.81157 9.35979 7.1784 9.75031 6.78788L12.014 4.52419C14.0463 2.49194 17.3412 2.49194 19.3734 4.52419C21.4057 6.55645 21.4057 9.85139 19.3734 11.8836L17.1098 14.1473C16.7192 14.5379 16.0861 14.5379 15.6955 14.1473Z"
    fill="#0D0D15"
  />
  <path
    d="M14.1473 15.6955C13.7568 15.305 13.1236 15.305 12.7331 15.6955L10.4694 17.9592C9.21822 19.2104 7.18961 19.2104 5.93841 17.9592C4.6872 16.708 4.6872 14.6794 5.9384 13.4282L8.20209 11.1645C8.59262 10.774 8.59262 10.1408 8.20209 9.75031C7.81157 9.35979 7.1784 9.35979 6.78788 9.75031L4.52419 12.014C2.49194 14.0463 2.49194 17.3412 4.52419 19.3734C6.55645 21.4057 9.85139 21.4057 11.8836 19.3734L14.1473 17.1098C14.5379 16.7192 14.5379 16.0861 14.1473 15.6955Z"
    fill="#0D0D15"
  />
  <path
    d="M14.8938 8.82762C15.2843 9.21815 15.2843 9.85131 14.8938 10.2418L10.4192 14.7164C10.0287 15.1069 9.39555 15.1069 9.00503 14.7164C8.6145 14.3258 8.6145 13.6927 9.00503 13.3021L13.4796 8.82762C13.8701 8.4371 14.5032 8.4371 14.8938 8.82762Z"
    fill="#0D0D15"
  />
</svg>
