<svg width="24" height="24" viewBox="0 0 24 24" fill="none" xmlns="http://www.w3.org/2000/svg">
  <path
    d="M6.70312 7.70361C6.70312 7.15133 7.15084 6.70361 7.70313 6.70361H9.69793C10.2502 6.70361 10.6979 6.2559 10.6979 5.70361C10.6979 5.15133 10.2502 4.70361 9.69793 4.70361H7.70313C6.04627 4.70361 4.70312 6.04676 4.70312 7.70361V16.2965C4.70312 17.9533 6.04627 19.2965 7.70313 19.2965H16.296C17.9528 19.2965 19.296 17.9533 19.296 16.2965V14.1019C19.296 13.5496 18.8483 13.1019 18.296 13.1019C17.7437 13.1019 17.296 13.5496 17.296 14.1019V16.2965C17.296 16.8487 16.8483 17.2965 16.296 17.2965H7.70313C7.15084 17.2965 6.70312 16.8487 6.70312 16.2965V7.70361Z"
    fill="#0D0D15"
  />
  <path
    d="M12.5703 5.70361C12.5703 5.15133 13.018 4.70361 13.5703 4.70361H18.2969C18.8492 4.70361 19.2969 5.15133 19.2969 5.70361V10.2172C19.2969 10.7695 18.8492 11.2172 18.2969 11.2172C17.7446 11.2172 17.2969 10.7695 17.2969 10.2172V8.29348L12.6622 12.9281C12.2717 13.3187 11.6385 13.3187 11.248 12.9281C10.8574 12.5376 10.8574 11.9044 11.248 11.5139L16.0583 6.70361H13.5703C13.018 6.70361 12.5703 6.2559 12.5703 5.70361Z"
    fill="#0D0D15"
  />
</svg>
  