<svg width="24" height="24" viewBox="0 0 24 24" fill="none" xmlns="http://www.w3.org/2000/svg">
  <path
    d="M7.5 7C7.22386 7 7 7.22386 7 7.5V9.5C7 9.77614 7.22386 10 7.5 10H8.5C8.77614 10 9 9.77614 9 9.5V7.5C9 7.22386 8.77614 7 8.5 7H7.5Z"
    fill="#0D0D15"
  />
  <path
    d="M15 7.5C15 7.22386 15.2239 7 15.5 7H16.5C16.7761 7 17 7.22386 17 7.5V9.5C17 9.77614 16.7761 10 16.5 10H15.5C15.2239 10 15 9.77614 15 9.5V7.5Z"
    fill="#0D0D15"
  />
  <path
    fill-rule="evenodd"
    clip-rule="evenodd"
    d="M16.5 3H7.5C5.01472 3 3 5.01472 3 7.5V16.5C3 18.9853 5.01472 21 7.5 21H16.5C18.9853 21 21 18.9853 21 16.5V7.5C21 5.01472 18.9853 3 16.5 3ZM4.5 7.5C4.5 5.84315 5.84315 4.5 7.5 4.5H12.2712C11.2857 6.07697 10.6847 7.96501 10.3194 9.5146C10.0943 10.4697 9.95307 11.3218 9.86795 11.9358C9.82534 12.2432 9.79667 12.4919 9.77853 12.6651C9.76947 12.7517 9.76303 12.8195 9.7588 12.8665L9.7523 12.9426L9.69019 13.7501L12.6303 13.75C12.5281 14.5311 12.4561 15.3722 12.4386 16.2497C10.4767 16.2353 8.72834 15.533 7.49841 14.4395L6.50171 15.5604C8.02364 16.9136 10.1411 17.7415 12.4646 17.7499C12.4968 18.326 12.5563 18.9113 12.6491 19.5H7.5C5.84315 19.5 4.5 18.1569 4.5 16.5V7.5ZM13.9608 17.6401C13.9942 18.2542 14.061 18.877 14.1695 19.5H16.5C18.1569 19.5 19.5 18.1569 19.5 16.5V7.5C19.5 5.84315 18.1569 4.5 16.5 4.5H14.1081C12.9314 5.94599 12.2068 8.04567 11.7794 9.85873C11.5674 10.7581 11.434 11.5627 11.3537 12.1418L11.339 12.2501L14.3854 12.25L14.2399 13.1233C14.0873 14.0391 13.9719 15.0555 13.9421 16.123C15.3381 15.8731 16.569 15.2688 17.5017 14.4395L18.4984 15.5604C17.2943 16.631 15.7175 17.3728 13.9608 17.6401Z"
    fill="#0D0D15"
  />
</svg>
