<svg width="24" height="24" viewBox="0 0 24 24" fill="none" xmlns="http://www.w3.org/2000/svg">
  <path
    fill-rule="evenodd"
    clip-rule="evenodd"
    d="M5 4.00195C3.34315 4.00195 2 5.3451 2 7.00195L2 17.002C2 18.6588 3.34315 20.002 5 20.002H19C20.6569 20.002 22 18.6588 22 17.002V7.00195C22 5.3451 20.6569 4.00195 19 4.00195L5 4.00195ZM4 7.33072L4 17.002C4 17.5542 4.44772 18.002 5 18.002H19C19.5523 18.002 20 17.5542 20 17.002V7.33075L13.9755 12.6022C12.8444 13.5919 11.1556 13.5919 10.0245 12.6022L4 7.33072ZM18.4814 6.00195L5.51859 6.00195L11.3415 11.097C11.7185 11.4269 12.2815 11.4269 12.6585 11.097L18.4814 6.00195Z"
    fill="#0D0D15"
  />
</svg>
