<svg width="24" height="24" viewBox="0 0 24 24" fill="none" xmlns="http://www.w3.org/2000/svg">
  <path
    fill-rule="evenodd"
    clip-rule="evenodd"
    d="M21 5.00195C20.4477 5.00195 20 4.55424 20 4.00195V1.00195C20 0.449668 20.4477 0.00195312 21 0.00195312C21.5523 0.00195312 22 0.449668 22 1.00195V4.00195C22 4.55424 21.5523 5.00195 21 5.00195ZM20 7.00195C20 6.44967 20.4477 6.00195 21 6.00195C21.5523 6.00195 22 6.44967 22 7.00195C22 7.55424 21.5523 8.00195 21 8.00195C20.4477 8.00195 20 7.55424 20 7.00195ZM5 4.00195L18 4.00195V6.00195L5.51858 6.00195L11.3415 11.097C11.7185 11.4269 12.2815 11.4269 12.6585 11.097L18 6.4232V7.00195C18 7.61053 18.1812 8.17678 18.4926 8.64969L13.9755 12.6022C12.8444 13.5919 11.1556 13.5919 10.0245 12.6022L4 7.33074L4 17.002C4 17.5542 4.44772 18.002 5 18.002H19C19.5523 18.002 20 17.5542 20 17.002V9.83125C20.3128 9.9418 20.6494 10.002 21 10.002C21.3506 10.002 21.6872 9.9418 22 9.83125V17.002C22 18.6588 20.6569 20.002 19 20.002H5C3.34315 20.002 2 18.6588 2 17.002L2 7.00195C2 5.3451 3.34315 4.00195 5 4.00195Z"
    fill="#0D0D15"
  />
</svg>
