<svg width="24" height="24" viewBox="0 0 24 24" fill="none" xmlns="http://www.w3.org/2000/svg">
  <path
    fill-rule="evenodd"
    clip-rule="evenodd"
    d="M17 3H7C4.79086 3 3 4.79086 3 7V17C3 19.2091 4.79086 21 7 21H17C19.2091 21 21 19.2091 21 17V7C21 4.79086 19.2091 3 17 3ZM5 7C5 5.89543 5.89543 5 7 5H17C18.1046 5 19 5.89543 19 7V13H13.5C13.2239 13 13 13.2239 13 13.5V14C13 14.5523 12.5523 15 12 15C11.4477 15 11 14.5523 11 14V13.5C11 13.2239 10.7761 13 10.5 13H5V7ZM14.8293 15C14.4175 16.1652 13.3062 17 12 17C10.6938 17 9.58254 16.1652 9.17071 15H5V17C5 18.1046 5.89543 19 7 19H17C18.1046 19 19 18.1046 19 17V15H14.8293Z"
    fill="#0D0D15"
  />
</svg>
