<svg width="24" height="24" viewBox="0 0 24 24" fill="none" xmlns="http://www.w3.org/2000/svg">
  <path d="M6 11C6 12.1046 6.89543 13 8 13C9.10457 13 10 12.1046 10 11H6Z" fill="#0D0D15" />
  <path d="M14 11C14 12.1046 14.8954 13 16 13C17.1046 13 18 12.1046 18 11H14Z" fill="#0D0D15" />
  <path
    fill-rule="evenodd"
    clip-rule="evenodd"
    d="M11.9593 7.9162C11.2718 7.66894 9.75635 7.1722 8.13782 6.9704C6.59761 6.77837 4.5948 6.80351 3.27576 8.01229C2.53097 8.69482 2.19698 9.61166 2.06926 10.4895C1.94154 11.3673 2.00633 12.2906 2.13508 13.109C2.52896 15.6128 4.85329 16.9999 7.11431 16.9999H7.44113C9.0439 16.9999 10.5513 16.2383 11.5024 14.9482C11.7495 14.6131 12.2505 14.6131 12.4976 14.9482C13.4486 16.2383 14.9561 16.9999 16.5588 16.9999H16.8857C19.1467 16.9999 21.471 15.6128 21.8649 13.109C21.9936 12.2906 22.0584 11.3673 21.9307 10.4895C21.803 9.61166 21.469 8.69482 20.7242 8.01229C19.4052 6.80351 17.4024 6.77837 15.8622 6.9704C14.2436 7.1722 12.7282 7.66894 12.0406 7.9162C12.0145 7.92558 11.9854 7.92558 11.9593 7.9162ZM4.627 9.48679C5.23607 8.92863 6.40791 8.77021 7.89038 8.95504C9.29453 9.13011 10.6498 9.57067 11.2826 9.7982C11.7461 9.96491 12.2538 9.96491 12.7174 9.7982C13.3501 9.57067 14.7054 9.13011 16.1096 8.95504C17.5921 8.77021 18.7639 8.92863 19.373 9.48679C19.663 9.75257 19.8636 10.1728 19.9516 10.7774C20.0395 11.3821 20.0011 12.0867 19.8892 12.7982C19.6889 14.0715 18.4481 14.9999 16.8857 14.9999H16.5588C15.5914 14.9999 14.6815 14.5402 14.1074 13.7615C13.061 12.342 10.939 12.342 9.89253 13.7615C9.31847 14.5402 8.40858 14.9999 7.44113 14.9999H7.11431C5.55184 14.9999 4.31109 14.0715 4.11078 12.7982C3.99884 12.0867 3.96044 11.3821 4.04842 10.7774C4.13639 10.1728 4.33697 9.75257 4.627 9.48679Z"
    fill="#0D0D15"
  />
</svg>
