<svg width="24" height="24" viewBox="0 0 24 24" fill="none" xmlns="http://www.w3.org/2000/svg">
  <path
    fill-rule="evenodd"
    clip-rule="evenodd"
    d="M14 4H5C3.34315 4 2 5.34315 2 7V16.98C2 17.8123 2.95016 18.2874 3.616 17.788L7.33333 15H14C15.6569 15 17 13.6569 17 12V7C17 5.34315 15.6569 4 14 4ZM6.13333 13.4L4 15V7C4 6.44772 4.44772 6 5 6H14C14.5523 6 15 6.44772 15 7V12C15 12.5523 14.5523 13 14 13H7.33333C6.90059 13 6.47953 13.1404 6.13333 13.4Z"
    fill="#0D0D15"
  />
  <path
    d="M22 20.98L21.9999 11C21.9999 9.34315 20.6568 8 18.9999 8V10C19.5522 10 19.9999 10.4477 19.9999 11L20 19L17.8667 17.4C17.5205 17.1404 17.0994 17 16.6667 17H7.17065C7.58249 18.1652 8.69373 19 9.99995 19H16.6667L20.384 21.788C21.0498 22.2874 22 21.8123 22 20.98Z"
    fill="#0D0D15"
  />
</svg>
