<svg width="24" height="24" viewBox="0 0 24 24" fill="none" xmlns="http://www.w3.org/2000/svg">
  <path
    fill-rule="evenodd"
    clip-rule="evenodd"
    d="M8 6.00195C8 3.79281 9.79086 2.00195 12 2.00195C14.2091 2.00195 16 3.79281 16 6.00195V11.002C16 13.2111 14.2091 15.002 12 15.002C9.79086 15.002 8 13.2111 8 11.002V6.00195ZM12 4.00195C10.8954 4.00195 10 4.89738 10 6.00195V11.002C10 12.1065 10.8954 13.002 12 13.002C13.1046 13.002 14 12.1065 14 11.002V6.00195C14 4.89738 13.1046 4.00195 12 4.00195ZM13 18.9401C16.9463 18.448 20 15.0816 20 11.002C20 10.4497 19.5523 10.002 19 10.002C18.4477 10.002 18 10.4497 18 11.002C18 14.3157 15.3137 17.002 12 17.002C8.68629 17.002 6 14.3157 6 11.002C6 10.4497 5.55228 10.002 5 10.002C4.44772 10.002 4 10.4497 4 11.002C4 15.0816 7.05369 18.448 11 18.9401V21.002C11 21.5542 11.4477 22.002 12 22.002C12.5523 22.002 13 21.5542 13 21.002V18.9401Z"
    fill="#0D0D15"
  />
</svg>
