<svg width="24" height="24" viewBox="0 0 24 24" fill="none" xmlns="http://www.w3.org/2000/svg">
  <path
    fill-rule="evenodd"
    clip-rule="evenodd"
    d="M18 3H10C8.34315 3 7 4.34315 7 6V14C7 15.6569 8.34315 17 10 17H18C19.6569 17 21 15.6569 21 14V6C21 4.34315 19.6569 3 18 3ZM9 6C9 5.44772 9.44772 5 10 5H18C18.5523 5 19 5.44772 19 6V14C19 14.5523 18.5523 15 18 15H10C9.44772 15 9 14.5523 9 14V6Z"
    fill="#0D0D15"
  />
  <path
    d="M3 7.5C3 7.22386 3.22386 7 3.5 7H4.5C4.77614 7 5 7.22386 5 7.5V8.5C5 8.77614 4.77614 9 4.5 9H3.5C3.22386 9 3 8.77614 3 8.5V7.5Z"
    fill="#0D0D15"
  />
  <path
    d="M3.5 11C3.22386 11 3 11.2239 3 11.5V12.5C3 12.7761 3.22386 13 3.5 13H4.5C4.77614 13 5 12.7761 5 12.5V11.5C5 11.2239 4.77614 11 4.5 11H3.5Z"
    fill="#0D0D15"
  />
  <path
    d="M3 15.5C3 15.2239 3.22386 15 3.5 15H4.5C4.77614 15 5 15.2239 5 15.5V16.5C5 16.7761 4.77614 17 4.5 17H3.5C3.22386 17 3 16.7761 3 16.5V15.5Z"
    fill="#0D0D15"
  />
  <path
    d="M7.5 19C7.22386 19 7 19.2239 7 19.5V20.5C7 20.7761 7.22386 21 7.5 21H8.5C8.77614 21 9 20.7761 9 20.5V19.5C9 19.2239 8.77614 19 8.5 19H7.5Z"
    fill="#0D0D15"
  />
  <path
    d="M11 19.5C11 19.2239 11.2239 19 11.5 19H12.5C12.7761 19 13 19.2239 13 19.5V20.5C13 20.7761 12.7761 21 12.5 21H11.5C11.2239 21 11 20.7761 11 20.5V19.5Z"
    fill="#0D0D15"
  />
  <path
    d="M15.5 19C15.2239 19 15 19.2239 15 19.5V20.5C15 20.7761 15.2239 21 15.5 21H16.5C16.7761 21 17 20.7761 17 20.5V19.5C17 19.2239 16.7761 19 16.5 19H15.5Z"
    fill="#0D0D15"
  />
  <path
    d="M3.5 19C3.22386 19 3 19.2239 3 19.5V20.5C3 20.7761 3.22386 21 3.5 21H4.5C4.77614 21 5 20.7761 5 20.5V19.5C5 19.2239 4.77614 19 4.5 19H3.5Z"
    fill="#0D0D15"
  />
</svg>
