<svg width="24" height="24" viewBox="0 0 24 24" fill="none" xmlns="http://www.w3.org/2000/svg">
  <path
    d="M14.3113 12.9377H13.2277C13.062 12.9377 12.9277 12.8034 12.9277 12.6377V9.85338C12.9277 9.46032 12.4201 9.303 12.1978 9.62717L9.49999 13.5615C9.31798 13.827 9.50803 14.1877 9.82989 14.1877H10.9134C11.0791 14.1877 11.2134 14.3221 11.2134 14.4877V17.2721C11.2134 17.6652 11.7211 17.8225 11.9433 17.4983L14.6412 13.564C14.8232 13.2985 14.6331 12.9377 14.3113 12.9377Z"
    fill="#0D0D15"
  />
  <path
    fill-rule="evenodd"
    clip-rule="evenodd"
    d="M22 17C22 16.0417 21.5506 15.1883 20.8511 14.639C20.9489 14.1076 21 13.5598 21 13C21 9.0657 18.4755 5.72103 14.9581 4.49743C14.719 3.07984 13.4856 2 12 2C10.5144 2 9.28101 3.07984 9.04191 4.49743C5.52446 5.72103 3 9.0657 3 13C3 13.5598 3.0511 14.1076 3.14889 14.639C2.44937 15.1883 2 16.0417 2 17C2 18.6569 3.34315 20 5 20C5.38694 20 5.75676 19.9267 6.09637 19.7934C7.67665 21.1678 9.74114 22 12 22C14.2589 22 16.3233 21.1678 17.9036 19.7934C18.2432 19.9267 18.6131 20 19 20C20.6569 20 22 18.6569 22 17ZM12 4C11.4477 4 11 4.44772 11 5C11 5.55228 11.4477 6 12 6C12.5523 6 13 5.55228 13 5C13 4.44772 12.5523 4 12 4ZM12 8C13.111 8 14.081 7.39606 14.5995 6.49856C17.1783 7.5306 19 10.0526 19 13C19 13.3398 18.9758 13.674 18.929 14.0008C17.3049 14.0385 16 15.3669 16 17C16 17.5305 16.1377 18.0289 16.3793 18.4612C15.1803 19.424 13.6574 20 12 20C10.3426 20 8.81975 19.424 7.62069 18.4612C7.8623 18.0289 8 17.5305 8 17C8 15.3669 6.69506 14.0385 5.07101 14.0008C5.02422 13.674 5 13.3398 5 13C5 10.0526 6.82166 7.5306 9.40052 6.49856C9.91903 7.39606 10.889 8 12 8ZM19 18C18.4477 18 18 17.5523 18 17C18 16.4477 18.4477 16 19 16C19.5523 16 20 16.4477 20 17C20 17.5523 19.5523 18 19 18ZM5 16C4.44772 16 4 16.4477 4 17C4 17.5523 4.44772 18 5 18C5.55228 18 6 17.5523 6 17C6 16.4477 5.55228 16 5 16Z"
    fill="#0D0D15"
  />
</svg>
