<svg width="24" height="24" viewBox="0 0 24 24" fill="none" xmlns="http://www.w3.org/2000/svg">
  <path
    fill-rule="evenodd"
    clip-rule="evenodd"
    d="M20.8511 14.639C21.5506 15.1883 22 16.0417 22 17C22 18.6569 20.6569 20 19 20C18.6131 20 18.2432 19.9267 17.9036 19.7934C16.3233 21.1678 14.2589 22 12 22C9.74114 22 7.67665 21.1678 6.09637 19.7934C5.75676 19.9267 5.38694 20 5 20C3.34315 20 2 18.6569 2 17C2 16.0417 2.44937 15.1883 3.14889 14.639C3.0511 14.1076 3 13.5598 3 13C3 9.0657 5.52446 5.72103 9.04191 4.49743C9.28101 3.07984 10.5144 2 12 2C13.4856 2 14.719 3.07984 14.9581 4.49743C18.4755 5.72103 21 9.0657 21 13C21 13.5598 20.9489 14.1076 20.8511 14.639ZM11 5C11 4.44772 11.4477 4 12 4C12.5523 4 13 4.44772 13 5C13 5.55228 12.5523 6 12 6C11.4477 6 11 5.55228 11 5ZM14.5995 6.49856C14.081 7.39606 13.111 8 12 8C10.889 8 9.91903 7.39606 9.40052 6.49856C6.82166 7.5306 5 10.0526 5 13C5 13.3398 5.02422 13.674 5.07101 14.0008C6.69506 14.0385 8 15.3669 8 17C8 17.5305 7.8623 18.0289 7.62069 18.4612C8.81975 19.424 10.3426 20 12 20C13.6574 20 15.1803 19.424 16.3793 18.4612C16.1377 18.0289 16 17.5305 16 17C16 15.3669 17.3049 14.0385 18.929 14.0008C18.9758 13.674 19 13.3398 19 13C19 10.0526 17.1783 7.5306 14.5995 6.49856ZM18 17C18 17.5523 18.4477 18 19 18C19.5523 18 20 17.5523 20 17C20 16.4477 19.5523 16 19 16C18.4477 16 18 16.4477 18 17ZM4 17C4 16.4477 4.44772 16 5 16C5.55228 16 6 16.4477 6 17C6 17.5523 5.55228 18 5 18C4.44772 18 4 17.5523 4 17Z"
    fill="#0D0D15"
  />
</svg>
