<svg width="24" height="24" viewBox="0 0 24 24" fill="none" xmlns="http://www.w3.org/2000/svg">
  <path
    fill-rule="evenodd"
    clip-rule="evenodd"
    d="M3.70711 2.29289C3.31658 1.90237 2.68342 1.90237 2.29289 2.29289C1.90237 2.68342 1.90237 3.31658 2.29289 3.70711L3.22236 4.63657C2.71043 5.30873 2.40649 6.14785 2.40649 7.05795V15.058C2.40649 17.2671 4.19727 19.058 6.40649 19.058H8.99219L11.5271 21.5927C11.5769 21.6425 11.6306 21.686 11.6873 21.7231C12.0791 22.0941 12.6975 22.0875 13.0815 21.7036L15.7273 19.058H17.6437L20.4388 21.853C20.8293 22.2435 21.4624 22.2435 21.853 21.853C22.2435 21.4624 22.2435 20.8293 21.853 20.4388L3.70711 2.29289ZM15.6437 17.058L4.66304 6.07725C4.49969 6.36702 4.40649 6.7016 4.40649 7.05795V15.058C4.40649 16.1626 5.302 17.058 6.40649 17.058H9.25464C9.40649 17.058 9.87207 17.1093 10.1035 17.3408L12.3596 19.597L14.6355 17.3211C14.8931 17.0637 15.4065 17.058 15.5852 17.058H15.6437Z"
    fill="#0D0D15"
  />
  <path
    d="M20.4065 15.058C20.4065 15.3947 20.3233 15.712 20.1763 15.9904L21.6226 17.4368C22.1152 16.7719 22.4065 15.9489 22.4065 15.058V7.05795C22.4065 4.84885 20.6157 3.05795 18.4065 3.05795H7.24377L9.24377 5.05795H18.4065C19.511 5.05795 20.4065 5.95334 20.4065 7.05795V15.058Z"
    fill="#0D0D15"
  />
</svg>
