<svg width="24" height="24" viewBox="0 0 24 24" fill="none" xmlns="http://www.w3.org/2000/svg">
  <path
    d="M9 10C8.44772 10 8 10.4477 8 11C8 11.5523 8.44772 12 9 12H15C15.5523 12 16 11.5523 16 11C16 10.4477 15.5523 10 15 10H9Z"
    fill="#0D0D15"
  />
  <path
    d="M8 15C8 14.4477 8.44772 14 9 14H12C12.5523 14 13 14.4477 13 15C13 15.5523 12.5523 16 12 16H9C8.44771 16 8 15.5523 8 15Z"
    fill="#0D0D15"
  />
  <path
    fill-rule="evenodd"
    clip-rule="evenodd"
    d="M12 2C11.4477 2 11 2.44772 11 3H9C9 2.44772 8.55228 2 8 2C7.44772 2 7 2.44772 7 3V3.12602C5.27477 3.57006 4 5.13616 4 7V19C4 21.2091 5.79086 23 8 23H16C18.2091 23 20 21.2091 20 19V7C20 5.13616 18.7252 3.57006 17 3.12602V3C17 2.44772 16.5523 2 16 2C15.4477 2 15 2.44772 15 3H13C13 2.44772 12.5523 2 12 2ZM7.03144 5.24975C6.41634 5.59087 6 6.24681 6 7V19C6 20.1046 6.89543 21 8 21H16C17.1046 21 18 20.1046 18 19V7C18 6.24681 17.5837 5.59087 16.9686 5.24975C16.8576 5.68119 16.466 6 16 6C15.4477 6 15 5.55228 15 5H13C13 5.55228 12.5523 6 12 6C11.4477 6 11 5.55228 11 5H9C9 5.55228 8.55228 6 8 6C7.53395 6 7.14237 5.68118 7.03144 5.24975Z"
    fill="#0D0D15"
  />
</svg>
