<svg width="28" height="28" viewBox="0 0 28 28" fill="none" xmlns="http://www.w3.org/2000/svg">
  <path
    fill-rule="evenodd"
    clip-rule="evenodd"
    d="M14 28C21.732 28 28 21.732 28 14C28 6.26801 21.732 0 14 0C6.26801 0 0 6.26801 0 14C0 21.732 6.26801 28 14 28ZM13.028 14.8359C12.9581 15.4366 13.4124 15.9655 14.0063 15.9655C14.5042 15.9655 14.9147 15.58 14.9846 15.06C15.0195 14.7552 15.0894 14.6028 15.1855 14.4145C15.3844 14.0365 15.6695 13.7533 16.002 13.4229C16.3556 13.0716 16.7628 12.6671 17.177 12.0386C17.9107 10.9359 17.6312 9.44759 17.1595 8.65862C16.6092 7.73517 15.5261 7 13.9452 7C12.5302 7 11.4471 7.70828 10.792 8.68552C10.4513 9.18759 10.6609 9.89586 11.2112 10.129C11.6217 10.3083 12.1109 10.1828 12.3467 9.79724C12.6699 9.28621 13.1765 8.86483 13.9626 8.86483C15.6921 8.86483 16.0328 10.5324 15.4213 11.42C15.1631 11.8015 14.8225 12.1255 14.478 12.4531C14.0535 12.8569 13.6231 13.2663 13.3337 13.7959C13.1503 14.1276 13.063 14.4952 13.028 14.8359ZM13.9998 20C14.5521 20 14.9998 19.5523 14.9998 19C14.9998 18.4477 14.5521 18 13.9998 18C13.4475 18 12.9998 18.4477 12.9998 19C12.9998 19.5523 13.4475 20 13.9998 20Z"
    fill="#087BB5"
  />
</svg>
