<svg width="28" height="28" viewBox="0 0 28 28" fill="none" xmlns="http://www.w3.org/2000/svg">
  <path
    fill-rule="evenodd"
    clip-rule="evenodd"
    d="M28 14C28 21.732 21.732 28 14 28C6.26801 28 0 21.732 0 14C0 6.26801 6.26801 0 14 0C21.732 0 28 6.26801 28 14ZM13 19C13 19.5523 13.4477 20 14 20C14.5523 20 15 19.5523 15 19C15 18.4477 14.5523 18 14 18C13.4477 18 13 18.4477 13 19ZM14 16C13.4477 16 13 15.5523 13 15V9C13 8.44771 13.4477 8 14 8C14.5523 8 15 8.44771 15 9V15C15 15.5523 14.5523 16 14 16Z"
    fill="#9DA2A4"
  />
</svg>
