<svg width="24" height="24" viewBox="0 0 24 24" fill="none" xmlns="http://www.w3.org/2000/svg">
  <path
    fill-rule="evenodd"
    clip-rule="evenodd"
    d="M6 3H18C20.2092 3 22 4.79089 22 7V15C22 17.2091 20.2092 19 18 19H15.3208L12.675 21.6456C12.291 22.0295 11.6726 22.0361 11.2808 21.6652C11.2241 21.6281 11.1704 21.5846 11.1206 21.5348L8.58569 19H6C3.79077 19 2 17.2091 2 15V7C2 4.79089 3.79077 3 6 3ZM8.84814 17C9 17 9.46558 17.0514 9.69702 17.2828L11.9531 19.5391L14.229 17.2632C14.4866 17.0057 15 17 15.1787 17H18C19.1045 17 20 16.1046 20 15V7C20 5.89539 19.1045 5 18 5H6C4.89551 5 4 5.89539 4 7V15C4 16.1046 4.89551 17 6 17H8.84814Z"
    fill="#0D0D15"
  />
</svg>
