<svg width="26" height="24" viewBox="0 0 26 24" fill="none" xmlns="http://www.w3.org/2000/svg">
  <path
    fill-rule="evenodd"
    clip-rule="evenodd"
    d="M16.5875 2.10251L25.5074 18.1025C26.9681 20.7675 25.0048 24 21.9256 24H4.07443C0.995151 24 -0.968114 20.7675 0.492609 18.1025L9.42385 2.10251C10.9604 -0.700842 15.0509 -0.700833 16.5875 2.10251ZM13 7C12.4477 7 12 7.44772 12 8V14C12 14.5523 12.4477 15 13 15C13.5523 15 14 14.5523 14 14V8C14 7.44772 13.5523 7 13 7ZM12 18C12 17.4477 12.4477 17 13 17C13.5523 17 14 17.4477 14 18C14 18.5523 13.5523 19 13 19C12.4477 19 12 18.5523 12 18Z"
    fill="#F3B846"
  />
</svg>
