<svg width="28" height="28" viewBox="0 0 28 28" fill="none" xmlns="http://www.w3.org/2000/svg">
  <path
    fill-rule="evenodd"
    clip-rule="evenodd"
    d="M28 14C28 21.732 21.732 28 14 28C6.26801 28 0 21.732 0 14C0 6.26801 6.26801 0 14 0C21.732 0 28 6.26801 28 14ZM9.29291 13.4435C9.68341 13.053 10.3166 13.053 10.7071 13.4435L13.1924 15.9289L18.5 10.2929C18.8905 9.90237 19.5237 9.90237 19.9142 10.2929C20.3047 10.6834 20.3047 11.3166 19.9142 11.7071L13.8995 18.0502C13.509 18.4407 12.8759 18.4407 12.4853 18.0502L9.29291 14.8578C8.90237 14.4672 8.90237 13.8341 9.29291 13.4435Z"
    fill="#1DA189"
  />
</svg>
