<svg width="24" height="24" viewBox="0 0 24 24" fill="none" xmlns="http://www.w3.org/2000/svg">
  <path
    fill-rule="evenodd"
    clip-rule="evenodd"
    d="M12 2.00195C11.4477 2.00195 11 2.44967 11 3.00195V4.00195C11 4.02567 11.0008 4.04919 11.0025 4.07249C7.60898 4.55667 5.00002 7.47463 5.00002 11.002V17.002C4.44773 17.002 4 17.4497 4 18.002C4 18.5542 4.44772 19.002 5 19.002H19C19.5523 19.0019 20 18.5542 20 18.002C20 17.4497 19.5523 17.002 19 17.002V11.002C19 7.47463 16.3911 4.55667 12.9976 4.07249C12.9992 4.04919 13 4.02567 13 4.00195V3.00195C13 2.44967 12.5523 2.00195 12 2.00195ZM7.00002 17.002V11.002C7.00002 8.24053 9.23859 6.00195 12 6.00195C14.7614 6.00195 17 8.24053 17 11.002V17.002H7.00002Z"
    fill="#0D0D15"
  />
  <path
    d="M12 22.002C13.1046 22.002 14 21.1065 14 20.002H10C10 21.1065 10.8954 22.002 12 22.002Z"
    fill="#0D0D15"
  />
</svg>
