<svg width="24" height="24" viewBox="0 0 24 24" fill="none" xmlns="http://www.w3.org/2000/svg">
  <path
    d="M4.90323 16C4.62366 16 4.39269 15.9053 4.21032 15.716C4.0271 15.5276 3.93548 15.2889 3.93548 15V10H2.96774C2.68817 10 2.4572 9.90533 2.27484 9.716C2.09161 9.52756 2 9.28889 2 9C2 8.71111 2.09161 8.472 2.27484 8.28267C2.4572 8.09422 2.68817 8 2.96774 8H4.58065C4.94624 8 5.2529 8.12756 5.50064 8.38267C5.74753 8.63867 5.87097 8.95556 5.87097 9.33333V15C5.87097 15.2889 5.77935 15.5276 5.59613 15.716C5.41376 15.9053 5.1828 16 4.90323 16ZM9.32258 16C8.95699 16 8.65075 15.872 8.40387 15.616C8.15613 15.3609 8.03226 15.0444 8.03226 14.6667V12.6667C8.03226 12.2889 8.15613 11.972 8.40387 11.716C8.65075 11.4609 8.95699 11.3333 9.32258 11.3333H12.049V10H9C8.72043 10 8.48946 9.90533 8.3071 9.716C8.12387 9.52756 8.03226 9.28889 8.03226 9C8.03226 8.71111 8.12387 8.472 8.3071 8.28267C8.48946 8.09422 8.72043 8 9 8H12.6942C13.0598 8 13.3665 8.12756 13.6142 8.38267C13.8611 8.63867 13.9845 8.95556 13.9845 9.33333V11.3333C13.9845 11.7111 13.8611 12.0276 13.6142 12.2827C13.3665 12.5387 13.0598 12.6667 12.6942 12.6667H9.96774V14H13.2903C13.5699 14 13.8013 14.0942 13.9845 14.2827C14.1669 14.472 14.2581 14.7111 14.2581 15C14.2581 15.2889 14.1669 15.5276 13.9845 15.716C13.8013 15.9053 13.5699 16 13.2903 16H9.32258ZM17.1613 16C16.8817 16 16.6508 15.9053 16.4684 15.716C16.2852 15.5276 16.1935 15.2889 16.1935 15C16.1935 14.7111 16.2852 14.472 16.4684 14.2827C16.6508 14.0942 16.8817 14 17.1613 14H20.0645V12.6667H18.129C17.957 12.6667 17.8065 12.6 17.6774 12.4667C17.5484 12.3333 17.4839 12.1778 17.4839 12C17.4839 11.8222 17.5484 11.6667 17.6774 11.5333C17.8065 11.4 17.957 11.3333 18.129 11.3333H20.0645V10H16.9677C16.6882 10 16.4572 9.90533 16.2748 9.716C16.0916 9.52756 16 9.28889 16 9C16 8.71111 16.0916 8.472 16.2748 8.28267C16.4572 8.09422 16.6882 8 16.9677 8H20.7097C21.0753 8 21.3815 8.12756 21.6284 8.38267C21.8761 8.63867 22 8.95556 22 9.33333V14.6667C22 15.0444 21.8761 15.3609 21.6284 15.616C21.3815 15.872 21.0753 16 20.7097 16H17.1613Z"
    fill="#0D0D15"
  />
</svg>
