<svg width="24" height="24" viewBox="0 0 24 24" fill="none" xmlns="http://www.w3.org/2000/svg">
  <path
    d="M10.8078 13.1924C10.4173 12.8019 10.4173 12.1687 10.8078 11.7782L17.586 5L14 5.00045C13.4477 5.00045 13 4.55274 13 4.00045C13 3.44817 13.4477 3.00045 14 3.00045L20.0002 3C20.5525 3 21.0002 3.44772 21.0002 4V9.65686C21.0002 10.2091 20.5525 10.6569 20.0002 10.6569C19.4479 10.6569 19.0002 10.2091 19.0002 9.65685V6.41421L12.222 13.1924C11.8315 13.5829 11.1983 13.5829 10.8078 13.1924Z"
    fill="#0D0D15"
  />
  <path
    d="M6 3.00008C4.34314 3.00008 3 4.34323 3 6.00008V18.0001C3 19.6569 4.34315 21.0001 6 21.0001H18C19.6569 21.0001 21 19.6569 21 18.0001V14.0001C21 13.4478 20.5523 13.0001 20 13.0001C19.4477 13.0001 19 13.4478 19 14.0001V18.0001C19 18.5524 18.5523 19.0001 18 19.0001H6C5.44772 19.0001 5 18.5524 5 18.0001V6.00008C5 5.4478 5.44772 5.00008 6 5.00008H10C10.5523 5.00008 11 4.55237 11 4.00008C11 3.4478 10.5523 3.00008 10 3.00008H6Z"
    fill="#0D0D15"
  />
</svg>
