<svg width="24" height="24" viewBox="0 0 24 24" fill="none" xmlns="http://www.w3.org/2000/svg">
<path fill-rule="evenodd" clip-rule="evenodd" d="M10 21H14V22C14 22.5523 14.4477 23 15 23C15.5523 23 16 22.5523 16 22V21C17.6569 21 19 19.6569 19 18V8C19 6.32168 18.4094 4.78131 17.4246 3.57542L18.2929 2.70711C18.6834 2.31658 18.6834 1.68342 18.2929 1.29289C17.9024 0.902369 17.2692 0.902369 16.8787 1.29289L15.9509 2.22072C14.8264 1.45055 13.4658 1 12 1C10.4937 1 9.09847 1.47579 7.95649 2.28529L6.96409 1.29289C6.57357 0.902369 5.9404 0.902369 5.54988 1.29289C5.15936 1.68342 5.15936 2.31658 5.54988 2.70711L6.50537 3.6626C5.56271 4.85514 5 6.36186 5 8V18C5 19.6569 6.34315 21 8 21V22C8 22.5523 8.44772 23 9 23C9.55228 23 10 22.5523 10 22V21ZM7 11V18C7 18.5523 7.44772 19 8 19H16C16.5523 19 17 18.5523 17 18V11H7ZM17 8C17 7.65753 16.9656 7.32311 16.9 7C16.4367 4.71776 14.419 3 12 3C9.58104 3 7.56329 4.71776 7.10002 7C7.03443 7.32311 7 7.65753 7 8V9H17V8Z" fill="#0D0D15"/>
<path d="M2 9C2 8.44772 2.44772 8 3 8C3.55228 8 4 8.44772 4 9V14C4 14.5523 3.55228 15 3 15C2.44772 15 2 14.5523 2 14V9Z" fill="#0D0D15"/>
<path d="M21 8C20.4477 8 20 8.44772 20 9V14C20 14.5523 20.4477 15 21 15C21.5523 15 22 14.5523 22 14V9C22 8.44772 21.5523 8 21 8Z" fill="#0D0D15"/>
</svg>
