<svg width="24" height="24" viewBox="0 0 24 24" fill="none" xmlns="http://www.w3.org/2000/svg">
<path d="M11.997 4.96438C11.4563 5.03176 11.0571 5.00012 11.0571 5.00012C11.0571 5.00012 10.9013 3.03462 12.0175 1.91845C13.1337 0.802282 15.0992 0.958107 15.0992 0.958107C15.0992 0.958107 15.255 2.9236 14.1388 4.03977C13.5568 4.62177 12.7439 4.85794 12.0991 4.95068L11.997 4.96438Z" fill="#0D0D15"/>
<path fill-rule="evenodd" clip-rule="evenodd" d="M19.9021 9.80555C19.763 9.88953 18.2526 10.8016 18.2694 12.6631C18.2902 14.9041 20.2022 15.676 20.295 15.7134C20.2968 15.7141 20.2979 15.7146 20.2983 15.7148C20.7629 15.9199 20.9994 16.4412 20.8478 16.9258C20.847 16.9283 20.8458 16.9321 20.8442 16.9373C20.7962 17.0954 20.3656 18.5113 19.366 19.9722C18.9161 20.6297 18.4513 21.2809 17.9215 21.7761C17.2566 22.3978 16.4907 22.7917 15.5677 22.8087C14.8805 22.8214 14.3784 22.6681 13.8992 22.471C13.8178 22.4375 13.7375 22.4014 13.6563 22.365C13.2957 22.2032 12.9156 22.0326 12.3227 22.0326C11.7026 22.0326 11.3048 22.2063 10.9267 22.3713C10.8625 22.3993 10.7989 22.4271 10.7348 22.4537C10.2698 22.6471 9.79222 22.8074 9.15895 22.8322L9.15746 22.8323C8.41064 22.8605 7.72614 22.5922 7.10792 22.1195C6.3927 21.5727 5.76428 20.7259 5.21222 19.9286C3.35353 17.2413 2.02145 12.3238 3.92878 9.01206C4.96262 7.21753 6.81672 6.0919 8.82192 6.06181C9.58527 6.04763 10.3315 6.28517 10.9992 6.54559C11.1136 6.5902 11.2235 6.63786 11.3289 6.68352C11.6077 6.80429 11.8543 6.91116 12.0657 6.91116C12.2698 6.91116 12.5274 6.79842 12.8294 6.66625C12.9775 6.60142 13.1363 6.5319 13.3047 6.46873C14.0797 6.17809 14.9695 5.93228 15.8766 6.01691C16.6767 6.05484 18.8222 6.36066 20.2082 8.38924C20.3619 8.61421 20.4169 8.89223 20.3606 9.15881C20.3043 9.42532 20.1414 9.65726 19.9099 9.80084C19.9081 9.80191 19.9056 9.80348 19.9021 9.80555ZM16.2729 12.6815C16.2955 15.1166 17.7182 16.4636 18.6645 17.0919C18.468 17.5627 18.1606 18.1984 17.7182 18.8448L17.702 18.8684C17.3424 19.3941 16.9815 19.9218 16.558 20.3178C16.2631 20.5934 15.9403 20.805 15.5309 20.8125C15.0538 20.8213 14.7312 20.6727 14.403 20.5215C14.3036 20.4757 14.2037 20.4297 14.0989 20.3877C13.6186 20.1955 13.0792 20.0361 12.3227 20.0361C11.4042 20.0361 10.7994 20.2586 10.2361 20.4969C10.187 20.5176 10.1385 20.5388 10.0901 20.5599C9.78969 20.6911 9.49249 20.8209 9.08147 20.8372C8.70023 20.8514 8.38627 20.6149 8.08487 20.3324C7.6259 19.9022 7.22489 19.3281 6.8539 18.7923C5.93267 17.4605 5.14283 15.4685 4.99782 13.4975C4.90709 12.264 5.06734 11.0356 5.65882 10.0085C6.33617 8.83285 7.53978 8.07714 8.85363 8.05805L8.85817 8.05799C9.39982 8.04766 9.92014 8.2591 10.3878 8.44914C10.4575 8.47749 10.5261 8.50536 10.5934 8.53195C11.1508 8.75207 11.6567 8.90771 12.0657 8.90771C12.4649 8.90771 13.0145 8.72639 13.6439 8.47822C13.6836 8.46257 13.7239 8.44658 13.7646 8.43038C14.3369 8.2029 15.0096 7.93555 15.7076 8.00632C15.7272 8.00831 15.7469 8.00974 15.7667 8.01055C16.1586 8.02684 17.1115 8.13758 17.9363 8.82632C17.1862 9.54888 16.2562 10.8207 16.2729 12.6815Z" fill="#0D0D15"/>
</svg>
