<svg width="24" height="24" viewBox="0 0 24 24" fill="none" xmlns="http://www.w3.org/2000/svg">
<path d="M9 8C9 8.55228 8.55228 9 8 9C7.44772 9 7 8.55228 7 8C7 7.44772 7.44772 7 8 7C8.55228 7 9 7.44772 9 8Z" fill="#0D0D15"/>
<path d="M16 9C16.5523 9 17 8.55228 17 8C17 7.44772 16.5523 7 16 7C15.4477 7 15 7.44772 15 8C15 8.55228 15.4477 9 16 9Z" fill="#0D0D15"/>
<path fill-rule="evenodd" clip-rule="evenodd" d="M7 3C4.79086 3 3 4.79086 3 7V17C3 19.2091 4.79086 21 7 21H17C19.2091 21 21 19.2091 21 17V7C21 4.79086 19.2091 3 17 3H7ZM5 7C5 5.89543 5.89543 5 7 5H11.3702L9.76301 12.5H12.0132C11.767 13.2319 11.554 14.0639 11.3877 14.9793C10.0903 14.8907 8.98707 14.5269 8.2084 14.0478L6.76719 15.489C7.86511 16.2828 9.39343 16.825 11.1168 16.9645C11.0555 17.6152 11.0169 18.2951 11.0044 19H7C5.89543 19 5 18.1046 5 17V7ZM13.1287 16.9418C13.0617 17.5893 13.0185 18.2769 13.0047 19H17C18.1046 19 19 18.1046 19 17V7C19 5.89543 18.1046 5 17 5H13.4156L12.3439 10.001L12.3496 10.0067L12.3427 10.0065L12.237 10.5H15.118L14.3944 11.9472C14.0346 12.6668 13.6969 13.662 13.4439 14.8818C14.4223 14.7173 15.2537 14.3947 15.8682 13.9996C15.9698 13.9344 16.0626 13.8693 16.1476 13.8047L17.5694 15.2265C16.5068 16.1221 14.9334 16.7537 13.1287 16.9418Z" fill="#0D0D15"/>
</svg>
