<svg width="24" height="24" viewBox="0 0 24 24" fill="none" xmlns="http://www.w3.org/2000/svg">
<path fill-rule="evenodd" clip-rule="evenodd" d="M4.81287 4.88096L18.8129 4.00596C20.54 3.89802 22 5.26966 22 7.00012V16.8712C22 18.6017 20.54 19.9733 18.8129 19.8654L4.81287 18.9904C3.23176 18.8916 2 17.5804 2 15.9962V7.87512C2 6.29093 3.23176 4.97978 4.81287 4.88096ZM4.93762 6.87707C4.41059 6.91001 4 7.34706 4 7.87512V10.9357H10V6.56067L4.93762 6.87707ZM10 12.9357H4V15.9962C4 16.5243 4.41059 16.9613 4.93762 16.9943L10 17.3107V12.9357ZM12 12.9357H20V16.8712C20 17.448 19.5133 17.9053 18.9376 17.8693L12 17.4357V12.9357ZM20 10.9357H12V6.43567L18.9376 6.00207C19.5133 5.96609 20 6.4233 20 7.00012V10.9357Z" fill="#0D0D15"/>
</svg>
