<svg width="24" height="24" viewBox="0 0 24 24" fill="none" xmlns="http://www.w3.org/2000/svg">
  <path
    fill-rule="evenodd"
    clip-rule="evenodd"
    d="M11.5 7.5C11.5 9.433 9.933 11 8 11C6.067 11 4.5 9.433 4.5 7.5C4.5 5.567 6.067 4 8 4C9.933 4 11.5 5.567 11.5 7.5ZM8 9C8.82843 9 9.5 8.32843 9.5 7.5C9.5 6.67157 8.82843 6 8 6C7.17157 6 6.5 6.67157 6.5 7.5C6.5 8.32843 7.17157 9 8 9Z"
    fill="#0D0D15"
  />
  <path
    fill-rule="evenodd"
    clip-rule="evenodd"
    d="M2 15.9689C2 13.7597 3.79086 11.9689 6 11.9689H10C12.2091 11.9689 14 13.7597 14 15.9689V17.9C14 19.0598 13.0598 20 11.9 20H4.1C2.9402 20 2 19.0598 2 17.9V15.9689ZM4.26357 14.9758L4.26756 14.9689C4.61337 14.3711 5.25972 13.9689 6 13.9689H10C10.7403 13.9689 11.3866 14.3711 11.7324 14.9689L11.7364 14.9758C11.8026 15.0913 11.8577 15.2141 11.9 15.3426C11.9649 15.5396 12 15.7501 12 15.9689V17.9C12 17.9552 11.9552 18 11.9 18H4.1C4.04477 18 4 17.9552 4 17.9V15.9689C4 15.7501 4.03511 15.5396 4.1 15.3426C4.14234 15.2141 4.19735 15.0913 4.26357 14.9758Z"
    fill="#0D0D15"
  />
  <path
    fill-rule="evenodd"
    clip-rule="evenodd"
    d="M20 9.96887C20 11.6257 18.6569 12.9689 17 12.9689C15.3431 12.9689 14 11.6257 14 9.96887C14 8.31202 15.3431 6.96887 17 6.96887C18.6569 6.96887 20 8.31202 20 9.96887ZM17 8.96887C16.4477 8.96887 16 9.41659 16 9.96887C16 10.5212 16.4477 10.9689 17 10.9689C17.5523 10.9689 18 10.5212 18 9.96887C18 9.41659 17.5523 8.96887 17 8.96887Z"
    fill="#0D0D15"
  />
  <path
    d="M15.6585 13.9689C15.8796 14.5944 15.9999 15.2676 15.9999 15.9689H18.9999C19.133 15.9689 19.2599 15.9949 19.376 16.042C19.6054 16.1352 19.7923 16.311 19.8999 16.5325C19.964 16.6643 19.9999 16.8124 19.9999 16.9689V17.8689C19.9999 17.9241 19.9551 17.9689 19.8999 17.9689H15.9994C15.9874 18.6976 15.7852 19.3801 15.4404 19.9689H19.8999C21.0597 19.9689 21.9999 19.0287 21.9999 17.8689V16.9689C21.9999 15.312 20.6568 13.9689 18.9999 13.9689H15.6585Z"
    fill="#0D0D15"
  />
</svg>
