<svg width="24" height="24" viewBox="0 0 24 24" fill="none" xmlns="http://www.w3.org/2000/svg">
  <path
    fill-rule="evenodd"
    clip-rule="evenodd"
    d="M11.9997 7C16.2553 7 18.8525 10.1196 19.889 11.7011C20.012 11.8889 20.012 12.111 19.889 12.2988C18.8525 13.8804 16.2553 17 11.9997 17C7.74368 17 5.14851 13.8796 4.11357 12.2984C3.99079 12.1109 3.99079 11.8891 4.11357 11.7015C5.14851 10.1204 7.74368 7 11.9997 7ZM21.5618 10.6049C20.4305 8.87862 17.3112 5 11.9997 5C6.68715 5 3.56995 8.8802 2.44018 10.6062C1.88192 11.4591 1.88192 12.5409 2.44018 13.3938C3.56995 15.1198 6.68715 19 11.9997 19C17.3112 19 20.4305 15.1213 21.5618 13.3951C22.1211 12.5416 22.1211 11.4584 21.5618 10.6049ZM9.99973 12C9.99973 10.8954 10.8952 10 11.9997 10C13.1043 10 13.9997 10.8954 13.9997 12C13.9997 13.1046 13.1043 14 11.9997 14C10.8952 14 9.99973 13.1046 9.99973 12ZM11.9997 8.00001C9.79059 8.00001 7.99973 9.79087 7.99973 12C7.99973 14.2091 9.79059 16 11.9997 16C14.2089 16 15.9997 14.2091 15.9997 12C15.9997 9.79087 14.2089 8.00001 11.9997 8.00001Z"
    fill="#0D0D15"
  />
</svg>
