<svg width="24" height="24" viewBox="0 0 24 24" fill="none" xmlns="http://www.w3.org/2000/svg">
  <path
    d="M2.5 14.3011C2.86 14.5111 3.32 14.3811 3.53 14.0211L4 13.2011L4.48 14.0311C4.69 14.3911 5.15 14.5111 5.51 14.3111C5.87 14.1011 5.99 13.6511 5.79 13.2911L5.3 12.4511H6.25C6.66 12.4511 7 12.1111 7 11.7011C7 11.2911 6.66 10.9511 6.25 10.9511H5.3L5.77 10.1311C5.98 9.77114 5.86 9.31114 5.5 9.10114C5.14 8.90114 4.68 9.02114 4.47 9.38114L4 10.2011L3.53 9.38114C3.32 9.02114 2.86 8.90114 2.5 9.10114C2.14 9.31114 2.02 9.77114 2.23 10.1311L2.7 10.9511H1.75C1.34 10.9511 1 11.2911 1 11.7011C1 12.1111 1.34 12.4511 1.75 12.4511H2.7L2.22 13.2811C2.02 13.6411 2.14 14.1011 2.5 14.3011ZM10.5 14.3011C10.86 14.5111 11.32 14.3811 11.53 14.0211L12 13.2011L12.48 14.0311C12.69 14.3911 13.15 14.5111 13.51 14.3111C13.87 14.1011 13.99 13.6511 13.79 13.2911L13.31 12.4611H14.26C14.67 12.4611 15.01 12.1211 15.01 11.7111C15.01 11.3011 14.67 10.9611 14.26 10.9611H13.3L13.77 10.1411C13.98 9.78114 13.85 9.32114 13.5 9.11114C13.14 8.90114 12.68 9.03114 12.48 9.38114L12 10.2011L11.53 9.38114C11.32 9.02114 10.86 8.90114 10.51 9.11114C10.15 9.32114 10.03 9.78114 10.24 10.1411L10.71 10.9611H9.75C9.34 10.9511 9 11.2911 9 11.7011C9 12.1111 9.34 12.4511 9.75 12.4511H10.7L10.22 13.2811C10.02 13.6411 10.14 14.1011 10.5 14.3011ZM23 11.7011C23 11.2911 22.66 10.9511 22.25 10.9511H21.3L21.77 10.1311C21.98 9.77114 21.85 9.31114 21.5 9.10114C21.14 8.89114 20.68 9.02114 20.48 9.37114L20 10.2011L19.53 9.38114C19.32 9.02114 18.86 8.90114 18.51 9.11114C18.15 9.32114 18.03 9.78114 18.24 10.1411L18.71 10.9611H17.76C17.34 10.9511 17 11.2911 17 11.7011C17 12.1111 17.34 12.4511 17.75 12.4511H18.7L18.22 13.2811C18.01 13.6411 18.14 14.1011 18.5 14.3011C18.86 14.5111 19.32 14.3811 19.53 14.0211L20 13.2011L20.48 14.0311C20.69 14.3911 21.15 14.5111 21.51 14.3111C21.87 14.1011 21.99 13.6511 21.79 13.2911L21.31 12.4611H22.26C22.66 12.4511 23 12.1111 23 11.7011Z"
    fill="#0D0D15"
  />
</svg>
