<svg width="24" height="24" viewBox="0 0 24 24" fill="none" xmlns="http://www.w3.org/2000/svg">
  <path
    d="M4 6.3998C4 6.04998 4.19022 5.73019 4.49137 5.57374L10.8074 2.29251C11.5582 1.9025 12.4418 1.9025 13.1926 2.29251L19.5086 5.57374C19.8098 5.73019 20 6.04998 20 6.3998V7.24097L19.9946 7.24339C19.3778 6.96992 18.6661 6.9242 18 7.15374V7.04378L12.2706 4.0673C12.0978 3.97757 11.9022 3.97757 11.7294 4.0673L6 7.04378V7.1456C5.33752 6.9256 4.62223 6.96779 4 7.24431V6.3998Z"
    fill="#0D0D15"
  />
  <path
    d="M20 10.201L19.53 9.38103C19.3582 9.08659 19.0193 8.9527 18.71 9.02858C18.6411 9.04548 18.5737 9.07278 18.51 9.11103C18.4468 9.14789 18.391 9.19245 18.3431 9.24282C18.2049 9.38813 18.1322 9.58178 18.1369 9.77834C18.1374 9.80243 18.1392 9.82657 18.1421 9.85066C18.1541 9.95013 18.1862 10.0489 18.24 10.1411L18.7099 10.961L17.76 10.9611C17.34 10.9511 17 11.2911 17 11.7011C17 12.1111 17.34 12.4511 17.75 12.4511H18.6999L18.22 13.281C18.1663 13.3731 18.1348 13.4717 18.1238 13.5708C18.1171 13.6307 18.1178 13.6908 18.1256 13.7498C18.1554 13.9748 18.2877 14.1832 18.5 14.3011C18.86 14.5111 19.32 14.3811 19.53 14.0211L20 13.2011L20.48 14.0311C20.69 14.3911 21.15 14.5111 21.51 14.3111C21.87 14.1011 21.99 13.6511 21.79 13.2911L21.31 12.4611H22.26C22.66 12.4511 23 12.1111 23 11.7011C23 11.2911 22.66 10.9511 22.25 10.9511H21.3L21.77 10.1311C21.98 9.77114 21.85 9.31114 21.5 9.10114C21.14 8.89114 20.68 9.02114 20.48 9.37114L20 10.201Z"
    fill="#0D0D15"
  />
  <path
    d="M17.0136 15.6796C17.1623 15.8151 17.3282 15.936 17.5102 16.039C17.954 16.2935 18.4315 16.4088 18.8989 16.4034C17.555 18.9879 15.1774 20.8745 12.885 21.8235C12.3164 22.0588 11.6836 22.0588 11.115 21.8235C8.82365 20.8749 6.44707 18.9895 5.10285 16.4068C5.57239 16.4129 6.04784 16.3001 6.48129 16.0593L6.49962 16.0492L6.51774 16.0386C6.69152 15.9372 6.84993 15.8201 6.9923 15.6902C8.09357 17.6753 9.96887 19.1844 11.88 19.9755C11.9587 20.0082 12.0413 20.0082 12.12 19.9755C14.0345 19.183 15.9131 17.6699 17.0136 15.6796Z"
    fill="#0D0D15"
  />
  <path
    d="M5.30006 10.951L5.77 10.1311C5.83597 10.0181 5.86937 9.8951 5.873 9.77313C5.87348 9.75705 5.87344 9.74099 5.87289 9.72497C5.86682 9.54723 5.79784 9.37464 5.67469 9.24114C5.62507 9.18735 5.56665 9.13991 5.5 9.10103C5.43585 9.06539 5.36852 9.03991 5.3 9.02414C4.98621 8.95193 4.64737 9.08331 4.47366 9.37483L4.47 9.38103L4 10.201L3.53 9.38114C3.32 9.02114 2.86 8.90114 2.5 9.10114C2.14 9.31114 2.02 9.77114 2.23 10.1311L2.7 10.9511H1.75C1.34 10.9511 1 11.2911 1 11.7011C1 12.1111 1.34 12.4511 1.75 12.4511H2.7L2.22 13.2811C2.02 13.6411 2.14 14.1011 2.5 14.3011C2.86 14.5111 3.32 14.3811 3.53 14.0211L4 13.2011L4.48 14.0311C4.69 14.3911 5.15 14.5111 5.51 14.3111C5.75258 14.1696 5.88619 13.9192 5.88635 13.6607C5.88644 13.5355 5.85525 13.4085 5.79 13.291L5.30006 12.4511H6.25C6.66 12.4511 7 12.1111 7 11.7011C7 11.2911 6.66 10.9511 6.25 10.9511L5.30006 10.951Z"
    fill="#0D0D15"
  />
  <path
    d="M11.53 14.0211C11.32 14.3811 10.86 14.5111 10.5 14.3011C10.14 14.1011 10.02 13.6411 10.22 13.2811L10.7 12.4511H9.75C9.34 12.4511 9 12.1111 9 11.7011C9 11.2911 9.34 10.9511 9.75 10.9611H10.71L10.24 10.1411C10.03 9.78114 10.15 9.32114 10.51 9.11114C10.86 8.90114 11.32 9.02114 11.53 9.38114L12 10.2011L12.48 9.38114C12.68 9.03114 13.14 8.90114 13.5 9.11114C13.85 9.32114 13.98 9.78114 13.77 10.1411L13.3 10.9611H14.26C14.67 10.9611 15.01 11.3011 15.01 11.7111C15.01 12.1211 14.67 12.4611 14.26 12.4611H13.31L13.79 13.2911C13.99 13.6511 13.87 14.1011 13.51 14.3111C13.15 14.5111 12.69 14.3911 12.48 14.0311L12 13.2011L11.53 14.0211Z"
    fill="#0D0D15"
  />
</svg>
