<svg width="24" height="24" viewBox="0 0 24 24" fill="none" xmlns="http://www.w3.org/2000/svg">
  <path
    fill-rule="evenodd"
    clip-rule="evenodd"
    d="M4 5C4 3.34315 5.34315 2 7 2H17C18.6569 2 20 3.34315 20 5V10H21C22.6569 10 24 11.3431 24 13V21C24 22.6569 22.6569 24 21 24H15C13.6938 24 12.5825 23.1652 12.1707 22H7C5.34314 22 4 20.6569 4 19V5ZM12 20V13C12 11.3431 13.3431 10 15 10H18V5C18 4.44772 17.5523 4 17 4H16V4.9C16 6.0598 15.0598 7 13.9 7H10.1C8.9402 7 8 6.0598 8 4.9V4H7C6.44772 4 6 4.44772 6 5V19C6 19.5523 6.44771 20 7 20H12ZM14 4H10V4.9C10 4.95523 10.0448 5 10.1 5H13.9C13.9552 5 14 4.95523 14 4.9V4ZM15 12C14.4477 12 14 12.4477 14 13V21C14 21.5523 14.4477 22 15 22H21C21.5523 22 22 21.5523 22 21V14H20C19.4477 14 19 13.5523 19 13V12H15Z"
    fill="#0D0D15"
  />
</svg>
