<svg width="24" height="24" viewBox="0 0 24 24" fill="none" xmlns="http://www.w3.org/2000/svg">
  <path
    d="M7.5 6C8.32843 6 9 5.32843 9 4.5C9 3.67157 8.32843 3 7.5 3C6.67157 3 6 3.67157 6 4.5C6 5.32843 6.67157 6 7.5 6Z"
    fill="#0D0D15"
  />
  <path
    d="M16.5 6C17.3284 6 18 5.32843 18 4.5C18 3.67157 17.3284 3 16.5 3C15.6716 3 15 3.67157 15 4.5C15 5.32843 15.6716 6 16.5 6Z"
    fill="#0D0D15"
  />
  <path
    fill-rule="evenodd"
    clip-rule="evenodd"
    d="M13.0785 10.6846C13.6327 10.329 14 9.70741 14 9C14 7.89543 13.1046 7 12 7C10.8954 7 10 7.89543 10 9C10 9.70741 10.3673 10.329 10.9215 10.6846C10.6118 12.0116 9.42133 13 8 13C6.34315 13 5 11.6569 5 10C5 9.44771 4.55228 9 4 9C3.44772 9 3 9.44771 3 10C3 12.7614 5.23858 15 8 15V16C8 18.2091 9.79086 20 12 20C14.2091 20 16 18.2091 16 16V15C18.7614 15 21 12.7614 21 10C21 9.44771 20.5523 9 20 9C19.4477 9 19 9.44771 19 10C19 11.6569 17.6569 13 16 13C14.5787 13 13.3882 12.0116 13.0785 10.6846ZM14 14.584V16C14 17.1046 13.1046 18 12 18C10.8954 18 10 17.1046 10 16V14.584C10.7963 14.2361 11.4844 13.6868 12 13.0005C12.5156 13.6868 13.2037 14.2361 14 14.584Z"
    fill="#0D0D15"
  />
</svg>
