<svg width="24" height="24" viewBox="0 0 24 24" fill="none" xmlns="http://www.w3.org/2000/svg">
  <path
    fill-rule="evenodd"
    clip-rule="evenodd"
    d="M17.8835 3.20257C17.3265 2.93248 16.6735 2.93248 16.1165 3.20257L13.748 4.351C13.3013 4.56758 13 5.02222 13 5.53993L13 7.47942C13 9.76144 14.8 11.2885 16.3077 11.871C16.7529 12.043 17.2471 12.043 17.6923 11.871C19.2 11.2885 21 9.76144 21 7.47942V5.53993C21 5.02222 20.6987 4.56758 20.252 4.351L17.8835 3.20257ZM16.9891 5.00218C16.9912 5.00117 16.9949 5 17 5C17.0051 5 17.0088 5.00117 17.0109 5.00218L19 5.96663V7.47942C19 8.60408 18.0754 9.5682 17 9.99425C15.9246 9.5682 15 8.60408 15 7.47942V5.96663L16.9891 5.00218Z"
    fill="#0D0D15"
  />
  <path
    fill-rule="evenodd"
    clip-rule="evenodd"
    d="M9.35114 9.09119L7.26319 11.2529C7.89371 12.2346 8.69853 13.2589 9.72542 14.2857C10.7689 15.3292 11.8093 16.1429 12.8047 16.7771L14.8961 14.6858C15.3926 14.1894 16.1131 13.9898 16.7943 14.1601L19.486 14.833C20.3758 15.0554 21 15.8549 21 16.772L21 19.533C21 20.2896 20.4079 21.0094 19.537 20.9999C17.9338 20.9824 13.1041 20.4911 8.31201 15.699C3.5204 10.9075 3.02083 6.07098 3.00013 4.46596C2.98889 3.59406 3.70922 3 4.46723 3H7.22948C8.14462 3 8.94289 3.62146 9.16729 4.50863L9.85122 7.21253C10.0208 7.88309 9.83168 8.59368 9.35114 9.09119ZM6.25092 9.42384C5.36691 7.53579 5.1005 5.94168 5.02554 4.99873H7.22948L7.91341 7.70264L6.25092 9.42384ZM19.0012 18.9756C18.0681 18.903 16.4955 18.643 14.6301 17.7784L16.3095 16.0992L19.0012 16.772L19.0012 18.9756Z"
    fill="#0D0D15"
  />
</svg>
