<svg width="24" height="24" viewBox="0 0 24 24" fill="none" xmlns="http://www.w3.org/2000/svg">
  <path
    d="M8.5 11C9.32843 11 10 10.3284 10 9.5C10 8.67157 9.32843 8 8.5 8C7.67157 8 7 8.67157 7 9.5C7 10.3284 7.67157 11 8.5 11Z"
    fill="#0D0D15"
  />
  <path
    fill-rule="evenodd"
    clip-rule="evenodd"
    d="M6 4H18C20.2091 4 22 5.79086 22 8V16C22 18.2091 20.2091 20 18 20H6C3.79086 20 2 18.2091 2 16V8C2 5.79086 3.79086 4 6 4ZM6 6C4.89543 6 4 6.89543 4 8V14.4695L5.34315 13.639L5.42179 13.5902C5.75148 13.3855 6.08307 13.1796 6.45664 13.0835C6.78273 12.9996 7.12241 12.9825 7.45529 13.0331C7.83663 13.0911 8.18727 13.2625 8.53591 13.433L8.61906 13.4736L9.14742 13.7307C9.67681 13.9884 9.73995 14.0055 9.78213 14.0111C9.85332 14.0204 9.9257 14.0144 9.99434 13.9933C10.035 13.9808 10.0944 13.9534 10.5736 13.6113L13.0792 11.8223L13.1723 11.7556C13.5566 11.4799 13.9422 11.2033 14.3871 11.0845C14.7747 10.9811 15.1815 10.9725 15.5731 11.0593C16.0227 11.159 16.4197 11.419 16.8153 11.6781L16.9112 11.7408L20 13.7537V8C20 6.89543 19.1046 6 18 6H6ZM6 18C5.15487 18 4.43216 17.4758 4.1393 16.7348L6.39497 15.34C6.85999 15.0525 6.91607 15.0304 6.95489 15.0204C7.02011 15.0037 7.08805 15.0002 7.15462 15.0104C7.19425 15.0164 7.25227 15.0327 7.74388 15.272L8.27224 15.5291L8.362 15.5729C8.73642 15.7561 9.11274 15.9401 9.52083 15.9939C9.87679 16.0408 10.2387 16.0105 10.5819 15.905C10.9753 15.7841 11.3158 15.54 11.6545 15.2971L11.7357 15.239L14.2414 13.4499C14.7879 13.0597 14.8573 13.029 14.9028 13.0169C14.9803 12.9962 15.0617 12.9945 15.14 13.0119C15.1859 13.0221 15.2566 13.0498 15.8192 13.4164L19.9953 16.1378C19.9245 17.1781 19.0582 18 18 18H6Z"
    fill="#0D0D15"
  />
</svg>
