<svg width="24" height="24" viewBox="0 0 24 24" fill="none" xmlns="http://www.w3.org/2000/svg">
  <path
    fill-rule="evenodd"
    clip-rule="evenodd"
    d="M7 2H17C17.55 2 18 2.45 18 3C18 3.55 17.55 4 17 4H16V9C16 10.66 17.34 12 19 12C19.5523 12 20 12.4477 20 13C20 13.5523 19.5523 14 19 14H13V21C13 21.5523 12.5523 22 12 22C11.4477 22 11 21.5523 11 21V14H5C4.44772 14 4 13.5523 4 13C4 12.4477 4.44772 12 5 12C6.66 12 8 10.66 8 9V4H7C6.45 4 6 3.55 6 3C6 2.45 6.45 2 7 2ZM9 12H15C14.37 11.16 14 10.12 14 9V4H10V9C10 10.1 9.65 11.14 9 12Z"
    fill="#0D0D15"
  />
</svg>
