<svg width="24" height="24" viewBox="0 0 24 24" fill="none" xmlns="http://www.w3.org/2000/svg">
  <path
    d="M6 3C4.34314 3 3 4.34315 3 6V7C3 7.55228 3.44772 8 4 8C4.55228 8 5 7.55228 5 7V6C5 5.44772 5.44772 5 6 5H7C7.55228 5 8 4.55228 8 4C8 3.44772 7.55228 3 7 3H6Z"
    fill="#0D0D15"
  />
  <path
    d="M18 3C19.6569 3 21 4.34314 21 6V7C21 7.55228 20.5523 8 20 8C19.4477 8 19 7.55228 19 7V6C19 5.44772 18.5523 5 18 5H17C16.4477 5 16 4.55228 16 4C16 3.44772 16.4477 3 17 3H18Z"
    fill="#0D0D15"
  />
  <path
    d="M19 18C19 18.5523 18.5523 19 18 19H17C16.4477 19 16 19.4477 16 20C16 20.5523 16.4477 21 17 21H18C19.6569 21 21 19.6569 21 18V17C21 16.4477 20.5523 16 20 16C19.4477 16 19 16.4477 19 17V18Z"
    fill="#0D0D15"
  />
  <path
    d="M5 18C5 18.5523 5.44772 19 6 19H7C7.55228 19 8 19.4477 8 20C8 20.5523 7.55228 21 7 21H6C4.34315 21 3 19.6569 3 18V17C3 16.4477 3.44772 16 4 16C4.55228 16 5 16.4477 5 17V18Z"
    fill="#0D0D15"
  />
  <path
    d="M3 11C3 10.4477 3.44772 10 4 10C4.55228 10 5 10.4477 5 11V13C5 13.5523 4.55228 14 4 14C3.44772 14 3 13.5523 3 13V11Z"
    fill="#0D0D15"
  />
  <path
    d="M20 10C19.4477 10 19 10.4477 19 11V13C19 13.5523 19.4477 14 20 14C20.5523 14 21 13.5523 21 13V11C21 10.4477 20.5523 10 20 10Z"
    fill="#0D0D15"
  />
  <path
    d="M11 5C10.4477 5 10 4.55228 10 4C10 3.44772 10.4477 3 11 3H13C13.5523 3 14 3.44772 14 4C14 4.55228 13.5523 5 13 5H11Z"
    fill="#0D0D15"
  />
  <path
    d="M10 20C10 20.5523 10.4477 21 11 21H13C13.5523 21 14 20.5523 14 20C14 19.4477 13.5523 19 13 19H11C10.4477 19 10 19.4477 10 20Z"
    fill="#0D0D15"
  />
</svg>
