<svg width="24" height="24" viewBox="0 0 24 24" fill="none" xmlns="http://www.w3.org/2000/svg">
  <path
    fill-rule="evenodd"
    clip-rule="evenodd"
    d="M12.2123 7.83943L12.2115 7.83882C11.6257 7.40281 10.8518 7.3867 10.2492 7.79662C9.68119 8.18361 9.40576 8.8433 9.40576 9.46542V14.5355C9.40576 15.1569 9.6801 15.8152 10.2464 16.2021C10.5316 16.3975 10.8623 16.4999 11.2003 16.4999C11.5683 16.4999 11.9193 16.3778 12.2107 16.1618L15.6232 13.6226C16.1544 13.2277 16.4058 12.5989 16.4058 11.9974C16.4058 11.393 16.1518 10.7648 15.6214 10.371L12.2123 7.83943ZM14.4009 11.9558L11.4058 9.73164V14.2678L14.401 12.0391L14.4022 12.0342C14.4042 12.0248 14.4058 12.0124 14.4058 11.9974C14.4058 11.9826 14.4042 11.9705 14.4022 11.9612L14.4009 11.9558Z"
    fill="#0D0D15"
  />
  <path
    fill-rule="evenodd"
    clip-rule="evenodd"
    d="M12 22C17.5228 22 22 17.5228 22 12C22 6.47715 17.5228 2 12 2C6.47715 2 2 6.47715 2 12C2 17.5228 6.47715 22 12 22ZM20 12C20 16.4183 16.4183 20 12 20C7.58172 20 4 16.4183 4 12C4 7.58172 7.58172 4 12 4C16.4183 4 20 7.58172 20 12Z"
    fill="#0D0D15"
  />
</svg>
