<svg width="24" height="24" viewBox="0 0 24 24" fill="none" xmlns="http://www.w3.org/2000/svg">
  <path
    fill-rule="evenodd"
    clip-rule="evenodd"
    d="M19 14.8293V16C19 18.2091 17.2091 20 15 20H12V19C12 18.4477 11.5523 18 11 18C10.4477 18 10 18.4477 10 19V20H7C4.79086 20 3 18.2091 3 16V8C3 5.79086 4.79086 4 7 4H8.17071C8.58254 2.83481 9.69378 2 11 2C12.3062 2 13.4175 2.83481 13.8293 4H15C17.2091 4 19 5.79086 19 8V9.17071C20.1652 9.58254 21 10.6938 21 12C21 13.3062 20.1652 14.4175 19 14.8293ZM8.17071 18H7C5.89543 18 5 17.1046 5 16V8C5 6.89543 5.89543 6 7 6H10V5C10 4.44772 10.4477 4 11 4C11.5523 4 12 4.44772 12 5V6H15C16.1046 6 17 6.89543 17 8V11H18C18.5523 11 19 11.4477 19 12C19 12.5523 18.5523 13 18 13H17V16C17 17.1046 16.1046 18 15 18H13.8293C13.4175 16.8348 12.3062 16 11 16C9.69378 16 8.58254 16.8348 8.17071 18Z"
    fill="#0D0D15"
  />
</svg>
