<svg width="24" height="24" viewBox="0 0 24 24" fill="none" xmlns="http://www.w3.org/2000/svg">
  <path
    d="M12.0036 3C11.4536 3 11.0036 3.45 11.0036 4V12C11.0036 12.55 11.4536 13 12.0036 13C12.5536 13 13.0036 12.55 13.0036 12V4C13.0036 3.45 12.5536 3 12.0036 3ZM17.1436 5.86C16.7536 6.25 16.7636 6.86 17.1336 7.25C18.2636 8.45 18.9636 10.05 19.0036 11.82C19.0936 15.65 15.9236 18.95 12.0936 18.99C8.18359 19.05 5.00359 15.9 5.00359 12C5.00359 10.16 5.71359 8.49 6.87359 7.24C7.24359 6.85 7.24359 6.24 6.86359 5.86C6.46359 5.46 5.81359 5.47 5.43359 5.88C3.98359 7.42 3.07359 9.47 3.00359 11.74C2.86359 16.62 6.83359 20.84 11.7136 20.99C16.8136 21.15 21.0036 17.06 21.0036 11.99C21.0036 9.62 20.0836 7.48 18.5836 5.88C18.2036 5.47 17.5436 5.46 17.1436 5.86V5.86Z"
    fill="#0D0D15"
  />
</svg>
