<svg width="24" height="24" viewBox="0 0 24 24" fill="none" xmlns="http://www.w3.org/2000/svg">
  <path
    fill-rule="evenodd"
    clip-rule="evenodd"
    d="M11.9996 3C11.5014 3 11.0703 3.2617 10.8179 3.6416L8.14052 7.67289L4.30279 4.58697C3.85712 4.2243 3.24848 4.16951 2.74438 4.44963L2.74054 4.45179C2.22572 4.74085 2 5.27424 2 5.74899V16.6923C2 18.4951 3.43136 20 5.25 20H18.75C20.5686 20 22 18.4951 22 16.6923V5.74899C22 5.27424 21.7743 4.74085 21.2595 4.45179L21.2556 4.44963C20.7515 4.16951 20.1429 4.2243 19.6972 4.58697L15.8595 7.67289L13.1821 3.6416C12.9297 3.2617 12.4977 3 11.9996 3ZM9.02574 9.95503L11.9996 5.47735L14.9743 9.95503C15 10 15.5 10.5 16.213 9.95503L20 6.90988V14H4V6.90988L7.78703 9.95503C8.5 10.5 9 10 9.02574 9.95503ZM4 16V16.6923C4 17.4385 4.58336 18 5.25 18H18.75C19.4166 18 20 17.4385 20 16.6923V16H4Z"
    fill="#0D0D15"
  />
</svg>
    