<svg width="24" height="24" viewBox="0 0 24 24" fill="none" xmlns="http://www.w3.org/2000/svg">
  <path
    d="M19.2 12V21H4.79999V12M12 21V7.5M12 7.5L7.94998 7.5C7.35324 7.5 6.78095 7.26295 6.35899 6.84099C5.93703 6.41903 5.69998 5.84674 5.69998 5.25C5.69998 4.65326 5.93703 4.08097 6.35899 3.65901C6.78095 3.23705 7.35324 3 7.94998 3C11.1 3 12 7.5 12 7.5ZM12 7.5L16.05 7.5C16.6467 7.5 17.219 7.26295 17.641 6.84099C18.0629 6.41903 18.3 5.84674 18.3 5.25C18.3 4.65326 18.0629 4.08097 17.641 3.65901C17.219 3.23705 16.6467 3 16.05 3C12.9 3 12 7.5 12 7.5ZM4 7.5H20V12H4V7.5Z"
    stroke="#0D0D15"
    stroke-width="2"
    stroke-linecap="round"
    stroke-linejoin="round"
  />
</svg>
