<svg width="24" height="24" viewBox="0 0 24 24" fill="none" xmlns="http://www.w3.org/2000/svg">
  <path
    fill-rule="evenodd"
    clip-rule="evenodd"
    d="M14.7207 10H14.9399C16.3165 10 17.5165 10.9369 17.8504 12.2724L19.3504 18.2724C19.8237 20.1658 18.3916 22 16.4399 22H7.00148C5.04976 22 3.61769 20.1658 4.09105 18.2724L5.59105 12.2724C5.92493 10.9369 7.12488 10 8.50148 10H8.7207V5C8.7207 3.34315 10.0638 2 11.7207 2C13.3776 2 14.7207 3.34315 14.7207 5V10ZM14.9399 12H8.50148C8.04261 12 7.64263 12.3123 7.53134 12.7575L7.2207 14H16.2207L15.9101 12.7575C15.7988 12.3123 15.3988 12 14.9399 12ZM6.03134 18.7575L6.7207 16H16.7207L17.4101 18.7575C17.5679 19.3886 17.0905 20 16.4399 20H10V19C10 18.4477 9.55229 18 9 18C8.44771 18 8 18.4477 8 19V20H7.00148C6.35091 20 5.87355 19.3886 6.03134 18.7575ZM12.7207 10V5C12.7207 4.44772 12.273 4 11.7207 4C11.1684 4 10.7207 4.44772 10.7207 5V10H12.7207Z"
    fill="#0D0D15"
  />
</svg>
