<svg width="24" height="24" viewBox="0 0 24 24" fill="none" xmlns="http://www.w3.org/2000/svg">
  <path
    fill-rule="evenodd"
    clip-rule="evenodd"
    d="M12 13C13.933 13 15.5 11.433 15.5 9.50003C15.5 7.56703 13.933 6.00003 12 6.00003C10.067 6.00003 8.5 7.56703 8.5 9.50003C8.5 11.433 10.067 13 12 13ZM13.5 9.50003C13.5 10.3285 12.8284 11 12 11C11.1716 11 10.5 10.3285 10.5 9.50003C10.5 8.6716 11.1716 8.00003 12 8.00003C12.8284 8.00003 13.5 8.6716 13.5 9.50003Z"
    fill="#0D0D15"
  />
  <path
    fill-rule="evenodd"
    clip-rule="evenodd"
    d="M4 6.3998C4 6.04998 4.19022 5.73019 4.49137 5.57374L10.8074 2.29251C11.5582 1.9025 12.4418 1.9025 13.1926 2.29251L19.5086 5.57374C19.8098 5.73019 20 6.04998 20 6.3998V11.9412C20 16.8221 16.3453 20.391 12.885 21.8235C12.3164 22.0588 11.6836 22.0588 11.115 21.8235C7.65471 20.391 4 16.8221 4 11.9412V6.3998ZM11.7294 4.0673C11.9022 3.97757 12.0978 3.97757 12.2706 4.0673L18 7.04378V11.9412C18 13.0705 17.7461 14.1271 17.3112 15.0872C16.7609 14.4231 15.9298 14 15 14H9C8.07015 14 7.23911 14.4231 6.68884 15.0872C6.25392 14.1271 6 13.0705 6 11.9412V7.04378L11.7294 4.0673ZM16 17V17.1433C14.9248 18.4143 13.5322 19.3909 12.12 19.9755C12.0413 20.0082 11.9587 20.0082 11.88 19.9755C10.4678 19.3909 9.07522 18.4143 8 17.1433V17C8 16.4477 8.44772 16 9 16H15C15.5523 16 16 16.4477 16 17Z"
    fill="#0D0D15"
  />
</svg>
