<svg width="24" height="24" viewBox="0 0 24 24" fill="none" xmlns="http://www.w3.org/2000/svg">
  <path
    d="M12 11C13.1046 11 14 10.1046 14 9C14 7.89543 13.1046 7 12 7C10.8954 7 10 7.89543 10 9C10 10.1046 10.8954 11 12 11Z"
    fill="#0D0D15"
  />
  <path
    fill-rule="evenodd"
    clip-rule="evenodd"
    d="M16 2H8C6.34315 2 5 3.34314 5 5C3.34315 5 2 6.34315 2 8C2 8.82576 2.33363 9.57359 2.87344 10.1161L5.60235 12.8451C6.56327 15.0026 8.58355 16.5843 11.0024 16.9295C11.0008 16.9528 11 16.9763 11 17V20H9C8.44772 20 8 20.4477 8 21C8 21.5523 8.44772 22 9 22H15C15.5523 22 16 21.5523 16 21C16 20.4477 15.5523 20 15 20H13V17C13 16.9763 12.9992 16.9528 12.9976 16.9295C15.4164 16.5843 17.4367 15.0026 18.3977 12.8451L21.1266 10.1161C21.6664 9.57359 22 8.82576 22 8C22 6.34315 20.6569 5 19 5C19 3.34315 17.6569 2 16 2ZM19.686 8.72833L19 9.41431V7C19.5523 7 20 7.44772 20 8C20 8.28692 19.8795 8.54597 19.686 8.72833ZM5 9.41431V7C4.44772 7 4 7.44772 4 8C4 8.28692 4.12047 8.54597 4.31403 8.72833L5 9.41431ZM7 5C7 4.44771 7.44772 4 8 4H16C16.5523 4 17 4.44772 17 5V10C17 12.7614 14.7614 15 12 15C9.23858 15 7 12.7614 7 10V5Z"
    fill="#0D0D15"
  />
</svg>
