<svg width="24" height="24" viewBox="0 0 24 24" fill="none" xmlns="http://www.w3.org/2000/svg">
  <path
    d="M5 3C5 2.44772 5.44772 2 6 2H18C18.5523 2 19 2.44772 19 3C19 3.55228 18.5523 4 18 4H6C5.44772 4 5 3.55228 5 3Z"
    fill="#0D0D15"
  />
  <path
    fill-rule="evenodd"
    clip-rule="evenodd"
    d="M12.0356 15C13.9686 15 15.5356 13.433 15.5356 11.5C15.5356 9.567 13.9686 8 12.0356 8C10.1026 8 8.53564 9.567 8.53564 11.5C8.53564 13.433 10.1026 15 12.0356 15ZM13.5356 11.5C13.5356 12.3284 12.8641 13 12.0356 13C11.2072 13 10.5356 12.3284 10.5356 11.5C10.5356 10.6716 11.2072 10 12.0356 10C12.8641 10 13.5356 10.6716 13.5356 11.5Z"
    fill="#0D0D15"
  />
  <path
    fill-rule="evenodd"
    clip-rule="evenodd"
    d="M18 5H6C4.34315 5 3 6.34315 3 8V20C3 21.6569 4.34315 23 6 23H18C19.6569 23 21 21.6569 21 20V8C21 6.34314 19.6569 5 18 5ZM18 21C18.5523 21 19 20.5523 19 20V8C19 7.44772 18.5523 7 18 7H6C5.44772 7 5 7.44772 5 8V20C5 20.5523 5.44772 21 6 21L6 20C6 17.7909 7.79086 16 10 16H14C16.2091 16 18 17.7909 18 20V21ZM8 21H16V20C16 18.8954 15.1046 18 14 18H10C8.89543 18 8 18.8954 8 20V21Z"
    fill="#0D0D15"
  />
</svg>
