<svg width="24" height="24" viewBox="0 0 24 24" fill="none" xmlns="http://www.w3.org/2000/svg">
  <path
    fill-rule="evenodd"
    clip-rule="evenodd"
    d="M3 5C3 4.44772 3.44772 4 4 4C4.55228 4 5 4.44772 5 5V8C5 8.05652 4.99531 8.11194 4.9863 8.1659C6.15865 8.57385 7 9.68867 7 11C7 12.3062 6.16519 13.4175 5 13.8293V19C5 19.5523 4.55228 20 4 20C3.44772 20 3 19.5523 3 19V13.8293C1.83481 13.4175 1 12.3062 1 11C1 9.68867 1.84135 8.57385 3.0137 8.1659C3.00469 8.11194 3 8.05652 3 8V5ZM3 11C3 10.4477 3.44772 10 4 10C4.55228 10 5 10.4477 5 11C5 11.5523 4.55228 12 4 12C3.44772 12 3 11.5523 3 11Z"
    fill="#0D0D15"
  />
  <path
    fill-rule="evenodd"
    clip-rule="evenodd"
    d="M11 5C11 4.44772 11.4477 4 12 4C12.5523 4 13 4.44772 13 5V12C13 12.0565 12.9953 12.1119 12.9863 12.1659C14.1586 12.5738 15 13.6887 15 15C15 16.3062 14.1652 17.4175 13 17.8293V19C13 19.5523 12.5523 20 12 20C11.4477 20 11 19.5523 11 19V17.8293C9.83481 17.4175 9 16.3062 9 15C9 13.6887 9.84135 12.5738 11.0137 12.1659C11.0047 12.1119 11 12.0565 11 12V5ZM12 16C12.5523 16 13 15.5523 13 15C13 14.4477 12.5523 14 12 14C11.4477 14 11 14.4477 11 15C11 15.5523 11.4477 16 12 16Z"
    fill="#0D0D15"
  />
  <path
    fill-rule="evenodd"
    clip-rule="evenodd"
    d="M19 5C19 4.44772 19.4477 4 20 4C20.5523 4 21 4.44772 21 5V6C21 6.05652 20.9953 6.11194 20.9863 6.1659C22.1586 6.57385 23 7.68867 23 9C23 10.3062 22.1652 11.4175 21 11.8293V19C21 19.5523 20.5523 20 20 20C19.4477 20 19 19.5523 19 19V11.8293C17.8348 11.4175 17 10.3062 17 9C17 7.68867 17.8414 6.57385 19.0137 6.1659C19.0047 6.11194 19 6.05652 19 6V5ZM20 10C20.5523 10 21 9.55228 21 9C21 8.44772 20.5523 8 20 8C19.4477 8 19 8.44772 19 9C19 9.55228 19.4477 10 20 10Z"
    fill="#0D0D15"
  />
</svg>
