<svg width="24" height="24" viewBox="0 0 24 24" fill="none" xmlns="http://www.w3.org/2000/svg">
  <path
    fill-rule="evenodd"
    clip-rule="evenodd"
    d="M12 13C13.933 13 15.5 11.433 15.5 9.5C15.5 7.567 13.933 6 12 6C10.067 6 8.5 7.567 8.5 9.5C8.5 11.433 10.067 13 12 13ZM13.5 9.5C13.5 10.3284 12.8284 11 12 11C11.1716 11 10.5 10.3284 10.5 9.5C10.5 8.67157 11.1716 8 12 8C12.8284 8 13.5 8.67157 13.5 9.5Z"
    fill="#0D0D15"
  />
  <path
    fill-rule="evenodd"
    clip-rule="evenodd"
    d="M22 12C22 17.5228 17.5228 22 12 22C6.47715 22 2 17.5228 2 12C2 6.47715 6.47715 2 12 2C17.5228 2 22 6.47715 22 12ZM13 19.9381C14.0819 19.8032 15.0968 19.4522 16 18.9297C16.3449 18.7302 16.6736 18.5057 16.9834 18.2586C16.9944 18.174 17 18.0876 17 18C17 16.8954 16.1046 16 15 16H13V19.9381ZM11 19.9381V16H9C7.89543 16 7 16.8954 7 18C7 18.0876 7.00564 18.174 7.01657 18.2586C7.32645 18.5057 7.65508 18.7302 8 18.9297C8.90321 19.4522 9.91806 19.8032 11 19.9381ZM15 14C16.6456 14 18.0591 14.9938 18.6732 16.4139C19.5117 15.1488 20 13.6314 20 12C20 7.58172 16.4183 4 12 4C7.58172 4 4 7.58172 4 12C4 13.6314 4.48833 15.1488 5.3268 16.4139C5.94086 14.9938 7.35438 14 9 14H15Z"
    fill="#0D0D15"
  />
</svg>
