<svg width="24" height="24" viewBox="0 0 24 24" fill="none" xmlns="http://www.w3.org/2000/svg">
  <path
    fill-rule="evenodd"
    clip-rule="evenodd"
    d="M15.5 9.5C15.5 11.433 13.933 13 12 13C10.067 13 8.5 11.433 8.5 9.5C8.5 7.567 10.067 6 12 6C13.933 6 15.5 7.567 15.5 9.5ZM12 11C12.8284 11 13.5 10.3284 13.5 9.5C13.5 8.67157 12.8284 8 12 8C11.1716 8 10.5 8.67157 10.5 9.5C10.5 10.3284 11.1716 11 12 11Z"
    fill="#0D0D15"
  />
  <path
    fill-rule="evenodd"
    clip-rule="evenodd"
    d="M12 22C17.5228 22 22 17.5228 22 12C22 6.47715 17.5228 2 12 2C6.47715 2 2 6.47715 2 12C2 17.5228 6.47715 22 12 22ZM16 18.9297C14.8233 19.6104 13.4571 20 12 20C10.5429 20 9.17669 19.6104 8 18.9297C7.65508 18.7302 7.32645 18.5057 7.01657 18.2586C7.00564 18.174 7 18.0876 7 18C7 16.8954 7.89543 16 9 16H15C16.1046 16 17 16.8954 17 18C17 18.0876 16.9944 18.174 16.9834 18.2586C16.6736 18.5057 16.3449 18.7302 16 18.9297ZM18.6732 16.4139C18.0591 14.9938 16.6456 14 15 14H9C7.35438 14 5.94086 14.9938 5.3268 16.4139C4.48833 15.1488 4 13.6314 4 12C4 7.58172 7.58172 4 12 4C16.4183 4 20 7.58172 20 12C20 13.6314 19.5117 15.1488 18.6732 16.4139Z"
    fill="#0D0D15"
  />
</svg>
