<svg width="24" height="24" viewBox="0 0 24 24" fill="none" xmlns="http://www.w3.org/2000/svg">
  <path
    d="M15.7071 9.50003C16.0976 9.89677 16.0976 10.54 15.7071 10.9368L12.4142 14.298C12.0237 14.6947 11.3905 14.6947 11 14.298L9 12.2662C8.60948 11.8694 8.60948 11.2262 9 10.8294C9.39052 10.4327 10.0237 10.4327 10.4142 10.8294L11.7071 12.1429L14.2929 9.50003C14.6834 9.10329 15.3166 9.10329 15.7071 9.50003Z"
    fill="#0D0D15"
  />
  <path
    fill-rule="evenodd"
    clip-rule="evenodd"
    d="M4 6.3998C4 6.04998 4.19022 5.73019 4.49137 5.57374L10.8074 2.29251C11.5582 1.9025 12.4418 1.9025 13.1926 2.29251L19.5086 5.57374C19.8098 5.73019 20 6.04998 20 6.3998V11.9412C20 16.8221 16.3453 20.391 12.885 21.8235C12.3164 22.0588 11.6836 22.0588 11.115 21.8235C7.65471 20.391 4 16.8221 4 11.9412V6.3998ZM11.7294 4.0673C11.9022 3.97757 12.0978 3.97757 12.2706 4.0673L18 7.04378V11.9412C18 15.7553 15.1037 18.7404 12.12 19.9755C12.0413 20.0082 11.9587 20.0082 11.88 19.9755C8.89635 18.7404 6 15.7553 6 11.9412V7.04378L11.7294 4.0673Z"
    fill="#0D0D15"
  />
</svg>
