<svg width="24" height="24" viewBox="0 0 24 24" fill="none" xmlns="http://www.w3.org/2000/svg">
  <path
    fill-rule="evenodd"
    clip-rule="evenodd"
    d="M8 3H6C4.34315 3 3 4.34315 3 6V8C3 9.65685 4.34315 11 6 11H8C9.65685 11 11 9.65685 11 8V6C11 4.34315 9.65685 3 8 3ZM5 6C5 5.44772 5.44772 5 6 5H8C8.55228 5 9 5.44772 9 6V8C9 8.55228 8.55228 9 8 9H6C5.44772 9 5 8.55228 5 8V6Z"
    fill="#0D0D15"
  />
  <path
    d="M13 13.5V14.5C13 14.78 13.22 15 13.5 15H14.5C14.78 15 15 14.78 15 14.5V13.5C15 13.22 14.78 13 14.5 13H13.5C13.22 13 13 13.22 13 13.5Z"
    fill="#0D0D15"
  />
  <path
    d="M21 20.5V19.5C21 19.22 20.78 19 20.5 19H19.5C19.22 19 19 19.22 19 19.5V20.5C19 20.78 19.22 21 19.5 21H20.5C20.78 21 21 20.78 21 20.5Z"
    fill="#0D0D15"
  />
  <path
    d="M16.5 15C16.78 15 17 15.22 17 15.5V16.5C17 16.78 16.78 17 16.5 17H15.5C15.22 17 15 16.78 15 16.5V15.5C15 15.22 15.22 15 15.5 15H16.5Z"
    fill="#0D0D15"
  />
  <path
    d="M13.5 17C13.22 17 13 17.22 13 17.5V18.5C13 18.78 13.22 19 13.5 19H14.5C14.78 19 15 18.78 15 18.5V17.5C15 17.22 14.78 17 14.5 17H13.5Z"
    fill="#0D0D15"
  />
  <path
    d="M16.5 21H15.5C15.22 21 15 20.78 15 20.5V19.5C15 19.22 15.22 19 15.5 19H16.5C16.78 19 17 19.22 17 19.5V20.5C17 20.78 16.78 21 16.5 21Z"
    fill="#0D0D15"
  />
  <path
    d="M18.5 19C18.78 19 19 18.78 19 18.5V17.5C19 17.22 18.78 17 18.5 17H17.5C17.22 17 17 17.22 17 17.5V18.5C17 18.78 17.22 19 17.5 19H18.5Z"
    fill="#0D0D15"
  />
  <path
    d="M17.5 13H18.5C18.78 13 19 13.22 19 13.5V14.5C19 14.78 18.78 15 18.5 15H17.5C17.22 15 17 14.78 17 14.5V13.5C17 13.22 17.22 13 17.5 13Z"
    fill="#0D0D15"
  />
  <path
    d="M19.5 17H20.5C20.78 17 21 16.78 21 16.5V15.5C21 15.22 20.78 15 20.5 15H19.5C19.22 15 19 15.22 19 15.5V16.5C19 16.78 19.22 17 19.5 17Z"
    fill="#0D0D15"
  />
  <path
    fill-rule="evenodd"
    clip-rule="evenodd"
    d="M16 3H18C19.6569 3 21 4.34315 21 6V8C21 9.65685 19.6569 11 18 11H16C14.3431 11 13 9.65685 13 8V6C13 4.34315 14.3431 3 16 3ZM16 5C15.4477 5 15 5.44772 15 6V8C15 8.55228 15.4477 9 16 9H18C18.5523 9 19 8.55228 19 8V6C19 5.44772 18.5523 5 18 5H16Z"
    fill="#0D0D15"
  />
  <path
    fill-rule="evenodd"
    clip-rule="evenodd"
    d="M8 13H6C4.34315 13 3 14.3431 3 16V18C3 19.6569 4.34315 21 6 21H8C9.65685 21 11 19.6569 11 18V16C11 14.3431 9.65685 13 8 13ZM5 16C5 15.4477 5.44772 15 6 15H8C8.55228 15 9 15.4477 9 16V18C9 18.5523 8.55228 19 8 19H6C5.44772 19 5 18.5523 5 18V16Z"
    fill="#0D0D15"
  />
  <path
    d="M6 6.5V7.5C6 7.78 6.22 8 6.5 8H7.5C7.78 8 8 7.78 8 7.5V6.5C8 6.22 7.78 6 7.5 6H6.5C6.22 6 6 6.22 6 6.5Z"
    fill="#0D0D15"
  />
</svg>
