<svg width="24" height="24" viewBox="0 0 24 24" fill="none" xmlns="http://www.w3.org/2000/svg">
  <path
    d="M12.0021 10.4026C11.0946 10.4026 10.3584 11.1376 10.3584 12.0464C10.3584 12.9551 11.0946 13.6889 12.0021 13.6889C12.9109 13.6889 13.6471 12.9551 13.6471 12.0464C13.6471 11.1376 12.9109 10.4026 12.0021 10.4026Z"
    fill="#0D0D15"
  />
  <path
    d="M15.0059 17.1989L13.3896 14.3964C12.9809 14.6376 12.5109 14.7851 12.0021 14.7851C11.4909 14.7851 11.0184 14.6364 10.6084 14.3926L8.99213 17.1914C10.9196 18.3039 13.2046 18.2314 15.0059 17.1989Z"
    fill="#0D0D15"
  />
  <path
    d="M5.97463 11.9764L9.26963 11.9776C9.29338 10.9839 9.85213 10.1289 10.6659 9.66889L8.98338 6.75389C8.09838 7.26389 7.33088 8.00764 6.78338 8.95514C6.23338 9.90889 5.97213 10.9501 5.97463 11.9764Z"
    fill="#0D0D15"
  />
  <path
    d="M14.7346 11.9651L18.0309 11.9639C18.0271 9.88514 16.9471 7.86389 15.0184 6.75014L13.3346 9.66639C14.1471 10.1239 14.7059 10.9751 14.7346 11.9651Z"
    fill="#0D0D15"
  />
  <path
    fill-rule="evenodd"
    clip-rule="evenodd"
    d="M22 12C22 17.5228 17.5228 22 12 22C6.47715 22 2 17.5228 2 12C2 6.47715 6.47715 2 12 2C17.5228 2 22 6.47715 22 12ZM20.125 12C20.125 16.4873 16.4873 20.125 12 20.125C7.51269 20.125 3.875 16.4873 3.875 12C3.875 7.51269 7.51269 3.875 12 3.875C16.4873 3.875 20.125 7.51269 20.125 12Z"
    fill="#0D0D15"
  />
</svg>
