<svg width="24" height="24" viewBox="0 0 24 24" fill="none" xmlns="http://www.w3.org/2000/svg">
  <path
    d="M8 7C8 6.44772 8.44771 6 9 6H15C15.5523 6 16 6.44772 16 7C16 7.55228 15.5523 8 15 8H9C8.44771 8 8 7.55228 8 7Z"
    fill="#0D0D15"
  />
  <path
    d="M9 9C8.44771 9 8 9.44771 8 10C8 10.5523 8.44771 11 9 11H12C12.5523 11 13 10.5523 13 10C13 9.44771 12.5523 9 12 9H9Z"
    fill="#0D0D15"
  />
  <path
    d="M8 13C8 12.4477 8.44772 12 9 12H14C14.5523 12 15 12.4477 15 13C15 13.5523 14.5523 14 14 14H9C8.44771 14 8 13.5523 8 13Z"
    fill="#0D0D15"
  />
  <path
    d="M12 17C11.4477 17 11 17.4477 11 18C11 18.5523 11.4477 19 12 19C12.5523 19 13 18.5523 13 18C13 17.4477 12.5523 17 12 17Z"
    fill="#0D0D15"
  />
  <path
    fill-rule="evenodd"
    clip-rule="evenodd"
    d="M8 2H16C18.2091 2 20 3.79086 20 6V18C20 20.2091 18.2091 22 16 22H8C5.79086 22 4 20.2091 4 18V6C4 3.79086 5.79086 2 8 2ZM8 4C6.89543 4 6 4.89543 6 6V18C6 19.1046 6.89543 20 8 20H16C17.1046 20 18 19.1046 18 18V6C18 4.89543 17.1046 4 16 4H8Z"
    fill="#0D0D15"
  />
</svg>
