<svg width="24" height="24" viewBox="0 0 24 24" fill="none" xmlns="http://www.w3.org/2000/svg">
  <path
    d="M19.7045 14.2906C18.5617 17.6275 15.7739 20.0137 12.1297 20.0477C9.03318 20.0766 6.32708 18.3534 4.95626 15.798L4.93887 15.7611L6.69419 15.7447C7.24645 15.7396 7.68997 15.2877 7.68482 14.7354C7.67968 14.1832 7.22781 13.7397 6.67555 13.7448L2.29927 13.7856C2.03407 13.7881 1.78071 13.8958 1.59493 14.0851C1.40915 14.2743 1.30617 14.5297 1.30864 14.7949L1.34944 19.1712C1.35459 19.7234 1.80645 20.1669 2.35871 20.1618C2.91098 20.1566 3.3545 19.7048 3.34935 19.1525L3.32917 16.9874C5.0766 20.0378 8.37896 22.0828 12.1483 22.0476C16.7729 22.0045 20.2246 18.9448 21.5966 14.9386C21.7755 14.4161 21.497 13.8474 20.9745 13.6685C20.452 13.4896 19.8834 13.7681 19.7045 14.2906Z"
    fill="#0D0D15"
  />
  <path
    d="M4.29568 9.70914C5.43844 6.37218 8.22628 3.98599 11.8705 3.95202C14.967 3.92315 17.6731 5.64636 19.0439 8.20175L19.0613 8.23865L17.306 8.25501C16.7537 8.26016 16.3102 8.71203 16.3153 9.26429C16.3205 9.81655 16.7724 10.2601 17.3246 10.2549L21.7009 10.2141C21.9661 10.2117 22.2195 10.1039 22.4052 9.91465C22.591 9.72538 22.694 9.47005 22.6915 9.20485L22.6507 4.82857C22.6456 4.27631 22.1937 3.83278 21.6414 3.83793C21.0892 3.84308 20.6457 4.29495 20.6508 4.84721L20.671 7.01227C18.9236 3.96196 15.6212 1.91697 11.8519 1.95211C7.22726 1.99522 3.77553 5.05488 2.40355 9.06117C2.22462 9.58367 2.50314 10.1523 3.02563 10.3312C3.54813 10.5101 4.11675 10.2316 4.29568 9.70914Z"
    fill="#0D0D15"
  />
</svg>
