<svg width="24" height="24" viewBox="0 0 24 24" fill="none" xmlns="http://www.w3.org/2000/svg">
  <path
    d="M16.6699 4.5C16.6699 3.94772 16.2222 3.5 15.6699 3.5C15.1176 3.5 14.6699 3.94772 14.6699 4.5V7.7679L11.8398 6.13394C11.3615 5.8578 10.7499 6.02167 10.4738 6.49997C10.1976 6.97826 10.3615 7.58985 10.8398 7.86599L13.6699 9.49998L10.8398 11.134C10.3615 11.4101 10.1976 12.0217 10.4738 12.5C10.7499 12.9783 11.3615 13.1422 11.8398 12.866L14.6699 11.2321V14.5C14.6699 15.0523 15.1176 15.5 15.6699 15.5C16.2222 15.5 16.6699 15.0523 16.6699 14.5V11.232L19.5 12.866C19.9783 13.1421 20.5899 12.9783 20.8661 12.5C21.1422 12.0217 20.9783 11.4101 20.5 11.1339L17.6699 9.49998L20.5 7.86602C20.9783 7.58988 21.1422 6.97829 20.8661 6.5C20.5899 6.0217 19.9783 5.85783 19.5 6.13397L16.6699 7.76796V4.5Z"
    fill="black"
  />
  <path
    d="M5.5 19.5C6.32843 19.5 7 18.8284 7 18C7 17.1716 6.32843 16.5 5.5 16.5C4.67157 16.5 4 17.1716 4 18C4 18.8284 4.67157 19.5 5.5 19.5Z"
    fill="black"
  />
</svg>
