<svg width="24" height="24" viewBox="0 0 24 24" fill="none" xmlns="http://www.w3.org/2000/svg">
  <path
    fill-rule="evenodd"
    clip-rule="evenodd"
    d="M16.5415 3L3.65936 3C2.19064 3 1 4.17525 1 5.625V14.375C1 15.8247 2.19064 17 3.65936 17H5.27092V19.375C5.27092 20.8247 6.46155 22 7.93028 22H20.3406C21.8094 22 23 20.8247 23 19.375V10.625C23 9.17525 21.8094 8 20.3406 8H19.2009V5.625C19.2009 4.17525 18.0103 3 16.5415 3ZM17.428 8V5.625H2.77291V14.375C2.77291 14.8582 3.16979 15.25 3.65936 15.25H5.27092V10.625C5.27092 9.17525 6.46155 8 7.93028 8H17.428ZM7.04382 19.375V10.625H21.2271V19.375C21.2271 19.8582 20.8302 20.25 20.3406 20.25H7.93028C7.4407 20.25 7.04382 19.8582 7.04382 19.375Z"
    fill="#0D0D15"
  />
</svg>
