<svg width="24" height="24" viewBox="0 0 24 24" fill="none" xmlns="http://www.w3.org/2000/svg">
  <path
    d="M6.87842 8.61025C8.23243 7.33272 10.0284 6.55005 11.9998 6.55005C13.9712 6.55005 15.7671 7.33272 17.1212 8.61025C17.5289 8.99496 17.5597 9.63971 17.1996 10.0638C16.8255 10.5045 16.1668 10.5466 15.7427 10.1465C14.7443 9.20453 13.4338 8.63759 11.9998 8.63759C10.5657 8.63759 9.25526 9.20453 8.25689 10.1465C7.83282 10.5466 7.1741 10.5045 6.79996 10.0638C6.43989 9.63971 6.47068 8.99496 6.87842 8.61025Z"
    fill="#0D0D15"
  />
  <path
    d="M9.09448 11.1721C9.8604 10.4494 10.8797 10.0042 11.9998 10.0042C13.1199 10.0042 14.1392 10.4494 14.9051 11.1721C15.3128 11.5568 15.3436 12.2015 14.9836 12.6256C14.6094 13.0663 13.9507 13.1085 13.5266 12.7083C13.1164 12.3213 12.5825 12.0917 11.9998 12.0917C11.4171 12.0917 10.8832 12.3213 10.473 12.7083C10.0489 13.1085 9.39017 13.0663 9.01602 12.6256C8.65596 12.2015 8.68675 11.5568 9.09448 11.1721Z"
    fill="#0D0D15"
  />
  <path
    fill-rule="evenodd"
    clip-rule="evenodd"
    d="M8.99999 17H6C4.34315 17 3 15.6569 3 14V6C3 4.34315 4.34315 3 6 3H18C19.6569 3 21 4.34315 21 6V14C21 15.6569 19.6569 17 18 17H15V19H16C16.5523 19 17 19.4477 17 20C17 20.5523 16.5523 21 16 21H7.99999C7.44771 21 6.99999 20.5523 6.99999 20C6.99999 19.4477 7.44771 19 7.99999 19H8.99999V17ZM6 5H18C18.5523 5 19 5.44771 19 6V14C19 14.5523 18.5523 15 18 15H6C5.44772 15 5 14.5523 5 14V6C5 5.44772 5.44772 5 6 5ZM13 17V19H11V17H13Z"
    fill="#0D0D15"
  />
</svg>
