<svg width="24" height="24" viewBox="0 0 24 24" fill="none" xmlns="http://www.w3.org/2000/svg">
  <path
    d="M21.2979 2.18742C20.9074 1.7969 20.2742 1.7969 19.8837 2.18742L11.7072 10.3639C11.3167 10.7545 11.3167 11.3876 11.7072 11.7782C12.0977 12.1687 12.7309 12.1687 13.1214 11.7782L21.2979 3.60164C21.6885 3.21111 21.6885 2.57795 21.2979 2.18742Z"
    fill="#0D0D15"
  />
  <path
    d="M7 4.99997C5.89543 4.99997 5 5.8954 5 6.99997V17C5 18.1045 5.89543 19 7 19H17C18.1046 19 19 18.1045 19 17V12C19 11.4477 19.4477 11 20 11C20.5523 11 21 11.4477 21 12V17C21 19.2091 19.2091 21 17 21H7C4.79086 21 3 19.2091 3 17V6.99997C3 4.79083 4.79086 2.99997 7 2.99997H12C12.5523 2.99997 13 3.44769 13 3.99997C13 4.55226 12.5523 4.99997 12 4.99997H7Z"
    fill="#0D0D15"
  />
</svg>
