<svg width="24" height="24" viewBox="0 0 24 24" fill="none" xmlns="http://www.w3.org/2000/svg">
  <path
    d="M8 7C7.44772 7 7 7.44772 7 8V12C7 12.5523 7.44772 13 8 13C8.55229 13 9 12.5523 9 12V8C9 7.44772 8.55229 7 8 7Z"
    fill="#0D0D15"
  />
  <path
    d="M11 11C11 10.4477 11.4477 10 12 10C12.5523 10 13 10.4477 13 11V12C13 12.5523 12.5523 13 12 13C11.4477 13 11 12.5523 11 12V11Z"
    fill="#0D0D15"
  />
  <path
    d="M16 8C15.4477 8 15 8.44771 15 9V12C15 12.5523 15.4477 13 16 13C16.5523 13 17 12.5523 17 12V9C17 8.44771 16.5523 8 16 8Z"
    fill="#0D0D15"
  />
  <path
    fill-rule="evenodd"
    clip-rule="evenodd"
    d="M8.99999 17H6C4.34315 17 3 15.6569 3 14V6C3 4.34315 4.34315 3 6 3H18C19.6569 3 21 4.34315 21 6V14C21 15.6569 19.6569 17 18 17H15V19H16C16.5523 19 17 19.4477 17 20C17 20.5523 16.5523 21 16 21H7.99999C7.44771 21 6.99999 20.5523 6.99999 20C6.99999 19.4477 7.44771 19 7.99999 19H8.99999V17ZM6 5H18C18.5523 5 19 5.44771 19 6V14C19 14.5523 18.5523 15 18 15H6C5.44772 15 5 14.5523 5 14V6C5 5.44772 5.44772 5 6 5ZM13 17V19H11V17H13Z"
    fill="#0D0D15"
  />
</svg>
