<svg width="24" height="24" viewBox="0 0 24 24" fill="none" xmlns="http://www.w3.org/2000/svg">
  <path
    d="M11.7773 4C16.1956 4 19.7773 7.58172 19.7773 12C19.7773 16.4183 16.1956 20 11.7773 20C9.4081 20 7.28044 18.9713 5.81416 17.3331C5.33662 16.7995 4.92987 16.2019 4.60838 15.555C4.33091 14.9966 4.11688 14.4015 3.97557 13.7787C3.85336 13.2401 3.31767 12.9026 2.77907 13.0248C2.24048 13.147 1.90294 13.6827 2.02515 14.2213C2.20211 15.0011 2.47014 15.7464 2.81735 16.445C3.21954 17.2543 3.72786 18.001 4.32389 18.6669C6.15353 20.7111 8.81558 22 11.7773 22C17.3002 22 21.7773 17.5228 21.7773 12C21.7773 6.47715 17.3002 2 11.7773 2C9.05126 2 6.58032 3.09134 4.77734 4.8587V4C4.77734 3.44772 4.32963 3 3.77734 3C3.22506 3 2.77734 3.44772 2.77734 4V8C2.77734 8.55229 3.22506 9 3.77734 9H7.77734C8.32963 9 8.77734 8.55228 8.77734 8C8.77734 7.44772 8.32963 7 7.77734 7H5.53189C6.99926 5.16951 9.25189 4 11.7773 4Z"
    fill="#0D0D15"
  />
</svg>
