<svg width="24" height="24" viewBox="0 0 24 24" fill="none" xmlns="http://www.w3.org/2000/svg">
  <path
    d="M17.6164 8.11687C16.4475 6.24754 14.3695 5 12 5C9.03275 5 6.52597 6.94779 5.68321 9.64091C3.57669 10.1216 2 11.9905 2 14.25C2 16.8723 4.12772 19 6.75 19H13.3542C12.7638 18.4789 12.3284 17.7862 12.126 17H6.75C5.23228 17 4 15.7677 4 14.25C4 12.8056 5.1206 11.627 6.55657 11.5276L7.32053 11.4747L7.46862 10.7234C7.88808 8.59524 9.7572 7 12 7C13.7796 7 15.3282 8.00901 16.1006 9.49193L16.3484 9.96769L16.8818 10.0244C18.1181 10.1558 19.1613 10.9342 19.6691 12.0135C19.7782 12.0046 19.8886 12 20 12C20.6901 12 21.3393 12.1747 21.9059 12.4824C21.4966 10.2963 19.7928 8.56357 17.6164 8.11687Z"
    fill="#0D0D15"
  />
  <path
    d="M21.0614 15.6757C21.4346 15.2686 21.4071 14.636 21 14.2629C20.5929 13.8897 19.9603 13.9172 19.5871 14.3243L17.0723 17.179L15.7682 15.6366C15.4147 15.2123 14.7841 15.155 14.3598 15.5086C13.9356 15.8621 13.8782 16.4927 14.2318 16.917L16.2682 19.3382C16.453 19.5599 16.7244 19.691 17.0129 19.6978C17.3013 19.7046 17.5787 19.5865 17.7736 19.3738L21.0614 15.6757Z"
    fill="#0D0D15"
  />
</svg>
