<svg width="24" height="24" viewBox="0 0 24 24" fill="none" xmlns="http://www.w3.org/2000/svg">
  <path
    d="M9.5 14C10.3284 14 11 13.3284 11 12.5C11 11.6716 10.3284 11 9.5 11C8.67157 11 8 11.6716 8 12.5C8 13.3284 8.67157 14 9.5 14Z"
    fill="#0D0D15"
  />
  <path
    d="M14.5 14C15.3284 14 16 13.3284 16 12.5C16 11.6716 15.3284 11 14.5 11C13.6716 11 13 11.6716 13 12.5C13 13.3284 13.6716 14 14.5 14Z"
    fill="#0D0D15"
  />
  <path d="M9 16C9 17.6569 10.3431 19 12 19C13.6569 19 15 17.6569 15 16H9Z" fill="#0D0D15" />
  <path
    fill-rule="evenodd"
    clip-rule="evenodd"
    d="M4.19135 8.25286C4.9884 4.67483 8.18183 2 12 2C15.8182 2 19.0116 4.67484 19.8087 8.25286C21.0934 8.77112 22 10.0297 22 11.5C22 12.9073 21.1695 14.1206 19.9718 14.6764C19.6284 18.7781 16.1905 22 12 22C7.80955 22 4.3716 18.7781 4.02819 14.6764C2.83054 14.1206 2 12.9073 2 11.5C2 10.0297 2.90663 8.77111 4.19135 8.25286ZM6.34141 8C7.16508 5.66962 9.38756 4 12 4V5C12 6.65685 10.6569 8 9 8H6.34141ZM14 5V4.34141C15.7048 4.94398 17.056 6.29517 17.6586 8H17C15.3431 8 14 6.65685 14 5ZM17 10H18.5C19.3284 10 20 10.6716 20 11.5C20 12.3284 19.3284 13 18.5 13H18V14C18 17.3137 15.3137 20 12 20C8.68629 20 6 17.3137 6 14V13H5.5C4.67157 13 4 12.3284 4 11.5C4 10.6716 4.67157 10 5.5 10H9C10.6356 10 12.0878 9.21465 13 8.00048C13.9122 9.21465 15.3644 10 17 10Z"
    fill="#0D0D15"
  />
</svg>
