<svg width="24" height="24" viewBox="0 0 24 24" fill="none" xmlns="http://www.w3.org/2000/svg">
  <path
    fill-rule="evenodd"
    clip-rule="evenodd"
    d="M16 14C17.6569 14 19 12.6569 19 11C19 9.34315 17.6569 8 16 8C14.3431 8 13 9.34315 13 11C13 12.6569 14.3431 14 16 14ZM15 11C15 10.4477 15.4477 10 16 10C16.5523 10 17 10.4477 17 11C17 11.5523 16.5523 12 16 12C15.4477 12 15 11.5523 15 11Z"
    fill="#0D0D15"
  />
  <path
    fill-rule="evenodd"
    clip-rule="evenodd"
    d="M6 3H18C20.2091 3 22 4.79086 22 7V15C22 17.2091 20.2091 19 18 19V20C18 20.5523 17.5523 21 17 21C16.4477 21 16 20.5523 16 20V19H8V20C8 20.5523 7.55228 21 7 21C6.44772 21 6 20.5523 6 20V19C3.79086 19 2 17.2091 2 15V7C2 4.79086 3.79086 3 6 3ZM6 5H7.53513C7.19479 5.58835 7 6.27143 7 7V8H4V7C4 5.89543 4.89543 5 6 5ZM4 10H7V12H4V10ZM4 14V15C4 16.1046 4.89543 17 6 17H7.53513C7.19479 16.4117 7 15.7286 7 15V14H4ZM18 17H11C9.89543 17 9 16.1046 9 15V7C9 5.89543 9.89543 5 11 5H18C19.1046 5 20 5.89543 20 7V15C20 16.1046 19.1046 17 18 17Z"
    fill="#0D0D15"
  />
</svg>
