<svg width="24" height="24" viewBox="0 0 24 24" fill="none" xmlns="http://www.w3.org/2000/svg">
  <path
    d="M7 2C4.79086 2 3 3.79086 3 6C3 6.55229 3.44772 7 4 7C4.55228 7 5 6.55229 5 6C5 4.89543 5.89543 4 7 4C7.55229 4 8 3.55228 8 3C8 2.44772 7.55229 2 7 2Z"
    fill="#0D0D15"
  />
  <path
    d="M17 2C19.2091 2 21 3.79086 21 6C21 6.55229 20.5523 7 20 7C19.4477 7 19 6.55229 19 6C19 4.89543 18.1046 4 17 4C16.4477 4 16 3.55228 16 3C16 2.44772 16.4477 2 17 2Z"
    fill="#0D0D15"
  />
  <path
    d="M17 20C16.4477 20 16 19.5523 16 19C16 18.4477 16.4477 18 17 18C18.1046 18 19 17.1046 19 16C19 15.4477 19.4477 15 20 15C20.5523 15 21 15.4477 21 16C21 18.2091 19.2091 20 17 20Z"
    fill="#0D0D15"
  />
  <path
    d="M7 20C4.79086 20 3 18.2091 3 16C3 15.4477 3.44772 15 4 15C4.55228 15 5 15.4477 5 16C5 17.1046 5.89543 18 7 18C7.55229 18 8 18.4477 8 19C8 19.5523 7.55229 20 7 20Z"
    fill="#0D0D15"
  />
  <path
    d="M4 10C3.44772 10 3 10.4477 3 11C3 11.5523 3.44772 12 4 12H20C20.5523 12 21 11.5523 21 11C21 10.4477 20.5523 10 20 10H4Z"
    fill="#0D0D15"
  />
</svg>
