<svg width="24" height="24" viewBox="0 0 24 24" fill="none" xmlns="http://www.w3.org/2000/svg">
  <path
    d="M3 6C3 4.34315 4.34314 3 6 3H7C7.55228 3 8 3.44772 8 4C8 4.55228 7.55228 5 7 5H6C5.44772 5 5 5.44772 5 6V7C5 7.55228 4.55228 8 4 8C3.44772 8 3 7.55228 3 7V6Z"
    fill="#0D0D15"
  />
  <path
    d="M21 6C21 4.34314 19.6569 3 18 3H17C16.4477 3 16 3.44772 16 4C16 4.55228 16.4477 5 17 5H18C18.5523 5 19 5.44772 19 6V7C19 7.55228 19.4477 8 20 8C20.5523 8 21 7.55228 21 7V6Z"
    fill="#0D0D15"
  />
  <path
    d="M19 18C19 18.5523 18.5523 19 18 19H17C16.4477 19 16 19.4477 16 20C16 20.5523 16.4477 21 17 21H18C19.6569 21 21 19.6569 21 18V17C21 16.4477 20.5523 16 20 16C19.4477 16 19 16.4477 19 17V18Z"
    fill="#0D0D15"
  />
  <path
    d="M6 19C5.44772 19 5 18.5523 5 18V17C5 16.4477 4.55228 16 4 16C3.44772 16 3 16.4477 3 17V18C3 19.6569 4.34315 21 6 21H7C7.55228 21 8 20.5523 8 20C8 19.4477 7.55228 19 7 19H6Z"
    fill="#0D0D15"
  />
  <path
    fill-rule="evenodd"
    clip-rule="evenodd"
    d="M12 15C13.6569 15 15 13.6569 15 12C15 10.3431 13.6569 9 12 9C10.3431 9 9 10.3431 9 12C9 13.6569 10.3431 15 12 15ZM11 12C11 11.4477 11.4477 11 12 11C12.5523 11 13 11.4477 13 12C13 12.5523 12.5523 13 12 13C11.4477 13 11 12.5523 11 12Z"
    fill="#0D0D15"
  />
</svg>
