<svg width="24" height="24" viewBox="0 0 24 24" fill="none" xmlns="http://www.w3.org/2000/svg">
  <path
    d="M9 7C9 6.44771 9.44772 6 10 6H15C15.5523 6 16 6.44771 16 7C16 7.55228 15.5523 8 15 8H10C9.44771 8 9 7.55228 9 7Z"
    fill="#0D0D15"
  />
  <path
    d="M9 11C9 10.4477 9.44771 10 10 10H12C12.5523 10 13 10.4477 13 11C13 11.5523 12.5523 12 12 12H10C9.44771 12 9 11.5523 9 11Z"
    fill="#0D0D15"
  />
  <path
    fill-rule="evenodd"
    clip-rule="evenodd"
    d="M8 2H17C18.6569 2 20 3.34315 20 5V18.96C20 20.6422 18.66 22 17 22H5C3.34 22 2 20.6422 2 18.96V16.0133C2 15.456 2.45 15 3 15H5V5C5 3.34315 6.34315 2 8 2ZM7 15H15C15.55 15 16 15.456 16 16.0133V18.96C16 19.5174 16.45 19.9734 17 19.9734C17.55 19.9734 18 19.5174 18 18.96V5C18 4.44772 17.5523 4 17 4H8C7.44772 4 7 4.44772 7 5V15ZM14 19.9734H5C4.45 19.9734 4 19.5174 4 18.96V17.0267H14V19.9734Z"
    fill="#0D0D15"
  />
</svg>
