<svg width="24" height="24" viewBox="0 0 24 24" fill="none" xmlns="http://www.w3.org/2000/svg">
  <path
    d="M8 6.5C8 6.22386 8.22386 6 8.5 6H9.5C9.77614 6 10 6.22386 10 6.5V9.5C10 9.77614 9.77614 10 9.5 10H8.5C8.22386 10 8 9.77614 8 9.5V6.5Z"
    fill="#0D0D15"
  />
  <path
    d="M12 6.5C12 6.22386 12.2239 6 12.5 6H13.5C13.7761 6 14 6.22386 14 6.5V9.5C14 9.77614 13.7761 10 13.5 10H12.5C12.2239 10 12 9.77614 12 9.5V6.5Z"
    fill="#0D0D15"
  />
  <path
    fill-rule="evenodd"
    clip-rule="evenodd"
    d="M4 19C4 20.6569 5.34314 22 7 22H17C18.6569 22 20 20.6569 20 19V7.86992C20 7.15379 19.7438 6.46128 19.2778 5.91755L16.8178 3.04763C16.2479 2.38269 15.4158 2 14.5401 2H7C5.34315 2 4 3.34315 4 5V19ZM6 5C6 4.44772 6.44772 4 7 4H14.5401C14.832 4 15.1093 4.12756 15.2993 4.34921L17.7593 7.21913C17.9146 7.40038 18 7.63121 18 7.86992V19C18 19.5523 17.5523 20 17 20H7C6.44772 20 6 19.5523 6 19V5Z"
    fill="#0D0D15"
  />
</svg>
