<svg width="24" height="24" viewBox="0 0 24 24" fill="none" xmlns="http://www.w3.org/2000/svg">
  <path
    fill-rule="evenodd"
    clip-rule="evenodd"
    d="M16.4633 15.0491C17.4274 13.7873 18 12.2105 18 10.5C18 6.35786 14.6421 3 10.5 3C6.35786 3 3 6.35786 3 10.5C3 14.6421 6.35786 18 10.5 18C12.2105 18 13.7873 17.4274 15.0491 16.4633L19.2418 20.656C19.6323 21.0465 20.2655 21.0465 20.656 20.656C21.0465 20.2655 21.0465 19.6323 20.656 19.2418L16.4633 15.0491ZM16 10.5C16 13.5376 13.5376 16 10.5 16C7.46243 16 5 13.5376 5 10.5C5 7.46243 7.46243 5 10.5 5C13.5376 5 16 7.46243 16 10.5Z"
    fill="#0D0D15"
  />
</svg>
