<svg width="24" height="24" viewBox="0 0 24 24" fill="none" xmlns="http://www.w3.org/2000/svg">
  <path
    fill-rule="evenodd"
    clip-rule="evenodd"
    d="M20.9246 14.0208L19.5104 15.435C18.7211 16.2243 17.7841 16.8504 16.7528 17.2776C15.7215 17.7048 14.6162 17.9246 13.5 17.9246C13.4358 17.9246 13.3717 17.9239 13.3076 17.9224V18.7271H16.3076C16.8599 18.7271 17.3076 19.1748 17.3076 19.7271C17.3076 20.2793 16.8599 20.7271 16.3076 20.7271H8.30762C7.75533 20.7271 7.30762 20.2793 7.30762 19.7271C7.30762 19.1748 7.75533 18.7271 8.30762 18.7271H11.3076V17.637C10.9474 17.5409 10.5931 17.4209 10.2472 17.2776C9.21592 16.8504 8.27889 16.2243 7.48959 15.435C6.70029 14.6457 6.07419 13.7087 5.64702 12.6774C5.21986 11.6462 5 10.5409 5 9.42462C5 8.30838 5.21986 7.20308 5.64702 6.17181C6.07419 5.14054 6.70029 4.20351 7.48959 3.41421L8.1967 2.70711L8.90381 2L9.61091 2.70711L14.2371 7.33325L16.3651 5.20518C16.3275 5.05198 16.3076 4.89184 16.3076 4.72705C16.3076 3.62248 17.203 2.72705 18.3076 2.72705C19.4122 2.72705 20.3076 3.62248 20.3076 4.72705C20.3076 5.83162 19.4122 6.72705 18.3076 6.72705C18.1142 6.72705 17.9272 6.6996 17.7504 6.64839L15.6513 8.74747L20.9246 14.0208ZM18.0962 14.0208C17.6153 14.5017 17.0627 14.9034 16.459 15.212C16.305 15.2908 16.1477 15.3634 15.9874 15.4298C15.1988 15.7565 14.3536 15.9246 13.5 15.9246C12.6464 15.9246 11.8012 15.7565 11.0126 15.4298C10.2239 15.1032 9.50739 14.6244 8.9038 14.0208C8.30022 13.4172 7.82144 12.7007 7.49478 11.9121C7.16813 11.1234 7 10.2782 7 9.42462C7 8.57103 7.16813 7.7258 7.49478 6.93718C7.56117 6.7769 7.63384 6.6196 7.71257 6.46562C8.02121 5.86197 8.4229 5.30934 8.90381 4.82843L18.0962 14.0208Z"
    fill="#0D0D15"
  />
</svg>
