<svg width="24" height="24" viewBox="0 0 24 24" fill="none" xmlns="http://www.w3.org/2000/svg">
  <path
    fill-rule="evenodd"
    clip-rule="evenodd"
    d="M9.39045 6.52145L10.4471 6.04771L10.6518 4H13.0319L13.2366 6.04771L14.2932 6.52145C14.6695 6.69017 15.0258 6.89686 15.3571 7.1369L16.2962 7.8173L18.1751 6.9694L19.3651 9.03058L17.6936 10.2321L17.8107 11.3832C17.8313 11.5854 17.8418 11.7911 17.8418 12C17.8418 12.2089 17.8313 12.4146 17.8107 12.6169L17.6936 13.7679L19.365 14.9694L18.175 17.0306L16.2962 16.1827L15.3571 16.8631C15.0258 17.1032 14.6695 17.3098 14.2932 17.4785L13.2366 17.9523L13.0319 20H10.6518L10.4471 17.9523L9.39045 17.4785C9.01416 17.3098 8.65788 17.1031 8.32657 16.8631L7.38747 16.1827L5.50868 17.0306L4.31866 14.9694L5.9901 13.7679L5.87302 12.6168C5.85245 12.4146 5.84185 12.2089 5.84185 12C5.84185 11.7911 5.85245 11.5854 5.87301 11.3832L5.99009 10.2322L4.31861 9.0306L5.50863 6.96942L7.38745 7.81732L8.32655 7.13691C8.65787 6.89686 9.01415 6.69018 9.39045 6.52145ZM14.9319 2.9005L15.1115 4.6965C15.6142 4.92188 16.0893 5.19762 16.5306 5.51732L18.1772 4.77418C18.6455 4.56285 19.1977 4.74073 19.4546 5.18566L21.5496 8.81432C21.8065 9.25925 21.6845 9.82643 21.2673 10.1263L19.8004 11.1808C19.8278 11.4501 19.8418 11.7234 19.8418 12C19.8418 12.2766 19.8278 12.5499 19.8004 12.8193L21.2673 13.8737C21.6844 14.1736 21.8065 14.7408 21.5496 15.1857L19.4546 18.8143C19.1977 19.2593 18.6455 19.4372 18.1772 19.2258L16.5305 18.4827C16.0893 18.8024 15.6142 19.0781 15.1115 19.3035L14.9319 21.0995C14.8808 21.6107 14.4506 22 13.9369 22H9.74684C9.23309 22 8.80292 21.6107 8.7518 21.0995L8.5722 19.3035C8.06954 19.0781 7.59438 18.8024 7.15313 18.4827L5.5065 19.2258C5.03822 19.4371 4.486 19.2592 4.22912 18.8143L2.13411 15.1857C1.87724 14.7407 1.99929 14.1736 2.41645 13.8737L3.88328 12.8192C3.85588 12.5499 3.84185 12.2766 3.84185 12C3.84185 11.7234 3.85588 11.4501 3.88328 11.1808L2.4164 10.1263C1.99924 9.82645 1.87719 9.25926 2.13406 8.81434L4.22908 5.18568C4.48595 4.74075 5.03817 4.56287 5.50645 4.7742L7.15311 5.51733C7.59436 5.19763 8.06953 4.92188 8.5722 4.6965L8.7518 2.9005C8.80292 2.3893 9.23309 2 9.74684 2H13.9369C14.4506 2 14.8808 2.38929 14.9319 2.9005ZM13.8419 12C13.8419 13.1046 12.9464 14 11.8419 14C10.7373 14 9.84186 13.1046 9.84186 12C9.84186 10.8954 10.7373 10 11.8419 10C12.9464 10 13.8419 10.8954 13.8419 12ZM15.8419 12C15.8419 14.2091 14.051 16 11.8419 16C9.63272 16 7.84186 14.2091 7.84186 12C7.84186 9.79086 9.63272 8 11.8419 8C14.051 8 15.8419 9.79086 15.8419 12Z"
    fill="#0D0D15"
  />
</svg>
