<svg width="24" height="24" viewBox="0 0 24 24" fill="none" xmlns="http://www.w3.org/2000/svg">
  <path
    fill-rule="evenodd"
    clip-rule="evenodd"
    d="M17.874 6C17.4299 4.27477 15.8638 3 14 3C12.1362 3 10.5701 4.27477 10.126 6H4C3.44772 6 3 6.44772 3 7C3 7.55228 3.44772 8 4 8H10.126C10.5701 9.72523 12.1362 11 14 11C15.8638 11 17.4299 9.72523 17.874 8H20C20.5523 8 21 7.55228 21 7C21 6.44772 20.5523 6 20 6H17.874ZM14 9C12.8954 9 12 8.10457 12 7C12 5.89543 12.8954 5 14 5C15.1046 5 16 5.89543 16 7C16 8.10457 15.1046 9 14 9Z"
    fill="#0D0D15"
  />
  <path
    fill-rule="evenodd"
    clip-rule="evenodd"
    d="M10 21C8.13616 21 6.57006 19.7252 6.12602 18H4C3.44772 18 3 17.5523 3 17C3 16.4477 3.44772 16 4 16H6.12602C6.57006 14.2748 8.13616 13 10 13C11.8666 13 13.4346 14.2785 13.8759 16.0076C13.9166 16.0026 13.958 16 14 16H20C20.5523 16 21 16.4477 21 17C21 17.5523 20.5523 18 20 18H14C13.958 18 13.9166 17.9974 13.8759 17.9924C13.4346 19.7215 11.8666 21 10 21ZM8 17C8 18.1046 8.89543 19 10 19C11.1046 19 12 18.1046 12 17C12 15.8954 11.1046 15 10 15C8.89543 15 8 15.8954 8 17Z"
    fill="#0D0D15"
  />
</svg>
