<svg width="24" height="24" viewBox="0 0 24 24" fill="none" xmlns="http://www.w3.org/2000/svg">
  <path
    d="M8 6V6.25716C8.95094 5.47182 10.1704 5 11.5 5C14.5376 5 17 7.46243 17 10.5C17 13.5376 14.5376 16 11.5 16C9.52124 16 7.78655 14.955 6.81764 13.3869C6.31326 13.7716 5.68331 14 5 14C4.95423 14 4.9087 13.999 4.86343 13.9969C6.1204 16.3775 8.62072 18 11.5 18C13.2105 18 14.7873 17.4274 16.0491 16.4633L20.2418 20.656C20.6323 21.0465 21.2655 21.0465 21.656 20.656C22.0465 20.2655 22.0465 19.6323 21.656 19.2418L17.4633 15.0491C18.4274 13.7873 19 12.2105 19 10.5C19 6.35786 15.6421 3 11.5 3C9.99096 3 8.58602 3.44567 7.40961 4.21257C7.78054 4.71179 8 5.33027 8 6Z"
    fill="#0D0D15"
  />
  <path
    d="M5 5C4.44772 5 4 5.44772 4 6V11C4 11.5523 4.44772 12 5 12C5.55228 12 6 11.5523 6 11V6C6 5.44772 5.55228 5 5 5Z"
    fill="#0D0D15"
  />
  <path
    d="M8 10C8 9.44772 8.44772 9 9 9C9.55228 9 10 9.44772 10 10V11C10 11.5523 9.55228 12 9 12C8.44772 12 8 11.5523 8 11V10Z"
    fill="#0D0D15"
  />
  <path
    d="M13 7C12.4477 7 12 7.44772 12 8V11C12 11.5523 12.4477 12 13 12C13.5523 12 14 11.5523 14 11V8C14 7.44772 13.5523 7 13 7Z"
    fill="#0D0D15"
  />
</svg>
