<svg width="24" height="24" viewBox="0 0 24 24" fill="none" xmlns="http://www.w3.org/2000/svg">
  <path
    fill-rule="evenodd"
    clip-rule="evenodd"
    d="M4.49137 5.57372C4.19022 5.73017 4 6.04996 4 6.39979V11.9412C4 16.8221 7.65471 20.3909 11.115 21.8234C11.6836 22.0588 12.3164 22.0588 12.885 21.8234C16.3453 20.3909 20 16.8221 20 11.9412V6.39979C20 6.04996 19.8098 5.73017 19.5086 5.57372L13.1926 2.29249C12.4418 1.90248 11.5582 1.90248 10.8074 2.29249L4.49137 5.57372ZM13.3637 4.6352L11.8116 11H13.4999C13.5438 11 13.59 10.9996 13.6375 10.9992C13.8901 10.997 14.1827 10.9945 14.4079 11.0494C14.9445 11.1803 15.2734 11.7213 15.1425 12.2579L13.4201 19.321C15.892 17.8456 18 15.1951 18 11.9412V7.04376L13.3637 4.6352ZM11.2696 19.6977L12.9029 13H10.9999C10.9751 13 10.9497 13.0001 10.9239 13.0002C10.7216 13.001 10.4935 13.0019 10.3053 12.956C9.76874 12.8251 9.43985 12.2841 9.5707 11.7475L11.4022 4.23731L6 7.04376V11.9412C6 15.4943 8.51353 18.328 11.2696 19.6977Z"
    fill="#0D0D15"
  />
</svg>
