<svg width="24" height="24" viewBox="0 0 24 24" fill="none" xmlns="http://www.w3.org/2000/svg">
  <path
    fill-rule="evenodd"
    clip-rule="evenodd"
    d="M6 4C6 2.89543 6.89543 2 8 2H16C17.1046 2 18 2.89543 18 4V7H20C21.1046 7 22 7.89543 22 9V16C22 17.1046 21.1046 18 20 18H19V21C19 21.5523 18.5523 22 18 22C17.4477 22 17 21.5523 17 21V15H15V21C15 21.5523 14.5523 22 14 22C13.4477 22 13 21.5523 13 21V15H11V21C11 21.5523 10.5523 22 10 22C9.44771 22 9 21.5523 9 21V15H7V21C7 21.5523 6.55228 22 6 22C5.44772 22 5 21.5523 5 21V18H4C2.89543 18 2 17.1046 2 16V9C2 7.89543 2.89543 7 4 7H6V4ZM19 15V16H20V9H4V16H5V15C5 13.8954 5.89543 13 7 13H17C18.1046 13 19 13.8954 19 15ZM16 4V7H8V4H16Z"
    fill="#0D0D15"
  />
</svg>
