<svg width="24" height="24" viewBox="0 0 24 24" fill="none" xmlns="http://www.w3.org/2000/svg">
  <path
    d="M9.3 7.7C8.91 8.09 8.91 8.71 9.3 9.1L11.2 11H4C3.45 11 3 11.45 3 12C3 12.55 3.45 13 4 13H11.2L9.3 14.9C8.91 15.29 8.91 15.91 9.3 16.3C9.69 16.69 10.31 16.69 10.7 16.3L14.29 12.71C14.68 12.32 14.68 11.69 14.29 11.3L10.7 7.7C10.31 7.31 9.69 7.31 9.3 7.7ZM19 19H12C11.45 19 11 19.45 11 20C11 20.55 11.45 21 12 21H19C20.1 21 21 20.1 21 19V5C21 3.9 20.1 3 19 3H12C11.45 3 11 3.45 11 4C11 4.55 11.45 5 12 5H19V19Z"
    fill="#0D0D15"
  />
</svg>
