<svg width="24" height="24" viewBox="0 0 24 24" fill="none" xmlns="http://www.w3.org/2000/svg">
  <path
    d="M12 19H5V5H12C12.55 5 13 4.55 13 4C13 3.45 12.55 3 12 3H5C3.9 3 3 3.9 3 5V19C3 20.1 3.9 21 5 21H12C12.55 21 13 20.55 13 20C13 19.45 12.55 19 12 19Z"
    fill="#0D0D15"
  />
  <path
    d="M15.8 9.09997C15.41 8.70997 15.41 8.08997 15.8 7.69997C16.19 7.30997 16.81 7.30997 17.2 7.69997L20.79 11.3C21.18 11.69 21.18 12.32 20.79 12.71L17.2 16.3C16.81 16.69 16.19 16.69 15.8 16.3C15.41 15.91 15.41 15.29 15.8 14.9L17.7 13H10.5C9.95 13 9.5 12.55 9.5 12C9.5 11.45 9.95 11 10.5 11H17.7L15.8 9.09997Z"
    fill="#0D0D15"
  />
</svg>
