<svg width="24" height="24" viewBox="0 0 24 24" fill="none" xmlns="http://www.w3.org/2000/svg">
  <path
    fill-rule="evenodd"
    clip-rule="evenodd"
    d="M10.5 2H13.5C14.8807 2 16 3.11929 16 4.5V6.17071C17.1652 6.58254 18 7.69378 18 9C18.5523 9 19 9.44771 19 10C19 10.5523 18.5523 11 18 11V15C18 16.3062 17.1652 17.4175 16 17.8293V19.5C16 20.8807 14.8807 22 13.5 22H10.5C9.11929 22 8 20.8807 8 19.5V17.8293C6.83481 17.4175 6 16.3062 6 15V9C6 7.69378 6.83481 6.58254 8 6.17071V4.5C8 3.11929 9.11929 2 10.5 2ZM14 4.5V6H10V4.5C10 4.22386 10.2239 4 10.5 4H13.5C13.7761 4 14 4.22386 14 4.5ZM10 18H14V19.5C14 19.7761 13.7761 20 13.5 20H10.5C10.2239 20 10 19.7761 10 19.5V18ZM9 8C8.44772 8 8 8.44772 8 9V15C8 15.5523 8.44772 16 9 16H15C15.5523 16 16 15.5523 16 15V9C16 8.44772 15.5523 8 15 8H9Z"
    fill="#0D0D15"
  />
</svg>
