<svg width="24" height="24" viewBox="0 0 24 24" fill="none" xmlns="http://www.w3.org/2000/svg">
  <path
    fill-rule="evenodd"
    clip-rule="evenodd"
    d="M21.8583 12.3335C21.8674 12.387 21.876 12.4405 21.8841 12.4941C21.8845 12.4967 21.8849 12.4992 21.8853 12.5017C21.9912 13.2 22.0233 13.9098 21.9794 14.6194C21.8982 15.9311 21.5595 17.2116 20.985 18.3885C20.9732 18.4126 20.9614 18.4366 20.9494 18.4606C20.8776 18.6047 20.8023 18.7473 20.7234 18.8881C20.7025 18.9254 20.6814 18.9627 20.6599 18.9998C20.4837 19.305 20.23 19.5582 19.9244 19.7338C19.6378 19.8985 19.3151 19.9895 18.9853 19.999C18.9636 19.9996 18.9418 19.9998 18.9199 19.9998H5.06994C5.05687 19.9997 5.04381 19.9995 5.03075 19.9991C4.69532 19.9905 4.36721 19.8977 4.07677 19.7288C3.77503 19.5534 3.52445 19.302 3.34994 18.9998C3.32277 18.9529 3.29599 18.9059 3.26961 18.8587C3.1913 18.7186 3.11652 18.5768 3.04528 18.4336C3.03944 18.4219 3.03363 18.4101 3.02784 18.3984C2.23249 16.7834 1.88651 14.9804 2.03113 13.1799C2.03632 13.1153 2.04214 13.0507 2.04859 12.9861C2.22209 11.25 2.84605 9.59581 3.85038 8.18396C4.05592 7.89501 4.27739 7.61622 4.5142 7.34894C5.47851 6.26055 6.66312 5.40151 7.98083 4.82328C8.17814 4.7367 8.37844 4.65641 8.58143 4.58259C8.98232 4.4368 9.39372 4.31625 9.81335 4.22226C11.8644 3.76285 14.0081 3.96142 15.9399 4.78976C16.1082 4.8589 16.2543 4.9726 16.3628 5.11864C16.4712 5.26468 16.5377 5.43751 16.5552 5.61854L16.5556 5.62265C16.5722 5.80233 16.5398 5.98319 16.462 6.14604C16.3835 6.31012 16.2618 6.4497 16.1099 6.54976C16.0444 6.59412 15.9741 6.63035 15.9006 6.65791C15.8107 6.69162 15.716 6.71235 15.6193 6.71911C15.4686 6.72966 15.3178 6.70591 15.1781 6.65003C15.1551 6.64081 15.1323 6.63072 15.1099 6.61976C14.4368 6.3337 13.7263 6.14514 12.9999 6.05976C11.7371 5.89509 10.4558 6.03457 9.26196 6.46326C9.09859 6.52192 8.93685 6.586 8.77703 6.65545C7.71346 7.11764 6.76633 7.80406 5.99843 8.66397C5.80765 8.87761 5.62792 9.10197 5.46022 9.33626C4.64847 10.4703 4.14784 11.7961 4.00668 13.1818C4.00131 13.2346 3.99645 13.2874 3.99213 13.3403C3.87408 14.7833 4.14982 16.2312 4.78994 17.5298C4.83048 17.608 4.88098 17.6802 4.9399 17.7446C5.00375 17.8144 5.07749 17.8752 5.15913 17.9247C5.20751 17.9541 5.25809 17.9791 5.3103 17.9998C5.4275 18.0461 5.5529 18.07 5.67994 18.0698H18.3299C18.4588 18.0707 18.586 18.0468 18.7049 17.9998C18.7545 17.9801 18.8027 17.9565 18.8489 17.929C18.9272 17.8824 18.9984 17.8255 19.0607 17.7602C19.1233 17.6946 19.1769 17.6205 19.2199 17.5398C19.6806 16.5819 19.9432 15.5472 19.999 14.4969C20.0288 13.9358 19.9996 13.3704 19.9099 12.8098C19.9028 12.7638 19.8952 12.7179 19.8872 12.6721C19.7866 12.0974 19.6198 11.5363 19.3899 10.9998C19.3815 10.9825 19.3735 10.965 19.3661 10.9473C19.3056 10.8033 19.2796 10.6468 19.2906 10.4904C19.2991 10.3681 19.3301 10.249 19.3813 10.1387C19.4037 10.0905 19.43 10.0441 19.4599 9.99976C19.5558 9.84834 19.6907 9.72547 19.8503 9.64402C20.01 9.56257 20.1886 9.52553 20.3675 9.53677C20.3907 9.53823 20.4138 9.54051 20.4368 9.54357C20.5908 9.56408 20.7382 9.62022 20.8672 9.70793C21.0154 9.80874 21.1338 9.94752 21.2099 10.1098C21.5125 10.8258 21.7295 11.5721 21.8583 12.3335ZM18.5957 8.06925C18.5472 7.93706 18.4699 7.81305 18.3638 7.70696C18.2551 7.59819 18.1275 7.51972 17.9916 7.47154C17.6395 7.34673 17.2314 7.4252 16.9496 7.70696L12.7076 11.949C12.664 11.9926 12.6248 12.0397 12.5909 12.0886C12.5547 12.0774 12.518 12.0672 12.4809 12.058C12.3269 12.02 12.1658 11.9998 12 11.9998C10.8954 11.9998 10 12.8953 10 13.9998C10 15.1044 10.8954 15.9998 12 15.9998C13.1046 15.9998 14 15.1044 14 13.9998C14 13.8698 13.9876 13.7426 13.9639 13.6194C13.9566 13.5819 13.9484 13.5448 13.9391 13.5081C14.0039 13.4681 14.065 13.42 14.1212 13.3638L18.3638 9.12117C18.6483 8.83674 18.7255 8.42361 18.5957 8.06925Z"
    fill="#0D0D15"
  />
</svg>
