<svg width="24" height="24" viewBox="0 0 24 24" fill="none" xmlns="http://www.w3.org/2000/svg">
  <path
    d="M4 12C4 7.58172 7.58172 4 12 4C16.4183 4 20 7.58172 20 12C20 14.6332 17.4026 17.5 14 17.5C10.5628 17.5 8 14.6037 8 12C8 9.81144 9.86773 7.99997 12.0629 7.99997C14.2254 7.99997 16 9.27891 16 11.5C16 11.8659 15.5494 13 14.5315 13C14.0619 13 13.6486 12.8442 13.3708 12.6267C13.0931 12.4094 13 12.1785 13 12C13 11.4477 12.5523 11 12 11C11.4477 11 11 11.4477 11 12C11 12.9261 11.491 13.6952 12.1381 14.2017C12.7852 14.7081 13.6376 15 14.5315 15C16.2402 15 18 13.5 18 11.5C18 7.99997 15.3538 5.99997 12.0629 5.99997C8.80473 5.99997 6 8.66575 6 12C6 16.0237 9.80254 19.5 14 19.5C18.2321 19.5 22 15.9942 22 12.0001C22 6.47722 17.5228 2 12 2C6.47715 2 2 6.47715 2 12C2 17.4519 6.4088 22.5 12 22.5C12.5523 22.5 13 22.0523 13 21.5C13 20.9477 12.5523 20.5 12 20.5C7.65007 20.5 4 16.4892 4 12Z"
    fill="#0D0D15"
  />
</svg>
