<svg width="24" height="24" viewBox="0 0 24 24" fill="none" xmlns="http://www.w3.org/2000/svg">
  <path
    fill-rule="evenodd"
    clip-rule="evenodd"
    d="M11.0256 2.7427C11.3783 1.86441 12.6216 1.86441 12.9743 2.7427L15.2802 8.4849L21.4539 8.90351C22.3982 8.96754 22.7824 10.15 22.0561 10.7569L17.3075 14.7244L18.8172 20.7253C19.0481 21.6431 18.0422 22.3739 17.2406 21.8707L11.9999 18.5805L6.75925 21.8707C5.95766 22.3739 4.95178 21.6431 5.18269 20.7253L6.69235 14.7244L1.94376 10.7569C1.21744 10.15 1.60166 8.96754 2.54596 8.90351L8.71967 8.4849L11.0256 2.7427ZM11.9999 5.68331L10.3534 9.78365C10.2032 10.1577 9.85213 10.4127 9.45002 10.44L5.04154 10.7389L8.43238 13.572C8.74168 13.8304 8.87575 14.243 8.77742 14.6339L7.69941 18.919L11.4417 16.5696C11.783 16.3553 12.2169 16.3553 12.5582 16.5696L16.3005 18.919L15.2225 14.6339C15.1241 14.243 15.2582 13.8304 15.5675 13.572L18.9584 10.7389L14.5499 10.44C14.1477 10.4127 13.7967 10.1577 13.6465 9.78365L11.9999 5.68331Z"
    fill="#0D0D15"
  />
</svg>
