<svg width="24" height="24" viewBox="0 0 24 24" fill="none" xmlns="http://www.w3.org/2000/svg">
  <path
    d="M11.4601 2.65872C11.8128 1.78042 13.0562 1.78043 13.4089 2.65872L15.7148 8.40091L21.8885 8.81952C22.8328 8.88355 23.217 10.066 22.4907 10.6729L18.3532 14.1298L16.9333 12.7099L19.3929 10.6549L14.9844 10.356C14.5823 10.3287 14.2313 10.0737 14.0811 9.69967L12.4345 5.59932L11.6862 7.46281L10.1485 5.92508L11.4601 2.65872Z"
    fill="#0D0D15"
  />
  <path
    fill-rule="evenodd"
    clip-rule="evenodd"
    d="M19.2595 20.6738C19.4589 21.5763 18.4673 22.284 17.6752 21.7867L12.4345 18.4966L7.19382 21.7867C6.39223 22.29 5.38635 21.5591 5.61726 20.6413L7.12692 14.6404L2.37833 10.6729C1.65201 10.066 2.03624 8.88355 2.98053 8.81952L7.1242 8.53856L4.45793 5.8723C4.06741 5.48177 4.06741 4.84861 4.45793 4.45808C4.84846 4.06756 5.48162 4.06756 5.87215 4.45808L21.2634 19.8494C21.6539 20.2399 21.6539 20.873 21.2634 21.2636C20.8729 21.6541 20.2397 21.6541 19.8492 21.2636L19.2595 20.6738ZM16.5046 17.919L16.735 18.835L12.9928 16.4856C12.6515 16.2713 12.2176 16.2713 11.8762 16.4856L8.13398 18.835L9.21199 14.5499C9.31032 14.1591 9.17625 13.7464 8.86695 13.488L5.47611 10.6549L9.0015 10.4159L16.5046 17.919Z"
    fill="#0D0D15"
  />
</svg>
