<svg width="24" height="24" viewBox="0 0 24 24" fill="none" xmlns="http://www.w3.org/2000/svg">
  <path
    fill-rule="evenodd"
    clip-rule="evenodd"
    d="M12 2C14.2091 2 16 3.79086 16 6H17C18.6569 6 20 7.34315 20 9V19C20 20.6569 18.6569 22 17 22H7C5.34314 22 4 20.6569 4 19V9C4 7.34314 5.34315 6 7 6H8C8 3.79086 9.79086 2 12 2ZM8 8H7C6.44772 8 6 8.44771 6 9V19C6 19.5523 6.44771 20 7 20H17C17.5523 20 18 19.5523 18 19V9C18 8.44772 17.5523 8 17 8H16V10C16 10.5523 15.5523 11 15 11C14.4477 11 14 10.5523 14 10V8H10V10C10 10.5523 9.55229 11 9 11C8.44771 11 8 10.5523 8 10V8ZM14 6C14 4.89543 13.1046 4 12 4C10.8954 4 10 4.89543 10 6H14Z"
    fill="#0D0D15"
  />
</svg>
