<svg width="24" height="24" viewBox="0 0 24 24" fill="none" xmlns="http://www.w3.org/2000/svg">
  <path
    fill-rule="evenodd"
    clip-rule="evenodd"
    d="M13.9 4H10.1C8.9402 4 8 4.9402 8 6.1V7C6.34315 7 5 8.34315 5 10V13H4.1C2.9402 13 2 13.9402 2 15.1V17.9C2 19.0598 2.9402 20 4.1 20H7.9C9.0598 20 10 19.0598 10 17.9V15.1C10 13.9402 9.0598 13 7.9 13H7V10C7 9.44772 7.44772 9 8 9H8.00234C8.05453 10.1134 8.97372 11 10.1 11H13.9C15.0263 11 15.9455 10.1134 15.9977 9H16C16.5523 9 17 9.44772 17 10V13H16.1C14.9402 13 14 13.9402 14 15.1V17.9C14 19.0598 14.9402 20 16.1 20H19.9C21.0598 20 22 19.0598 22 17.9V15.1C22 13.9402 21.0598 13 19.9 13H19V10C19 8.34315 17.6569 7 16 7V6.1C16 4.9402 15.0598 4 13.9 4ZM10 8.9C10 8.95523 10.0448 9 10.1 9H13.9C13.9552 9 14 8.95523 14 8.9V6.1C14 6.04477 13.9552 6 13.9 6H10.1C10.0448 6 10 6.04477 10 6.1V8.9ZM4 15.1C4 15.0448 4.04477 15 4.1 15H7.9C7.95523 15 8 15.0448 8 15.1V17.9C8 17.9552 7.95523 18 7.9 18H4.1C4.04477 18 4 17.9552 4 17.9V15.1ZM16.1 15C16.0448 15 16 15.0448 16 15.1V17.9C16 17.9552 16.0448 18 16.1 18H19.9C19.9552 18 20 17.9552 20 17.9V15.1C20 15.0448 19.9552 15 19.9 15H16.1Z"
    fill="#0D0D15"
  />
</svg>
