<svg width="24" height="24" viewBox="0 0 24 24" fill="none" xmlns="http://www.w3.org/2000/svg">
  <path
    fill-rule="evenodd"
    clip-rule="evenodd"
    d="M22 12C22 17.5228 17.5228 22 12 22C6.47715 22 2 17.5228 2 12C2 6.47715 6.47715 2 12 2C17.5228 2 22 6.47715 22 12ZM18.3616 16.8515C19.3895 15.5057 20 13.8242 20 12C20 10.2572 19.4427 8.64464 18.4967 7.33067L15.5911 10.2362C15.8529 10.7683 16 11.367 16 12C16 12.7168 15.8115 13.3895 15.4813 13.9713L18.3616 16.8515ZM16.9594 18.2777L14.0918 15.4101C13.4832 15.7843 12.7668 16 12 16C11.367 16 10.7683 15.8529 10.2362 15.5911L7.33067 18.4967C8.64464 19.4427 10.2572 20 12 20C13.8732 20 15.5961 19.3562 16.9594 18.2777ZM5.86466 17.1343L8.71542 14.2835C8.26443 13.636 8 12.8489 8 12C8 11.2332 8.21575 10.5168 8.58986 9.90824L5.72226 7.04065C4.64382 8.40392 4 10.1268 4 12C4 13.9543 4.70074 15.7449 5.86466 17.1343ZM7.14848 5.63844L10.0287 8.51868C10.6105 8.18852 11.2832 8 12 8C12.8489 8 13.636 8.26443 14.2835 8.71542L17.1343 5.86466C15.7449 4.70074 13.9543 4 12 4C10.1758 4 8.49425 4.61055 7.14848 5.63844ZM12 14C13.1046 14 14 13.1046 14 12C14 10.8954 13.1046 10 12 10C10.8954 10 10 10.8954 10 12C10 13.1046 10.8954 14 12 14Z"
    fill="#0D0D15"
  />
</svg>
