<svg width="24" height="24" viewBox="0 0 24 24" fill="none" xmlns="http://www.w3.org/2000/svg">
  <path
    d="M15.83 11.7371C16.2032 11.33 16.1757 10.6974 15.7686 10.3243C15.3614 9.95106 14.7289 9.97856 14.3557 10.3857L11.8409 13.2404L10.5368 11.698C10.1832 11.2737 9.55267 11.2164 9.1284 11.57C8.70412 11.9235 8.64679 12.5541 9.00036 12.9784L11.0368 15.3996C11.2215 15.6213 11.493 15.7524 11.7814 15.7592C12.0699 15.766 12.3472 15.6479 12.5422 15.4352L15.83 11.7371Z"
    fill="#0D0D15"
  />
  <path
    fill-rule="evenodd"
    clip-rule="evenodd"
    d="M4 5C4 3.34315 5.34315 2 7 2H17C18.6569 2 20 3.34315 20 5V19C20 20.6569 18.6569 22 17 22H7C5.34314 22 4 20.6569 4 19V5ZM6 5C6 4.44772 6.44772 4 7 4H8V4.9C8 6.0598 8.9402 7 10.1 7H13.9C15.0598 7 16 6.0598 16 4.9V4H17C17.5523 4 18 4.44772 18 5V19C18 19.5523 17.5523 20 17 20H7C6.44771 20 6 19.5523 6 19V5ZM14 4H10V4.9C10 4.95523 10.0448 5 10.1 5H13.9C13.9552 5 14 4.95523 14 4.9V4Z"
    fill="#0D0D15"
  />
</svg>
