<svg width="24" height="24" viewBox="0 0 24 24" fill="none" xmlns="http://www.w3.org/2000/svg">
  <path
    fill-rule="evenodd"
    clip-rule="evenodd"
    d="M12.0011 10.8672C13.5463 10.8672 14.8525 9.84417 15.2796 8.43851C15.3043 8.44034 15.3293 8.44128 15.3545 8.44128L15.4268 8.44128C15.979 8.44128 16.4268 7.99357 16.4268 7.44128C16.4268 6.889 15.9791 6.44128 15.4268 6.44128L15.3545 6.44128C15.3293 6.44128 15.3043 6.44222 15.2796 6.44405C14.8526 5.03838 13.5463 4.01538 12.0011 4.01538C10.4559 4.01538 9.1496 5.03838 8.72259 6.44406C8.69779 6.44222 8.67274 6.44128 8.64747 6.44128L8.57521 6.44128C8.02292 6.44128 7.5752 6.88899 7.5752 7.44127C7.5752 7.99356 8.02291 8.44128 8.5752 8.44128L8.64746 8.44128C8.67274 8.44128 8.69779 8.44034 8.7226 8.4385C9.14961 9.84416 10.4559 10.8672 12.0011 10.8672ZM13.427 7.44127C13.427 8.22877 12.7886 8.86716 12.0011 8.86716C11.2136 8.86716 10.5752 8.22877 10.5752 7.44127C10.5752 6.65377 11.2136 6.01538 12.0011 6.01538C12.7886 6.01538 13.427 6.65377 13.427 7.44127Z"
    fill="#0D0D15"
  />
  <path
    fill-rule="evenodd"
    clip-rule="evenodd"
    d="M10.0576 11.96C7.84848 11.96 6.05762 13.7508 6.05762 15.96V17.9846C6.05762 19.0892 6.95305 19.9846 8.05762 19.9846H15.9423C17.0469 19.9846 17.9423 19.0892 17.9423 17.9846V15.96C17.9423 13.7508 16.1514 11.96 13.9423 11.96H10.0576ZM8.05762 15.96C8.05762 14.8554 8.95305 13.96 10.0576 13.96H13.9423C15.0469 13.96 15.9423 14.8554 15.9423 15.96V17.9846H8.05762V15.96Z"
    fill="#0D0D15"
  />
</svg>
