<svg width="24" height="24" viewBox="0 0 24 24" fill="none" xmlns="http://www.w3.org/2000/svg">
  <path
    d="M13 13.8825C12.45 13.8825 12 14.3325 12 14.8825C12 15.4325 12.45 15.8825 13 15.8825H17C17.55 15.8825 18 15.4325 18 14.8825C18 14.3325 17.55 13.8825 17 13.8825H13Z"
    fill="#0D0D15"
  />
  <path
    d="M8.2 8.5925C7.81 8.2025 7.18 8.2025 6.79 8.5925C6.4 8.9825 6.4 9.6125 6.79 10.0025L8.67 11.8825L6.79 13.7725C6.4 14.1625 6.4 14.7925 6.79 15.1825C7.18 15.5725 7.81 15.5725 8.2 15.1825L10.79 12.5925C11.18 12.2025 11.18 11.5725 10.79 11.1825L8.2 8.5925Z"
    fill="#0D0D15"
  />
  <path
    fill-rule="evenodd"
    clip-rule="evenodd"
    d="M5 4H19C20.6569 4 22 5.34315 22 7V17C22 18.6569 20.6569 20 19 20H5C3.34315 20 2 18.6569 2 17V7C2 5.34314 3.34315 4 5 4ZM4 17V7H20V17C20 17.5523 19.5523 18 19 18H5C4.44772 18 4 17.5523 4 17Z"
    fill="#0D0D15"
  />
</svg>
