<svg width="24" height="24" viewBox="0 0 24 24" fill="none" xmlns="http://www.w3.org/2000/svg">
  <path
    d="M15.0321 11.0273H13.5963C13.3767 11.0273 13.1988 10.8639 13.1988 10.6623V7.27511C13.1988 6.79694 12.5262 6.60556 12.2316 6.99992L8.6568 11.7861C8.41561 12.109 8.66745 12.5479 9.09392 12.5479H10.5297C10.7492 12.5479 10.9272 12.7113 10.9272 12.9129V16.3001C10.9272 16.7783 11.5998 16.9696 11.8944 16.5753L15.4692 11.7891C15.7104 11.4662 15.4585 11.0273 15.0321 11.0273Z"
    fill="#0D0D15"
  />
  <path
    fill-rule="evenodd"
    clip-rule="evenodd"
    d="M12 22C17.5228 22 22 17.5228 22 12C22 6.47715 17.5228 2 12 2C6.47715 2 2 6.47715 2 12C2 17.5228 6.47715 22 12 22ZM20 12C20 16.4183 16.4183 20 12 20C7.58172 20 4 16.4183 4 12C4 7.58172 7.58172 4 12 4C16.4183 4 20 7.58172 20 12Z"
    fill="#0D0D15"
  />
</svg>
