<svg width="24" height="24" viewBox="0 0 24 24" fill="none" xmlns="http://www.w3.org/2000/svg">
  <path
    d="M9 0C8.44771 0 8 0.447715 8 1C8 1.55228 8.44771 2 9 2H15C15.5523 2 16 1.55228 16 1C16 0.447715 15.5523 0 15 0H9Z"
    fill="#0D0D15"
  />
  <path
    d="M11 8C11 7.44772 11.4477 7 12 7C12.5523 7 13 7.44772 13 8V11.5858L14.9502 13.536C15.3408 13.9265 15.3408 14.5597 14.9502 14.9502C14.5597 15.3407 13.9266 15.3407 13.536 14.9502L11.4147 12.8289C11.3942 12.8084 11.3747 12.7872 11.3563 12.7653C11.1385 12.5819 11 12.3071 11 12V8Z"
    fill="#0D0D15"
  />
  <path
    fill-rule="evenodd"
    clip-rule="evenodd"
    d="M12 21C16.9706 21 21 16.9706 21 12C21 9.89746 20.279 7.96331 19.0708 6.4313C19.088 6.41626 19.1049 6.40054 19.1213 6.38412L20.0616 5.44386C20.4521 5.05334 20.4521 4.42017 20.0616 4.02965C19.671 3.63912 19.0379 3.63912 18.6474 4.02965L17.7071 4.96991C17.6941 4.98292 17.6815 4.99621 17.6694 5.00975C16.1218 3.75309 14.1489 3 12 3C9.87499 3 7.922 3.73647 6.38233 4.96809L5.41838 4.00414C5.02785 3.61361 4.39469 3.61361 4.00416 4.00414C3.61364 4.39466 3.61364 5.02783 4.00417 5.41835L4.96811 6.3823C3.73648 7.92197 3 9.87498 3 12C3 16.9706 7.02944 21 12 21ZM19 12C19 15.866 15.866 19 12 19C8.13401 19 5 15.866 5 12C5 8.13401 8.13401 5 12 5C15.866 5 19 8.13401 19 12Z"
    fill="#0D0D15"
  />
</svg>
