<svg width="24" height="24" viewBox="0 0 24 24" fill="none" xmlns="http://www.w3.org/2000/svg">
  <path
    d="M17.4503 19.5596C13.1164 19.5596 9.59732 16.1105 9.59732 11.8622C9.59732 10.6041 10.6297 9.52422 11.9113 9.52422C13.1816 9.52422 14.2254 10.4889 14.2254 11.6929C14.2254 13.6556 15.9705 15.5584 18.1127 15.5584C20.2632 15.5584 22 13.8781 22 11.8201C22 6.40441 17.5203 2 12.003 2C6.49195 2 2.01646 6.38663 2.00593 11.7937C1.99416 12.032 1.93311 13.8657 2.71717 15.6977C2.87408 16.0646 3.30458 16.2369 3.67799 16.0828C4.0514 15.9288 4.22722 15.5066 4.07036 15.1397C3.3684 13.4998 3.47217 11.8588 3.47217 11.8588C3.47316 11.8435 3.47363 11.8281 3.47363 11.8128C3.47363 7.1921 7.2955 3.44068 12.003 3.44068C16.7106 3.44068 20.5323 7.19921 20.5323 11.8201C20.5323 13.0933 19.4431 14.1176 18.1127 14.1176C16.774 14.1176 15.6931 12.9194 15.6931 11.6929C15.6931 9.70791 14.0055 8.08354 11.9113 8.08354C9.82862 8.08354 8.12958 9.81788 8.12958 11.8622C8.12958 16.9055 12.3058 21 17.4503 21C17.8554 21 18.1842 20.6776 18.1842 20.2796C18.1842 19.8821 17.8554 19.5596 17.4503 19.5596Z"
    fill="#0D0D15"
  />
  <path
    d="M9.57991 19.2492C7.42562 17.3361 6.0927 13.7944 6.46444 11.2571C6.81844 8.8424 8.87163 6.46679 11.9115 6.46677C14.9457 6.46676 17.4091 8.88476 17.4091 11.8631C17.4091 12.2606 17.7379 12.5834 18.1429 12.5834C18.548 12.5834 18.8768 12.2606 18.8768 11.8631C18.8768 8.08962 15.7558 5.02606 11.9115 5.02605C8.07283 5.02609 5.45859 8.00268 5.01159 11.0521C4.58115 13.9906 6.1 18.1017 8.59453 20.318C8.89487 20.5847 9.35964 20.5616 9.63115 20.2672C9.90316 19.9722 9.87981 19.5165 9.57991 19.2492Z"
    fill="#0D0D15"
  />
  <path
    d="M12.7333 11.9497C12.7333 14.645 14.9632 16.8338 17.709 16.8338C18.1139 16.8338 18.443 17.1569 18.443 17.5543C18.443 17.9517 18.1139 18.2747 17.709 18.2747C14.1524 18.2747 11.2654 15.4408 11.2654 11.9497C11.2654 11.5523 11.5944 11.2293 11.9993 11.2293C12.4042 11.2293 12.7333 11.5523 12.7333 11.9497Z"
    fill="#0D0D15"
  />
</svg>
