<svg width="24" height="24" viewBox="0 0 24 24" fill="none" xmlns="http://www.w3.org/2000/svg">
  <path
    d="M5 2H19C20.6569 2 22 3.34315 22 5V8.89271C21.4682 8.23159 20.7665 7.72947 20 7.4091V5H4V15C4 15.5523 4.44772 16 5 16H11V18H5C3.34315 18 2 16.6569 2 15V5C2 3.34314 3.34315 2 5 2Z"
    fill="#0D0D15"
  />
  <path
    fill-rule="evenodd"
    clip-rule="evenodd"
    d="M15 11.7778V13.1707C14.1476 13.472 13.472 14.1476 13.1707 15C13.0602 15.3128 13 15.6494 13 16V18C13 19.6569 14.3431 21 16 21H20C20.7684 21 21.4692 20.7111 22 20.2361C22.6137 19.6868 23 18.8885 23 18V16C23 14.6938 22.1652 13.5825 21 13.1707V11.7778C21 10.1362 19.5429 9 18 9C16.4571 9 15 10.1362 15 11.7778ZM18 11C17.3337 11 17 11.4557 17 11.7778V13H19V11.7778C19 11.4557 18.6663 11 18 11ZM20 19C20.5523 19 21 18.5523 21 18V16C21 15.4477 20.5523 15 20 15H16C15.4477 15 15 15.4477 15 16V18C15 18.5523 15.4477 19 16 19H20Z"
    fill="#0D0D15"
  />
</svg>
