<svg width="25" height="24" viewBox="0 0 25 24" fill="none" xmlns="http://www.w3.org/2000/svg">
  <path
    fill-rule="evenodd"
    clip-rule="evenodd"
    d="M9.35114 9.09119L7.26319 11.2529C7.89371 12.2346 8.69853 13.2589 9.72542 14.2857C10.7689 15.3292 11.8093 16.1429 12.8047 16.7771L14.8961 14.6858C15.3926 14.1894 16.1131 13.9898 16.7943 14.1601L19.486 14.833C20.3758 15.0554 21 15.8549 21 16.772L21 19.533C21 20.2896 20.4079 21.0094 19.537 20.9999C17.9338 20.9824 13.1041 20.4911 8.31201 15.699C3.5204 10.9075 3.02083 6.07098 3.00013 4.46596C2.98889 3.59406 3.70922 3 4.46723 3H7.22948C8.14462 3 8.94289 3.62146 9.16729 4.50863L9.85122 7.21253C10.0208 7.88309 9.83168 8.59368 9.35114 9.09119ZM6.25092 9.42384C5.36691 7.53579 5.1005 5.94168 5.02554 4.99873H7.22948L7.91341 7.70264L6.25092 9.42384ZM19.0012 18.9756C18.0681 18.903 16.4955 18.643 14.6301 17.7784L16.3095 16.0992L19.0012 16.772L19.0012 18.9756Z"
    fill="#0D0D15"
  />
  <path
    d="M16.53 9.01635C16.32 9.37635 15.86 9.50635 15.5 9.29635C15.14 9.09635 15.02 8.63635 15.22 8.27635L15.7 7.44635H14.75C14.34 7.44635 14 7.10635 14 6.69635C14 6.28635 14.34 5.94635 14.75 5.94635H15.7L15.23 5.12635C15.02 4.76635 15.14 4.30635 15.5 4.09635C15.86 3.89635 16.32 4.01635 16.53 4.37635L17 5.19635L17.47 4.37635C17.68 4.01635 18.14 3.89635 18.5 4.09635C18.86 4.30635 18.98 4.76635 18.77 5.12635L18.3 5.94635H19.25C19.66 5.94635 20 6.28635 20 6.69635C20 7.10635 19.66 7.44635 19.25 7.44635H18.3L18.79 8.28635C18.99 8.64635 18.87 9.09635 18.51 9.30635C18.15 9.50635 17.69 9.38635 17.48 9.02635L17 8.19635L16.53 9.01635Z"
    fill="#0D0D15"
  />
</svg>
