<svg width="24" height="24" viewBox="0 0 24 24" fill="none" xmlns="http://www.w3.org/2000/svg">
  <path
    d="M12 19C12.5523 19 13 18.5523 13 18C13 17.4477 12.5523 17 12 17C11.4477 17 11 17.4477 11 18C11 18.5523 11.4477 19 12 19Z"
    fill="#0D0D15"
  />
  <path
    d="M11.53 12.0163C11.32 12.3763 10.86 12.5063 10.5 12.2963C10.14 12.0963 10.02 11.6363 10.22 11.2763L10.7 10.4463H9.75C9.34 10.4463 9 10.1063 9 9.69635C9 9.28635 9.34 8.94635 9.75 8.94635H10.7L10.23 8.12635C10.02 7.76635 10.14 7.30635 10.5 7.09635C10.86 6.89635 11.32 7.01635 11.53 7.37635L12 8.19635L12.47 7.37635C12.68 7.01635 13.14 6.89635 13.5 7.09635C13.86 7.30635 13.98 7.76635 13.77 8.12635L13.3 8.94635H14.25C14.66 8.94635 15 9.28635 15 9.69635C15 10.1063 14.66 10.4463 14.25 10.4463H13.3L13.79 11.2863C13.99 11.6463 13.87 12.0963 13.51 12.3063C13.15 12.5063 12.69 12.3863 12.48 12.0263L12 11.1963L11.53 12.0163Z"
    fill="#0D0D15"
  />
  <path
    fill-rule="evenodd"
    clip-rule="evenodd"
    d="M16 2H8C6.34314 2 5 3.34315 5 5V19C5 20.6569 6.34315 22 8 22H16C17.6569 22 19 20.6569 19 19V5C19 3.34315 17.6569 2 16 2ZM7 5C7 4.44772 7.44772 4 8 4H16C16.5523 4 17 4.44772 17 5V19C17 19.5523 16.5523 20 16 20H8C7.44772 20 7 19.5523 7 19V5Z"
    fill="#0D0D15"
  />
</svg>
