<svg width="24" height="24" viewBox="0 0 24 24" fill="none" xmlns="http://www.w3.org/2000/svg">
  <path
    d="M12 13C10.8954 13 10 13.8954 10 15C10 16.1046 10.8954 17 12 17C13.1046 17 14 16.1046 14 15C14 13.8954 13.1046 13 12 13Z"
    fill="#0D0D15"
  />
  <path
    fill-rule="evenodd"
    clip-rule="evenodd"
    d="M12 3C10.2813 3 9 4.29098 9 5.74977L9.00001 7.99999L17 8C18.6569 8 20 9.34315 20 11V19C20 20.6569 18.6569 22 17 22H7C5.34315 22 4 20.6569 4 19V11C4 9.34315 5.34315 8 7 8V5.74977C7 3.06668 9.30041 1 12 1C13.1647 1 14.2443 1.37942 15.1008 2.023C15.6338 2.42357 16.0823 2.92797 16.4098 3.50886C16.681 3.98995 16.5109 4.59983 16.0299 4.87108C15.5488 5.14233 14.9389 4.97222 14.6676 4.49114C14.4804 4.15913 14.2191 3.86222 13.8992 3.62186C13.3861 3.23621 12.7272 3 12 3ZM7 10C6.44772 10 6 10.4477 6 11V19C6 19.5523 6.44772 20 7 20H17C17.5523 20 18 19.5523 18 19V11C18 10.4477 17.5523 10 17 10H7Z"
    fill="#0D0D15"
  />
</svg>
