<svg width="24" height="24" viewBox="0 0 24 24" fill="none" xmlns="http://www.w3.org/2000/svg">
  <path
    d="M11 14V7.79288C11 7.24063 11.4478 6.79288 12 6.79288C12.5522 6.79288 13 7.24063 13 7.79288V14L13.5859 12.7929C13.9763 12.4024 14.6096 12.4024 15 12.7929C15.3906 13.1835 15.3906 13.8166 15 14.2072L12.707 16.5C12.3167 16.8905 11.6833 16.8905 11.293 16.5L9 14.2072C8.60938 13.8166 8.60938 13.1835 9 12.7929C9.39038 12.4024 10.0237 12.4024 10.4141 12.7929L11 14Z"
    fill="#0D0D15"
  />
  <path
    fill-rule="evenodd"
    clip-rule="evenodd"
    d="M4 6.3998C4 6.04998 4.19022 5.73019 4.49137 5.57374L10.8074 2.29251C11.5582 1.9025 12.4418 1.9025 13.1926 2.29251L19.5086 5.57374C19.8098 5.73019 20 6.04998 20 6.3998V11.9412C20 16.8221 16.3453 20.391 12.885 21.8235C12.3164 22.0588 11.6836 22.0588 11.115 21.8235C7.65471 20.391 4 16.8221 4 11.9412V6.3998ZM11.7294 4.0673C11.9022 3.97757 12.0978 3.97757 12.2706 4.0673L18 7.04378V11.9412C18 15.7553 15.1037 18.7404 12.12 19.9755C12.0413 20.0082 11.9587 20.0082 11.88 19.9755C8.89635 18.7404 6 15.7553 6 11.9412V7.04378L11.7294 4.0673Z"
    fill="#0D0D15"
  />
</svg>
