<svg width="24" height="24" viewBox="0 0 24 24" fill="none" xmlns="http://www.w3.org/2000/svg">
  <path
    d="M11 16V10.4142L10.4141 11C10.0237 11.3905 9.39038 11.3905 9 11C8.60938 10.6094 8.60938 9.97632 9 9.58569L11.293 7.29288C11.6833 6.90237 12.3167 6.90237 12.707 7.29288L15 9.58569C15.3906 9.97632 15.3906 10.6094 15 11C14.6096 11.3905 13.9763 11.3905 13.5859 11L13 10.4142V16C13 16.5522 12.5522 17 12 17C11.4478 17 11 16.5522 11 16Z"
    fill="#0D0D15"
  />
  <path
    fill-rule="evenodd"
    clip-rule="evenodd"
    d="M4.49137 5.57374C4.19022 5.73019 4 6.04998 4 6.3998V11.9412C4 16.8221 7.65471 20.391 11.115 21.8235C11.6836 22.0588 12.3164 22.0588 12.885 21.8235C16.3453 20.391 20 16.8221 20 11.9412V6.3998C20 6.04998 19.8098 5.73019 19.5086 5.57374L13.1926 2.29251C12.4418 1.9025 11.5582 1.9025 10.8074 2.29251L4.49137 5.57374ZM12.2706 4.0673C12.0978 3.97757 11.9022 3.97757 11.7294 4.0673L6 7.04378V11.9412C6 15.7553 8.89635 18.7404 11.88 19.9755C11.9587 20.0082 12.0413 20.0082 12.12 19.9755C15.1037 18.7404 18 15.7553 18 11.9412V7.04378L12.2706 4.0673Z"
    fill="#0D0D15"
  />
</svg>
