<svg width="24" height="24" viewBox="0 0 24 24" fill="none" xmlns="http://www.w3.org/2000/svg">
  <path
    d="M7.30148 9.92118C8.5437 8.72981 10.1914 7.99994 12 7.99994C13.8086 7.99994 15.4563 8.72981 16.6985 9.92118C17.0726 10.2799 17.1008 10.8812 16.7705 11.2767C16.4272 11.6876 15.8229 11.7269 15.4339 11.3538C14.5179 10.4754 13.3156 9.94667 12 9.94667C10.6844 9.94667 9.48207 10.4754 8.56614 11.3538C8.17708 11.7269 7.57275 11.6876 7.2295 11.2767C6.89916 10.8812 6.92741 10.2799 7.30148 9.92118Z"
    fill="#0D0D15"
  />
  <path
    d="M9.33457 12.0674C10.0373 11.3935 10.9724 10.9782 12 10.9782C13.0276 10.9782 13.9627 11.3935 14.6654 12.0674C15.0395 12.4261 15.0677 13.0274 14.7374 13.4229C14.3942 13.8338 13.7898 13.8731 13.4008 13.5C13.0244 13.139 12.5346 12.925 12 12.925C11.4654 12.925 10.9756 13.139 10.5992 13.5C10.2102 13.8731 9.60584 13.8338 9.26259 13.4229C8.93225 13.0274 8.96051 12.4261 9.33457 12.0674Z"
    fill="#0D0D15"
  />
  <path
    d="M12 16C12.5523 16 13 15.5523 13 15C13 14.4477 12.5523 14 12 14C11.4477 14 11 14.4477 11 15C11 15.5523 11.4477 16 12 16Z"
    fill="#0D0D15"
  />
  <path
    fill-rule="evenodd"
    clip-rule="evenodd"
    d="M4 6.3998C4 6.04998 4.19022 5.73019 4.49137 5.57374L10.8074 2.29251C11.5582 1.9025 12.4418 1.9025 13.1926 2.29251L19.5086 5.57374C19.8098 5.73019 20 6.04998 20 6.3998V11.9412C20 16.8221 16.3453 20.391 12.885 21.8235C12.3164 22.0588 11.6836 22.0588 11.115 21.8235C7.65471 20.391 4 16.8221 4 11.9412V6.3998ZM11.7294 4.0673C11.9022 3.97757 12.0978 3.97757 12.2706 4.0673L18 7.04378V11.9412C18 15.7553 15.1037 18.7404 12.12 19.9755C12.0413 20.0082 11.9587 20.0082 11.88 19.9755C8.89635 18.7404 6 15.7553 6 11.9412V7.04378L11.7294 4.0673Z"
    fill="#0D0D15"
  />
</svg>
