<svg width="24" height="24" viewBox="0 0 24 24" fill="none" xmlns="http://www.w3.org/2000/svg">
  <path
    d="M5.63668 18.8749C7.16284 20.8704 9.49839 22 11.9998 22V20C10.1092 20 8.36609 19.1515 7.22563 17.6603C5.59148 15.521 5.59393 12.5379 7.21815 10.4283L11.9998 4.43872V2C11.6317 2.00005 11.2635 2.15721 11.0111 2.47151L11.0094 2.47372L5.64479 9.19347L5.63982 9.19991C3.45199 12.0338 3.45584 16.0204 5.63668 18.8749Z"
    fill="#0D0D15"
  />
  <path
    d="M18.3632 18.8749C16.837 20.8704 14.5012 22 11.9998 22V20C13.8904 20 15.6338 19.1515 16.7742 17.6603C18.4084 15.521 18.4059 12.5379 16.7817 10.4283L11.9998 4.43872V2C12.368 2.00005 12.7364 2.15721 12.9887 2.47151L12.9905 2.47372L18.3551 9.19347L18.3601 9.19991C20.5479 12.0338 20.544 16.0204 18.3632 18.8749Z"
    fill="#0D0D15"
  />
</svg>
