<svg width="24" height="24" viewBox="0 0 24 24" fill="none" xmlns="http://www.w3.org/2000/svg">
  <path
    fill-rule="evenodd"
    clip-rule="evenodd"
    d="M9.5 2H6.5C5.11929 2 4 3.11929 4 4.5V6.17071C2.83481 6.58254 2 7.69378 2 9V15C2 16.3062 2.83481 17.4175 4 17.8293V19.5C4 20.8807 5.11929 22 6.5 22H9.5C10.8807 22 12 20.8807 12 19.5V17.8293C13.1652 17.4175 14 16.3062 14 15V11C14.5523 11 15 10.5523 15 10C15 9.44771 14.5523 9 14 9C14 7.69378 13.1652 6.58254 12 6.17071V4.5C12 3.11929 10.8807 2 9.5 2ZM10 6V4.5C10 4.22386 9.77614 4 9.5 4H6.5C6.22386 4 6 4.22386 6 4.5V6H10ZM10 18H6V19.5C6 19.7761 6.22386 20 6.5 20H9.5C9.77614 20 10 19.7761 10 19.5V18ZM4 9C4 8.44772 4.44772 8 5 8H11C11.5523 8 12 8.44772 12 9V15C12 15.5523 11.5523 16 11 16H5C4.44772 16 4 15.5523 4 15V9Z"
    fill="#0D0D15"
  />
  <path
    d="M19.9181 9.98927C19.9181 11.2764 19.411 12.4476 18.5762 13.3331C18.1908 13.742 18.2241 14.373 18.6506 14.7425C19.0771 15.112 19.7354 15.0801 20.1209 14.6712C21.288 13.4332 22 11.7897 22 9.98927C22 8.20093 21.2975 6.56749 20.1443 5.33238C19.7609 4.92174 19.1028 4.88679 18.6744 5.25433C18.2461 5.62186 18.2096 6.2527 18.593 6.66334C19.4178 7.5467 19.9181 8.71079 19.9181 9.98927Z"
    fill="#0D0D15"
  />
  <path
    d="M16.2653 11.3195C16.5956 10.9657 16.7952 10.501 16.7952 9.98927C16.7952 9.47749 16.5956 9.01278 16.2653 8.65905C15.8819 8.2484 15.9184 7.61757 16.3467 7.25003C16.7751 6.8825 17.4332 6.91744 17.8166 7.32808C18.4753 8.03358 18.8771 8.96763 18.8771 9.98927C18.8771 11.0109 18.4753 11.945 17.8166 12.6504C17.4332 13.0611 16.7751 13.096 16.3467 12.7285C15.9184 12.361 15.8819 11.7301 16.2653 11.3195Z"
    fill="#0D0D15"
  />
</svg>
