<svg width="24" height="24" viewBox="0 0 24 24" fill="none" xmlns="http://www.w3.org/2000/svg">
  <path
    fill-rule="evenodd"
    clip-rule="evenodd"
    d="M22 12C22 17.5228 17.5228 22 12 22C6.47715 22 2 17.5228 2 12C2 6.47715 6.47715 2 12 2C17.5228 2 22 6.47715 22 12ZM19.9381 13C19.6061 15.6624 17.9659 17.9184 15.681 19.1047C15.7955 18.8609 15.8995 18.611 15.994 18.3591C16.5496 16.8775 16.893 15.0093 16.9788 13H19.9381ZM19.9381 11H16.9788C16.893 8.99068 16.5496 7.12254 15.994 5.6409C15.8995 5.38897 15.7955 5.13913 15.681 4.89532C17.9659 6.08156 19.6061 8.33764 19.9381 11ZM14.9768 11C14.7923 7.05369 13.5299 4 12 4C10.4701 4 9.20775 7.05369 9.02321 11H14.9768ZM7.02123 11C7.10703 8.99068 7.45041 7.12254 8.00602 5.6409C8.1005 5.38897 8.20447 5.13913 8.31895 4.89532C6.0341 6.08156 4.39389 8.33764 4.06189 11H7.02123ZM4.06189 13H7.02123C7.10703 15.0093 7.45041 16.8775 8.00602 18.3591C8.1005 18.611 8.20447 18.8609 8.31895 19.1047C6.0341 17.9184 4.39389 15.6624 4.06189 13ZM9.02321 13H14.9768C14.7923 16.9463 13.5299 20 12 20C10.4701 20 9.20775 16.9463 9.02321 13Z"
    fill="#0D0D15"
  />
</svg>
