<svg width="24" height="24" viewBox="0 0 24 24" fill="none" xmlns="http://www.w3.org/2000/svg">
  <path
    fill-rule="evenodd"
    clip-rule="evenodd"
    d="M12 2C17.2847 2 21.6118 6.09937 21.9751 11.2917L20.7559 10.7004C20.4604 10.5571 20.1519 10.4521 19.8369 10.3853C19.3467 7.99243 17.7876 5.98901 15.6812 4.89526C15.7954 5.13916 15.8994 5.38892 15.9941 5.64087C16.5342 7.0813 16.8735 8.88721 16.9712 10.8328L14.8755 11.8489C14.3389 12.1089 13.8838 12.5088 13.5562 13H9.02344C9.20752 16.9463 10.4702 20 12 20C12.5151 20 13 19.6533 13.4238 19.043C13.814 20.0325 14.4375 20.8503 15.1396 21.4973C14.1523 21.8235 13.0967 22 12 22C6.47705 22 2 17.5229 2 12C2 6.47705 6.47705 2 12 2ZM14.9766 11C14.7925 7.05371 13.5298 4 12 4C10.4702 4 9.20752 7.05371 9.02344 11H14.9766ZM7.021 11C7.10693 8.99072 7.4502 7.12256 8.00586 5.64087C8.10059 5.38892 8.20459 5.13916 8.31885 4.89526C6.03418 6.08154 4.39404 8.33765 4.06201 11H7.021ZM4.06201 13H7.021C7.10693 15.0093 7.4502 16.8774 8.00586 18.3591C8.04346 18.459 8.08252 18.5583 8.12305 18.6572C8.18457 18.8081 8.25 18.9575 8.31885 19.1047C6.03418 17.9185 4.39404 15.6624 4.06201 13Z"
    fill="#0D0D15"
  />
  <path
    fill-rule="evenodd"
    clip-rule="evenodd"
    d="M19.8835 12.4999C19.3265 12.2298 18.6735 12.2298 18.1165 12.4999L15.748 13.6484C15.3013 13.8649 15 14.3196 15 14.8373L15 16.7768C15 19.0588 16.8 20.5858 18.3077 21.1684C18.7529 21.3404 19.2472 21.3404 19.6923 21.1684C21.2 20.5858 23 19.0588 23 16.7768V14.8373C23 14.3196 22.6987 13.8649 22.252 13.6484L19.8835 12.4999ZM18.9891 14.2995C18.9912 14.2985 18.9949 14.2974 19 14.2974C19.0051 14.2974 19.0088 14.2985 19.0109 14.2995L21 15.264V16.7768C21 17.9014 20.0754 18.8656 19 19.2916C17.9246 18.8656 17 17.9014 17 16.7768V15.264L18.9891 14.2995Z"
    fill="#0D0D15"
  />
</svg>
