<svg width="24" height="24" viewBox="0 0 24 24" fill="none" xmlns="http://www.w3.org/2000/svg">
  <path
    d="M16 4C16 3.44771 16.4477 3 17 3C17.5523 3 18 3.44771 18 4C18 4.3772 17.7915 4.70715 17.4788 4.87836C17.1685 5.0482 16.8204 5.29073 16.5387 5.6191C16.2528 5.95255 16 6.41963 16 7V7.5C16 8.05228 16.4477 8.5 17 8.5C17.5523 8.5 18 8.05228 18 7.5V7.00614C18.0038 6.99528 18.0171 6.96755 18.0569 6.92111C18.1336 6.83161 18.265 6.72805 18.4391 6.6327C19.3671 6.12472 20 5.13699 20 4C20 2.34315 18.6569 1 17 1C15.3431 1 14 2.34315 14 4C14 4.55228 14.4477 5 15 5C15.5523 5 16 4.55228 16 4Z"
    fill="#0D0D15"
  />
  <path
    d="M18 10C18 10.5523 17.5523 11 17 11C16.4477 11 16 10.5523 16 10C16 9.44772 16.4477 9 17 9C17.5523 9 18 9.44772 18 10Z"
    fill="#0D0D15"
  />
  <path
    fill-rule="evenodd"
    clip-rule="evenodd"
    d="M9.35114 9.09119L7.26319 11.2529C7.89371 12.2346 8.69853 13.2589 9.72542 14.2857C10.7689 15.3292 11.8093 16.1429 12.8047 16.7771L14.8961 14.6858C15.3926 14.1894 16.1131 13.9898 16.7943 14.1601L19.486 14.833C20.3758 15.0554 21 15.8549 21 16.772L21 19.533C21 20.2896 20.4079 21.0094 19.537 20.9999C17.9338 20.9824 13.1041 20.4911 8.31201 15.699C3.5204 10.9075 3.02083 6.07098 3.00013 4.46596C2.98889 3.59406 3.70922 3 4.46723 3H7.22948C8.14462 3 8.94289 3.62146 9.16729 4.50863L9.85122 7.21253C10.0208 7.88309 9.83168 8.59368 9.35114 9.09119ZM6.25092 9.42384C5.36691 7.53579 5.1005 5.94168 5.02554 4.99873H7.22948L7.91341 7.70264L6.25092 9.42384ZM19.0012 18.9756C18.0681 18.903 16.4955 18.643 14.6301 17.7784L16.3095 16.0992L19.0012 16.772L19.0012 18.9756Z"
    fill="#0D0D15"
  />
</svg>
