<svg width="24" height="24" viewBox="0 0 24 24" fill="none" xmlns="http://www.w3.org/2000/svg">
  <path
    d="M6.0415 12.0894C6.0415 11.5366 5.74663 11.0528 5.30562 10.7865L5.83895 9.20768C5.93841 8.91326 5.71943 8.60815 5.40866 8.60815C5.26309 8.60815 5.12635 8.67793 5.04092 8.79578L3.39358 11.0685C3.149 11.3384 3 11.6965 3 12.0894C3 12.9293 3.68086 13.6101 4.52075 13.6101C5.36064 13.6101 6.0415 12.9293 6.0415 12.0894Z"
    fill="black"
  />
  <path
    d="M9.81994 12.0894C9.81994 11.5366 9.52507 11.0528 9.08406 10.7865L9.61739 9.20768C9.71685 8.91326 9.49787 8.60815 9.1871 8.60815C9.04153 8.60815 8.90479 8.67793 8.81936 8.79578L7.17202 11.0685C6.92744 11.3384 6.77844 11.6965 6.77844 12.0894C6.77844 12.9293 7.45931 13.6101 8.29919 13.6101C9.13908 13.6101 9.81994 12.9293 9.81994 12.0894Z"
    fill="black"
  />
  <path
    d="M14.9159 13.2136C14.4749 12.9473 14.1801 12.4635 14.1801 11.9108C14.1801 11.0709 14.8609 10.39 15.7008 10.39C16.5407 10.39 17.2216 11.0709 17.2216 11.9108C17.2216 12.3037 17.0726 12.6618 16.828 12.9316L15.1806 15.2043C15.0952 15.3222 14.9585 15.392 14.8129 15.392C14.5021 15.392 14.2832 15.0869 14.3826 14.7924L14.9159 13.2136Z"
    fill="black"
  />
  <path
    d="M17.9585 11.9108C17.9585 12.4635 18.2534 12.9473 18.6944 13.2136L18.161 14.7924C18.0616 15.0869 18.2806 15.392 18.5913 15.392C18.7369 15.392 18.8737 15.3222 18.9591 15.2043L20.6064 12.9316C20.851 12.6618 21 12.3037 21 11.9108C21 11.0709 20.3191 10.39 19.4792 10.39C18.6394 10.39 17.9585 11.0709 17.9585 11.9108Z"
    fill="black"
  />
</svg>
