<svg width="24" height="24" viewBox="0 0 24 24" fill="none" xmlns="http://www.w3.org/2000/svg">
  <path
    fill-rule="evenodd"
    clip-rule="evenodd"
    d="M3 5C3 3.89543 3.89543 3 5 3H19C20.1046 3 21 3.89543 21 5V19C21 20.1046 20.1046 21 19 21H5C3.89543 21 3 20.1046 3 19V5ZM12.7556 4.5H19C19.2761 4.5 19.5 4.72386 19.5 5V11.25H12.7556V4.5ZM11.2556 4.5H5C4.72386 4.5 4.5 4.72386 4.5 5V11.25H11.2556V4.5ZM4.5 12.75V19C4.5 19.2761 4.72386 19.5 5 19.5H11.2556V12.75H4.5ZM12.7556 19.5H19C19.2761 19.5 19.5 19.2761 19.5 19V12.75H12.7556V19.5Z"
    fill="#0D0D15"
  />
</svg>
