<svg width="24" height="24" viewBox="0 0 24 24" fill="none" xmlns="http://www.w3.org/2000/svg">
  <path
    d="M19.5 11C20.3284 11 21 10.3284 21 9.5C21 8.67157 20.3284 8 19.5 8C18.6716 8 18 8.67157 18 9.5C18 10.3284 18.6716 11 19.5 11Z"
    fill="#0D0D15"
  />
  <path
    d="M14.5 16C15.3284 16 16 15.3284 16 14.5C16 13.6716 15.3284 13 14.5 13C13.6716 13 13 13.6716 13 14.5C13 15.3284 13.6716 16 14.5 16Z"
    fill="#0D0D15"
  />
  <path
    d="M11 19.5C11 20.3284 10.3284 21 9.5 21C8.67157 21 8 20.3284 8 19.5C8 18.6716 8.67157 18 9.5 18C10.3284 18 11 18.6716 11 19.5Z"
    fill="#0D0D15"
  />
  <path
    d="M14.5 21C15.3284 21 16 20.3284 16 19.5C16 18.6716 15.3284 18 14.5 18C13.6716 18 13 18.6716 13 19.5C13 20.3284 13.6716 21 14.5 21Z"
    fill="#0D0D15"
  />
  <path
    d="M19.5 21C20.3284 21 21 20.3284 21 19.5C21 18.6716 20.3284 18 19.5 18C18.6716 18 18 18.6716 18 19.5C18 20.3284 18.6716 21 19.5 21Z"
    fill="#0D0D15"
  />
  <path
    d="M21 14.5C21 15.3284 20.3284 16 19.5 16C18.6716 16 18 15.3284 18 14.5C18 13.6716 18.6716 13 19.5 13C20.3284 13 21 13.6716 21 14.5Z"
    fill="#0D0D15"
  />
</svg>
