<svg width="24" height="24" viewBox="0 0 24 24" fill="none" xmlns="http://www.w3.org/2000/svg">
  <path
    d="M8.44244 4.94L7.50244 7L6.56244 4.94L4.50244 4L6.56244 3.06L7.50244 1L8.44244 3.06L10.5024 4L8.44244 4.94Z"
    fill="#0D0D15"
  />
  <path
    d="M19.9424 4.94L19.0024 7L18.0624 4.94L16.0024 4L18.0624 3.06L19.0024 1L19.9424 3.06L22.0024 4L19.9424 4.94Z"
    fill="#0D0D15"
  />
  <path
    d="M19.0024 12.5L18.0624 14.56L16.0024 15.5L18.0624 16.44L19.0024 18.5L19.9424 16.44L22.0024 15.5L19.9424 14.56L19.0024 12.5Z"
    fill="#0D0D15"
  />
  <path
    fill-rule="evenodd"
    clip-rule="evenodd"
    d="M13.8825 6.29L16.7125 9.12C17.1025 9.51 17.1025 10.15 16.7125 10.54L5.5425 21.71C5.3425 21.9 5.0925 22 4.8325 22C4.5725 22 4.3225 21.9 4.1225 21.7L1.2925 18.87C0.9025 18.48 0.9025 17.85 1.2925 17.46L12.4625 6.29C12.6625 6.1 12.9125 6 13.1725 6C13.4325 6 13.6825 6.1 13.8825 6.29ZM14.5825 9.83L13.1725 8.42L12.0025 9.59L13.4125 11L14.5825 9.83ZM3.4225 18.18L4.8325 19.59L12.0025 12.41L10.5925 11L3.4225 18.18Z"
    fill="#0D0D15"
  />
</svg>
